G04 #@! TF.GenerationSoftware,KiCad,Pcbnew,9.0.5*
G04 #@! TF.CreationDate,2025-10-15T09:52:21+02:00*
G04 #@! TF.ProjectId,KleverLogger,4b6c6576-6572-44c6-9f67-6765722e6b69,rev?*
G04 #@! TF.SameCoordinates,Original*
G04 #@! TF.FileFunction,Copper,L1,Top*
G04 #@! TF.FilePolarity,Positive*
%FSLAX46Y46*%
G04 Gerber Fmt 4.6, Leading zero omitted, Abs format (unit mm)*
G04 Created by KiCad (PCBNEW 9.0.5) date 2025-10-15 09:52:21*
%MOMM*%
%LPD*%
G01*
G04 APERTURE LIST*
G04 Aperture macros list*
%AMRoundRect*
0 Rectangle with rounded corners*
0 $1 Rounding radius*
0 $2 $3 $4 $5 $6 $7 $8 $9 X,Y pos of 4 corners*
0 Add a 4 corners polygon primitive as box body*
4,1,4,$2,$3,$4,$5,$6,$7,$8,$9,$2,$3,0*
0 Add four circle primitives for the rounded corners*
1,1,$1+$1,$2,$3*
1,1,$1+$1,$4,$5*
1,1,$1+$1,$6,$7*
1,1,$1+$1,$8,$9*
0 Add four rect primitives between the rounded corners*
20,1,$1+$1,$2,$3,$4,$5,0*
20,1,$1+$1,$4,$5,$6,$7,0*
20,1,$1+$1,$6,$7,$8,$9,0*
20,1,$1+$1,$8,$9,$2,$3,0*%
G04 Aperture macros list end*
G04 #@! TA.AperFunction,SMDPad,CuDef*
%ADD10C,0.800000*%
G04 #@! TD*
G04 #@! TA.AperFunction,SMDPad,CuDef*
%ADD11RoundRect,0.150000X0.512500X0.150000X-0.512500X0.150000X-0.512500X-0.150000X0.512500X-0.150000X0*%
G04 #@! TD*
G04 #@! TA.AperFunction,ComponentPad*
%ADD12RoundRect,0.250000X-0.350000X-0.625000X0.350000X-0.625000X0.350000X0.625000X-0.350000X0.625000X0*%
G04 #@! TD*
G04 #@! TA.AperFunction,ComponentPad*
%ADD13O,1.200000X1.750000*%
G04 #@! TD*
G04 #@! TA.AperFunction,SMDPad,CuDef*
%ADD14RoundRect,0.250000X-0.450000X0.262500X-0.450000X-0.262500X0.450000X-0.262500X0.450000X0.262500X0*%
G04 #@! TD*
G04 #@! TA.AperFunction,SMDPad,CuDef*
%ADD15RoundRect,0.250000X-0.250000X-0.475000X0.250000X-0.475000X0.250000X0.475000X-0.250000X0.475000X0*%
G04 #@! TD*
G04 #@! TA.AperFunction,SMDPad,CuDef*
%ADD16R,1.800000X7.500000*%
G04 #@! TD*
G04 #@! TA.AperFunction,SMDPad,CuDef*
%ADD17RoundRect,0.250000X-0.300000X-0.300000X0.300000X-0.300000X0.300000X0.300000X-0.300000X0.300000X0*%
G04 #@! TD*
G04 #@! TA.AperFunction,SMDPad,CuDef*
%ADD18RoundRect,0.090000X-0.660000X-0.360000X0.660000X-0.360000X0.660000X0.360000X-0.660000X0.360000X0*%
G04 #@! TD*
G04 #@! TA.AperFunction,SMDPad,CuDef*
%ADD19R,1.500000X0.900000*%
G04 #@! TD*
G04 #@! TA.AperFunction,HeatsinkPad*
%ADD20C,0.600000*%
G04 #@! TD*
G04 #@! TA.AperFunction,HeatsinkPad*
%ADD21R,2.900000X2.900000*%
G04 #@! TD*
G04 #@! TA.AperFunction,SMDPad,CuDef*
%ADD22RoundRect,0.250000X0.475000X-0.250000X0.475000X0.250000X-0.475000X0.250000X-0.475000X-0.250000X0*%
G04 #@! TD*
G04 #@! TA.AperFunction,SMDPad,CuDef*
%ADD23RoundRect,0.100000X-0.400000X-0.400000X0.400000X-0.400000X0.400000X0.400000X-0.400000X0.400000X0*%
G04 #@! TD*
G04 #@! TA.AperFunction,SMDPad,CuDef*
%ADD24RoundRect,0.150000X0.150000X-0.512500X0.150000X0.512500X-0.150000X0.512500X-0.150000X-0.512500X0*%
G04 #@! TD*
G04 #@! TA.AperFunction,SMDPad,CuDef*
%ADD25RoundRect,0.243750X0.456250X-0.243750X0.456250X0.243750X-0.456250X0.243750X-0.456250X-0.243750X0*%
G04 #@! TD*
G04 #@! TA.AperFunction,SMDPad,CuDef*
%ADD26RoundRect,0.250000X-0.475000X0.250000X-0.475000X-0.250000X0.475000X-0.250000X0.475000X0.250000X0*%
G04 #@! TD*
G04 #@! TA.AperFunction,SMDPad,CuDef*
%ADD27RoundRect,0.250000X-0.262500X-0.450000X0.262500X-0.450000X0.262500X0.450000X-0.262500X0.450000X0*%
G04 #@! TD*
G04 #@! TA.AperFunction,SMDPad,CuDef*
%ADD28RoundRect,0.150000X-0.650000X-0.150000X0.650000X-0.150000X0.650000X0.150000X-0.650000X0.150000X0*%
G04 #@! TD*
G04 #@! TA.AperFunction,HeatsinkPad*
%ADD29R,2.410000X3.100000*%
G04 #@! TD*
G04 #@! TA.AperFunction,SMDPad,CuDef*
%ADD30RoundRect,0.150000X-0.150000X0.825000X-0.150000X-0.825000X0.150000X-0.825000X0.150000X0.825000X0*%
G04 #@! TD*
G04 #@! TA.AperFunction,SMDPad,CuDef*
%ADD31RoundRect,0.250000X-0.325000X-0.650000X0.325000X-0.650000X0.325000X0.650000X-0.325000X0.650000X0*%
G04 #@! TD*
G04 #@! TA.AperFunction,SMDPad,CuDef*
%ADD32R,1.450000X0.600000*%
G04 #@! TD*
G04 #@! TA.AperFunction,SMDPad,CuDef*
%ADD33R,1.450000X0.300000*%
G04 #@! TD*
G04 #@! TA.AperFunction,HeatsinkPad*
%ADD34O,2.100000X1.000000*%
G04 #@! TD*
G04 #@! TA.AperFunction,HeatsinkPad*
%ADD35O,1.600000X1.000000*%
G04 #@! TD*
G04 #@! TA.AperFunction,ViaPad*
%ADD36C,0.800000*%
G04 #@! TD*
G04 #@! TA.AperFunction,Conductor*
%ADD37C,0.500000*%
G04 #@! TD*
G04 #@! TA.AperFunction,Conductor*
%ADD38C,0.200000*%
G04 #@! TD*
G04 #@! TA.AperFunction,Conductor*
%ADD39C,0.300000*%
G04 #@! TD*
G04 APERTURE END LIST*
D10*
G04 #@! TO.P,TP12,1,1*
G04 #@! TO.N,/GPIO3*
X98300000Y-94100000D03*
G04 #@! TD*
G04 #@! TO.P,TP11,1,1*
G04 #@! TO.N,/CANL*
X80100000Y-130400000D03*
G04 #@! TD*
G04 #@! TO.P,TP10,1,1*
G04 #@! TO.N,/CANH*
X89100000Y-130200000D03*
G04 #@! TD*
G04 #@! TO.P,TP9,1,1*
G04 #@! TO.N,/SD_CS*
X72600000Y-100200000D03*
G04 #@! TD*
G04 #@! TO.P,TP8,1,1*
G04 #@! TO.N,/SD_SCK*
X71800000Y-95800000D03*
G04 #@! TD*
G04 #@! TO.P,TP7,1,1*
G04 #@! TO.N,/SD_MISO*
X68100000Y-97400000D03*
G04 #@! TD*
G04 #@! TO.P,TP6,1,1*
G04 #@! TO.N,/SD_MOSI*
X70200000Y-92200000D03*
G04 #@! TD*
G04 #@! TO.P,TP5,1,1*
G04 #@! TO.N,/RS485_TX*
X96200000Y-101700000D03*
G04 #@! TD*
G04 #@! TO.P,TP4,1,1*
G04 #@! TO.N,/RS485_DE*
X92400000Y-106300000D03*
G04 #@! TD*
G04 #@! TO.P,TP3,1,1*
G04 #@! TO.N,/RS485_RX*
X90000000Y-105300000D03*
G04 #@! TD*
G04 #@! TO.P,TP2,1,1*
G04 #@! TO.N,+5V*
X76500000Y-106500000D03*
G04 #@! TD*
G04 #@! TO.P,TP1,1,1*
G04 #@! TO.N,+3V3*
X62000000Y-98100000D03*
G04 #@! TD*
D11*
G04 #@! TO.P,U6,1,I/O1*
G04 #@! TO.N,Net-(J5-D--PadA7)*
X98637500Y-117250000D03*
G04 #@! TO.P,U6,2,GND*
G04 #@! TO.N,GND*
X98637500Y-116300000D03*
G04 #@! TO.P,U6,3,I/O2*
G04 #@! TO.N,Net-(J5-D+-PadA6)*
X98637500Y-115350000D03*
G04 #@! TO.P,U6,4,I/O2*
G04 #@! TO.N,/USB_D+*
X96362500Y-115350000D03*
G04 #@! TO.P,U6,5,VBUS*
G04 #@! TO.N,+5V*
X96362500Y-116300000D03*
G04 #@! TO.P,U6,6,I/O1*
G04 #@! TO.N,/USB_D-*
X96362500Y-117250000D03*
G04 #@! TD*
D12*
G04 #@! TO.P,J7,1,Pin_1*
G04 #@! TO.N,Net-(D2-A2)*
X95000000Y-134550000D03*
D13*
G04 #@! TO.P,J7,2,Pin_2*
G04 #@! TO.N,GND*
X97000000Y-134550000D03*
G04 #@! TO.P,J7,3,Pin_3*
G04 #@! TO.N,Net-(D2-A1)*
X99000000Y-134550000D03*
G04 #@! TD*
D12*
G04 #@! TO.P,J1,1,Pin_1*
G04 #@! TO.N,Net-(D4-A)*
X82000000Y-134550000D03*
D13*
G04 #@! TO.P,J1,2,Pin_2*
G04 #@! TO.N,/CANL*
X84000000Y-134550000D03*
G04 #@! TO.P,J1,3,Pin_3*
G04 #@! TO.N,/CANH*
X86000000Y-134550000D03*
G04 #@! TO.P,J1,4,Pin_4*
G04 #@! TO.N,GND*
X88000000Y-134550000D03*
G04 #@! TD*
D14*
G04 #@! TO.P,R83,1*
G04 #@! TO.N,+5V*
X78100000Y-118087500D03*
G04 #@! TO.P,R83,2*
G04 #@! TO.N,/FB*
X78100000Y-119912500D03*
G04 #@! TD*
D15*
G04 #@! TO.P,C8,1*
G04 #@! TO.N,+5V*
X97050000Y-119500000D03*
G04 #@! TO.P,C8,2*
G04 #@! TO.N,GND*
X98950000Y-119500000D03*
G04 #@! TD*
D16*
G04 #@! TO.P,L2,1,1*
G04 #@! TO.N,/SW*
X68200000Y-112000000D03*
G04 #@! TO.P,L2,2,2*
G04 #@! TO.N,+5V*
X73800000Y-112000000D03*
G04 #@! TD*
D17*
G04 #@! TO.P,D5,1,K*
G04 #@! TO.N,+5V*
X96500000Y-112200000D03*
G04 #@! TO.P,D5,2,A*
G04 #@! TO.N,/Vbus*
X99300000Y-112200000D03*
G04 #@! TD*
D18*
G04 #@! TO.P,D8,1,VDD*
G04 #@! TO.N,+5V*
X102550000Y-105350000D03*
G04 #@! TO.P,D8,2,DOUT*
G04 #@! TO.N,unconnected-(D8-DOUT-Pad2)*
X102550000Y-108650000D03*
G04 #@! TO.P,D8,3,VSS*
G04 #@! TO.N,GND*
X107450000Y-108650000D03*
G04 #@! TO.P,D8,4,DIN*
G04 #@! TO.N,Net-(D7-DOUT)*
X107450000Y-105350000D03*
G04 #@! TD*
D19*
G04 #@! TO.P,U1,1,3V3*
G04 #@! TO.N,+3V3*
X76190000Y-91000000D03*
G04 #@! TO.P,U1,2,EN*
G04 #@! TO.N,/EN{slash}CHIP_PU*
X76190000Y-92500000D03*
G04 #@! TO.P,U1,3,IO4*
G04 #@! TO.N,/SD_MOSI*
X76190000Y-94000000D03*
G04 #@! TO.P,U1,4,IO5*
G04 #@! TO.N,/SD_SCK*
X76190000Y-95500000D03*
G04 #@! TO.P,U1,5,IO6*
G04 #@! TO.N,/SD_MISO*
X76190000Y-97000000D03*
G04 #@! TO.P,U1,6,IO7*
G04 #@! TO.N,/SD_CS*
X76190000Y-98500000D03*
G04 #@! TO.P,U1,7,IO8*
G04 #@! TO.N,/GPIO8*
X76190000Y-100000000D03*
G04 #@! TO.P,U1,8,IO9*
G04 #@! TO.N,Net-(SW1-A)*
X76190000Y-101500000D03*
G04 #@! TO.P,U1,9,GND*
G04 #@! TO.N,GND*
X76190000Y-103000000D03*
G04 #@! TO.P,U1,10,IO10*
G04 #@! TO.N,/RS485_DE*
X93690000Y-103000000D03*
G04 #@! TO.P,U1,11,IO20/RXD*
G04 #@! TO.N,/RS485_RX*
X93690000Y-101500000D03*
G04 #@! TO.P,U1,12,IO21/TXD*
G04 #@! TO.N,/RS485_TX*
X93690000Y-100000000D03*
G04 #@! TO.P,U1,13,IO18*
G04 #@! TO.N,/USB_D-*
X93690000Y-98500000D03*
G04 #@! TO.P,U1,14,IO19*
G04 #@! TO.N,/USB_D+*
X93690000Y-97000000D03*
G04 #@! TO.P,U1,15,IO3*
G04 #@! TO.N,/GPIO3*
X93690000Y-95500000D03*
G04 #@! TO.P,U1,16,IO2*
G04 #@! TO.N,/GPIO2*
X93690000Y-94000000D03*
G04 #@! TO.P,U1,17,IO1*
G04 #@! TO.N,/CAN_TX*
X93690000Y-92500000D03*
G04 #@! TO.P,U1,18,IO0*
G04 #@! TO.N,/CAN_RX*
X93690000Y-91000000D03*
D20*
G04 #@! TO.P,U1,19,GND*
G04 #@! TO.N,GND*
X84800000Y-96650000D03*
X84800000Y-97750000D03*
X85350000Y-96100000D03*
X85350000Y-97200000D03*
X85350000Y-98300000D03*
X85900000Y-96650000D03*
D21*
X85900000Y-97200000D03*
D20*
X85900000Y-97750000D03*
X86450000Y-96100000D03*
X86450000Y-97200000D03*
X86450000Y-98300000D03*
X87000000Y-96650000D03*
X87000000Y-97750000D03*
G04 #@! TD*
D22*
G04 #@! TO.P,C35,1*
G04 #@! TO.N,Net-(C35-Pad1)*
X76000000Y-119950000D03*
G04 #@! TO.P,C35,2*
G04 #@! TO.N,+5V*
X76000000Y-118050000D03*
G04 #@! TD*
G04 #@! TO.P,C37,1*
G04 #@! TO.N,/FB*
X74000000Y-123950000D03*
G04 #@! TO.P,C37,2*
G04 #@! TO.N,Net-(C35-Pad1)*
X74000000Y-122050000D03*
G04 #@! TD*
D23*
G04 #@! TO.P,SW1,1,A*
G04 #@! TO.N,Net-(SW1-A)*
X64200000Y-101400000D03*
X70200000Y-101400000D03*
G04 #@! TO.P,SW1,2,B*
G04 #@! TO.N,GND*
X64200000Y-105400000D03*
X70200000Y-105400000D03*
G04 #@! TD*
D18*
G04 #@! TO.P,D7,1,VDD*
G04 #@! TO.N,+5V*
X102550000Y-99350000D03*
G04 #@! TO.P,D7,2,DOUT*
G04 #@! TO.N,Net-(D7-DOUT)*
X102550000Y-102650000D03*
G04 #@! TO.P,D7,3,VSS*
G04 #@! TO.N,GND*
X107450000Y-102650000D03*
G04 #@! TO.P,D7,4,DIN*
G04 #@! TO.N,Net-(D6-DOUT)*
X107450000Y-99350000D03*
G04 #@! TD*
D24*
G04 #@! TO.P,U2,1,VIN*
G04 #@! TO.N,+5V*
X79850000Y-108137500D03*
G04 #@! TO.P,U2,2,GND*
G04 #@! TO.N,GND*
X80800000Y-108137500D03*
G04 #@! TO.P,U2,3,EN*
G04 #@! TO.N,+5V*
X81750000Y-108137500D03*
G04 #@! TO.P,U2,4,NC*
G04 #@! TO.N,unconnected-(U2-NC-Pad4)*
X81750000Y-105862500D03*
G04 #@! TO.P,U2,5,VOUT*
G04 #@! TO.N,+3V3*
X79850000Y-105862500D03*
G04 #@! TD*
D25*
G04 #@! TO.P,D1,1,K*
G04 #@! TO.N,GND*
X84000000Y-113075000D03*
G04 #@! TO.P,D1,2,A*
G04 #@! TO.N,Net-(D1-A)*
X84000000Y-111200000D03*
G04 #@! TD*
D26*
G04 #@! TO.P,C50,1*
G04 #@! TO.N,/SW*
X71900000Y-118050000D03*
G04 #@! TO.P,C50,2*
G04 #@! TO.N,/BST*
X71900000Y-119950000D03*
G04 #@! TD*
D17*
G04 #@! TO.P,D3,1,K*
G04 #@! TO.N,/VIN*
X62600000Y-129000000D03*
G04 #@! TO.P,D3,2,A*
G04 #@! TO.N,Net-(D3-A)*
X65400000Y-129000000D03*
G04 #@! TD*
D12*
G04 #@! TO.P,J2,1,Pin_1*
G04 #@! TO.N,Net-(D3-A)*
X65000000Y-134550000D03*
D13*
G04 #@! TO.P,J2,2,Pin_2*
G04 #@! TO.N,GND*
X67000000Y-134550000D03*
G04 #@! TD*
D15*
G04 #@! TO.P,C53,1*
G04 #@! TO.N,+5V*
X77050000Y-115000000D03*
G04 #@! TO.P,C53,2*
G04 #@! TO.N,GND*
X78950000Y-115000000D03*
G04 #@! TD*
D27*
G04 #@! TO.P,R85,1*
G04 #@! TO.N,/RON*
X67687500Y-126100000D03*
G04 #@! TO.P,R85,2*
G04 #@! TO.N,GND*
X69512500Y-126100000D03*
G04 #@! TD*
D15*
G04 #@! TO.P,C36,1*
G04 #@! TO.N,+5V*
X77100000Y-112000000D03*
G04 #@! TO.P,C36,2*
G04 #@! TO.N,GND*
X79000000Y-112000000D03*
G04 #@! TD*
D28*
G04 #@! TO.P,U9,1,GND*
G04 #@! TO.N,GND*
X64350000Y-118095000D03*
G04 #@! TO.P,U9,2,VIN*
G04 #@! TO.N,/VIN*
X64350000Y-119365000D03*
G04 #@! TO.P,U9,3,EN/UVLO*
X64350000Y-120635000D03*
G04 #@! TO.P,U9,4,RON*
G04 #@! TO.N,/RON*
X64350000Y-121905000D03*
G04 #@! TO.P,U9,5,FB*
G04 #@! TO.N,/FB*
X69650000Y-121905000D03*
G04 #@! TO.P,U9,6,PGOOD*
G04 #@! TO.N,unconnected-(U9-PGOOD-Pad6)*
X69650000Y-120635000D03*
G04 #@! TO.P,U9,7,BST*
G04 #@! TO.N,/BST*
X69650000Y-119365000D03*
G04 #@! TO.P,U9,8,SW*
G04 #@! TO.N,/SW*
X69650000Y-118095000D03*
D20*
G04 #@! TO.P,U9,9,EP*
G04 #@! TO.N,GND*
X66045000Y-118700000D03*
X66045000Y-120000000D03*
X66045000Y-121300000D03*
D29*
X67000000Y-120000000D03*
D20*
X67955000Y-118700000D03*
X67955000Y-120000000D03*
X67955000Y-121300000D03*
G04 #@! TD*
D14*
G04 #@! TO.P,R84,1*
G04 #@! TO.N,/FB*
X76000000Y-122087500D03*
G04 #@! TO.P,R84,2*
G04 #@! TO.N,GND*
X76000000Y-123912500D03*
G04 #@! TD*
D30*
G04 #@! TO.P,U3,1,TXD*
G04 #@! TO.N,/CAN_TX*
X86705000Y-124525000D03*
G04 #@! TO.P,U3,2,GND*
G04 #@! TO.N,GND*
X85435000Y-124525000D03*
G04 #@! TO.P,U3,3,VCC*
G04 #@! TO.N,+5V*
X84165000Y-124525000D03*
G04 #@! TO.P,U3,4,RXD*
G04 #@! TO.N,/CAN_RX*
X82895000Y-124525000D03*
G04 #@! TO.P,U3,5,VIO*
G04 #@! TO.N,+3V3*
X82895000Y-129475000D03*
G04 #@! TO.P,U3,6,CANL*
G04 #@! TO.N,/CANL*
X84165000Y-129475000D03*
G04 #@! TO.P,U3,7,CANH*
G04 #@! TO.N,/CANH*
X85435000Y-129475000D03*
G04 #@! TO.P,U3,8,S*
G04 #@! TO.N,GND*
X86705000Y-129475000D03*
G04 #@! TD*
D31*
G04 #@! TO.P,C52,1*
G04 #@! TO.N,/VIN*
X62525000Y-126000000D03*
G04 #@! TO.P,C52,2*
G04 #@! TO.N,GND*
X65475000Y-126000000D03*
G04 #@! TD*
D32*
G04 #@! TO.P,J5,A1,GND*
G04 #@! TO.N,GND*
X101905000Y-119570000D03*
G04 #@! TO.P,J5,A4,VBUS*
G04 #@! TO.N,/Vbus*
X101905000Y-118770000D03*
D33*
G04 #@! TO.P,J5,A5,CC1*
G04 #@! TO.N,Net-(J5-CC1)*
X101905000Y-117570000D03*
G04 #@! TO.P,J5,A6,D+*
G04 #@! TO.N,Net-(J5-D+-PadA6)*
X101905000Y-116570000D03*
G04 #@! TO.P,J5,A7,D-*
G04 #@! TO.N,Net-(J5-D--PadA7)*
X101905000Y-116070000D03*
G04 #@! TO.P,J5,A8,SBU1*
G04 #@! TO.N,unconnected-(J5-SBU1-PadA8)*
X101905000Y-115070000D03*
D32*
G04 #@! TO.P,J5,A9,VBUS*
G04 #@! TO.N,/Vbus*
X101905000Y-113870000D03*
G04 #@! TO.P,J5,A12,GND*
G04 #@! TO.N,GND*
X101905000Y-113070000D03*
G04 #@! TO.P,J5,B1,GND*
X101905000Y-113070000D03*
G04 #@! TO.P,J5,B4,VBUS*
G04 #@! TO.N,/Vbus*
X101905000Y-113870000D03*
D33*
G04 #@! TO.P,J5,B5,CC2*
G04 #@! TO.N,Net-(J5-CC2)*
X101905000Y-114570000D03*
G04 #@! TO.P,J5,B6,D+*
G04 #@! TO.N,Net-(J5-D+-PadA6)*
X101905000Y-115570000D03*
G04 #@! TO.P,J5,B7,D-*
G04 #@! TO.N,Net-(J5-D--PadA7)*
X101905000Y-117070000D03*
G04 #@! TO.P,J5,B8,SBU2*
G04 #@! TO.N,unconnected-(J5-SBU2-PadB8)*
X101905000Y-118070000D03*
D32*
G04 #@! TO.P,J5,B9,VBUS*
G04 #@! TO.N,/Vbus*
X101905000Y-118770000D03*
G04 #@! TO.P,J5,B12,GND*
G04 #@! TO.N,GND*
X101905000Y-119570000D03*
D34*
G04 #@! TO.P,J5,S1,SHIELD*
X102820000Y-120640000D03*
D35*
X107000000Y-120640000D03*
D34*
X102820000Y-112000000D03*
D35*
X107000000Y-112000000D03*
G04 #@! TD*
D18*
G04 #@! TO.P,D6,1,VDD*
G04 #@! TO.N,+5V*
X102550000Y-93350000D03*
G04 #@! TO.P,D6,2,DOUT*
G04 #@! TO.N,Net-(D6-DOUT)*
X102550000Y-96650000D03*
G04 #@! TO.P,D6,3,VSS*
G04 #@! TO.N,GND*
X107450000Y-96650000D03*
G04 #@! TO.P,D6,4,DIN*
G04 #@! TO.N,Net-(D6-DIN)*
X107450000Y-93350000D03*
G04 #@! TD*
D14*
G04 #@! TO.P,R67,1*
G04 #@! TO.N,/SW*
X74000000Y-118087500D03*
G04 #@! TO.P,R67,2*
G04 #@! TO.N,Net-(C35-Pad1)*
X74000000Y-119912500D03*
G04 #@! TD*
D36*
G04 #@! TO.N,/RS485_TX*
X95200000Y-100100000D03*
G04 #@! TO.N,/RS485_RX*
X91850000Y-101850000D03*
G04 #@! TO.N,/RS485_DE*
X93600000Y-104900000D03*
G04 #@! TO.N,Net-(D6-DIN)*
X107300000Y-91900000D03*
G04 #@! TO.N,GND*
X82900000Y-104400000D03*
X83600000Y-115700000D03*
X69700000Y-95900000D03*
X69600000Y-98800000D03*
X99903819Y-116337281D03*
X64700000Y-110300000D03*
X95000000Y-125600000D03*
X107500000Y-101600000D03*
X84400000Y-122600000D03*
G04 #@! TO.N,+5V*
X89450000Y-120150000D03*
X81600000Y-126600000D03*
X102600000Y-100600000D03*
X104200000Y-106700000D03*
X77000000Y-109500000D03*
X102600000Y-94700000D03*
G04 #@! TO.N,+3V3*
X85700000Y-126200000D03*
X83300000Y-99600000D03*
X64200000Y-99700000D03*
X70500000Y-99800000D03*
X79800000Y-104600000D03*
X71600000Y-103200000D03*
X83400000Y-92400000D03*
X73000000Y-92000000D03*
X74600000Y-105800000D03*
G04 #@! TO.N,/EN{slash}CHIP_PU*
X77700000Y-92400000D03*
G04 #@! TO.N,Net-(D1-A)*
X84000000Y-109400000D03*
G04 #@! TO.N,/Vbus*
X100500000Y-113870000D03*
X100500000Y-118700000D03*
G04 #@! TO.N,/GPIO3*
X96900000Y-91700000D03*
G04 #@! TO.N,/GPIO2*
X95400000Y-94300000D03*
G04 #@! TO.N,/GPIO8*
X78200000Y-99900000D03*
G04 #@! TO.N,/SD_CS*
X73550000Y-99550000D03*
G04 #@! TO.N,/SD_MOSI*
X68800000Y-95100000D03*
G04 #@! TO.N,/SD_MISO*
X69850000Y-97150000D03*
G04 #@! TO.N,Net-(J5-CC1)*
X105100000Y-118300000D03*
G04 #@! TO.N,Net-(J5-CC2)*
X105000000Y-113800000D03*
G04 #@! TO.N,/SD_SCK*
X73500000Y-95700000D03*
G04 #@! TD*
D37*
G04 #@! TO.N,+5V*
X97476000Y-116300000D02*
X97476000Y-119074000D01*
X97476000Y-116300000D02*
X96362500Y-116300000D01*
X96500000Y-112200000D02*
X96500000Y-113200000D01*
X96500000Y-113200000D02*
X97476000Y-114176000D01*
X97476000Y-114176000D02*
X97476000Y-116300000D01*
X97476000Y-119074000D02*
X97050000Y-119500000D01*
D38*
G04 #@! TO.N,GND*
X99903819Y-116337281D02*
X99866538Y-116300000D01*
X99866538Y-116300000D02*
X98637500Y-116300000D01*
G04 #@! TO.N,/USB_D-*
X92775000Y-116225000D02*
X92006802Y-116225000D01*
G04 #@! TO.N,/USB_D+*
X93790000Y-96900000D02*
X93690000Y-97000000D01*
G04 #@! TO.N,Net-(J5-D+-PadA6)*
X101905000Y-115570000D02*
X100470000Y-115570000D01*
G04 #@! TO.N,/USB_D-*
X96341615Y-117229115D02*
X93779115Y-117229115D01*
G04 #@! TO.N,/USB_D+*
X90925000Y-114506802D02*
X90925000Y-112193198D01*
X93250000Y-115300000D02*
X92775000Y-115775000D01*
X94815001Y-96900000D02*
X93790000Y-96900000D01*
X92775000Y-115775000D02*
X92193198Y-115775000D01*
G04 #@! TO.N,Net-(J5-D--PadA7)*
X100800000Y-117070000D02*
X100230000Y-117070000D01*
X100050000Y-117250000D02*
X98637500Y-117250000D01*
G04 #@! TO.N,/USB_D+*
X90925000Y-112193198D02*
X98125000Y-104993198D01*
X96362500Y-115350000D02*
X96312500Y-115300000D01*
X98125000Y-99006802D02*
X96543198Y-97425000D01*
X96312500Y-115300000D02*
X93250000Y-115300000D01*
G04 #@! TO.N,Net-(J5-D+-PadA6)*
X100250000Y-115350000D02*
X98637500Y-115350000D01*
G04 #@! TO.N,Net-(J5-D--PadA7)*
X100230000Y-117070000D02*
X100050000Y-117250000D01*
G04 #@! TO.N,/USB_D-*
X90475000Y-114693198D02*
X90475000Y-112006802D01*
G04 #@! TO.N,/USB_D+*
X92193198Y-115775000D02*
X90925000Y-114506802D01*
X98125000Y-104993198D02*
X98125000Y-99006802D01*
G04 #@! TO.N,Net-(J5-D+-PadA6)*
X100470000Y-115570000D02*
X100250000Y-115350000D01*
G04 #@! TO.N,/USB_D+*
X96543198Y-97425000D02*
X95340001Y-97425000D01*
X95340001Y-97425000D02*
X94815001Y-96900000D01*
G04 #@! TO.N,/USB_D-*
X96362500Y-117250000D02*
X96341615Y-117229115D01*
X93779115Y-117229115D02*
X92775000Y-116225000D01*
X90475000Y-112006802D02*
X97675000Y-104806802D01*
X92006802Y-116225000D02*
X90475000Y-114693198D01*
X97675000Y-104806802D02*
X97675000Y-99193198D01*
X97675000Y-99193198D02*
X96356802Y-97875000D01*
X96356802Y-97875000D02*
X95340001Y-97875000D01*
X95340001Y-97875000D02*
X94815001Y-98400000D01*
X94815001Y-98400000D02*
X93790000Y-98400000D01*
X93790000Y-98400000D02*
X93690000Y-98500000D01*
D39*
G04 #@! TO.N,/SD_CS*
X73550000Y-99550000D02*
X73250000Y-99550000D01*
X73250000Y-99550000D02*
X72600000Y-100200000D01*
G04 #@! TO.N,/GPIO3*
X96900000Y-91700000D02*
X96900000Y-94100000D01*
X98300000Y-94100000D02*
X96900000Y-94100000D01*
G04 #@! TO.N,/CANH*
X88500000Y-132600000D02*
X89100000Y-132000000D01*
X86000000Y-132600000D02*
X88500000Y-132600000D01*
X89100000Y-132000000D02*
X89100000Y-130200000D01*
G04 #@! TO.N,/CANL*
X84000000Y-131500000D02*
X81200000Y-131500000D01*
X81200000Y-131500000D02*
X80100000Y-130400000D01*
G04 #@! TO.N,/SD_MOSI*
X70000000Y-93900000D02*
X70200000Y-93900000D01*
D38*
X70200000Y-92200000D02*
X70200000Y-93900000D01*
G04 #@! TO.N,/SD_SCK*
X71800000Y-95800000D02*
X73400000Y-95800000D01*
X73400000Y-95800000D02*
X73500000Y-95700000D01*
D39*
G04 #@! TO.N,/SD_MISO*
X69850000Y-97150000D02*
X68350000Y-97150000D01*
X68350000Y-97150000D02*
X68100000Y-97400000D01*
D38*
G04 #@! TO.N,/RS485_RX*
X90000000Y-105300000D02*
X90000000Y-103400000D01*
X90000000Y-103400000D02*
X91550000Y-101850000D01*
X91550000Y-101850000D02*
X91850000Y-101850000D01*
G04 #@! TO.N,/RS485_TX*
X96200000Y-101700000D02*
X96200000Y-101100000D01*
X96200000Y-101100000D02*
X95200000Y-100100000D01*
D37*
G04 #@! TO.N,+5V*
X77000000Y-109500000D02*
X77000000Y-107000000D01*
X77000000Y-107000000D02*
X76500000Y-106500000D01*
D38*
G04 #@! TO.N,/RS485_DE*
X93600000Y-104900000D02*
X93600000Y-105100000D01*
X93600000Y-105100000D02*
X92400000Y-106300000D01*
D37*
G04 #@! TO.N,+3V3*
X64200000Y-99700000D02*
X63600000Y-99700000D01*
X63600000Y-99700000D02*
X62000000Y-98100000D01*
G04 #@! TO.N,/VIN*
X63550001Y-120635000D02*
X64350000Y-120635000D01*
X62525000Y-126000000D02*
X62525000Y-121660001D01*
X62600000Y-129000000D02*
X62600000Y-126075000D01*
X64350000Y-119365000D02*
X64350000Y-120635000D01*
X62600000Y-126075000D02*
X62525000Y-126000000D01*
X62525000Y-121660001D02*
X63550001Y-120635000D01*
D38*
G04 #@! TO.N,/RS485_TX*
X93890000Y-100100000D02*
X93790000Y-100000000D01*
X95200000Y-100100000D02*
X93890000Y-100100000D01*
X93790000Y-100000000D02*
X93690000Y-100000000D01*
D39*
G04 #@! TO.N,Net-(SW1-A)*
X76190000Y-101500000D02*
X76090000Y-101400000D01*
X70200000Y-101400000D02*
X64200000Y-101400000D01*
X76090000Y-101400000D02*
X70200000Y-101400000D01*
D38*
G04 #@! TO.N,/RS485_RX*
X93590000Y-101400000D02*
X93690000Y-101500000D01*
X92300000Y-101400000D02*
X93590000Y-101400000D01*
X91850000Y-101850000D02*
X92300000Y-101400000D01*
G04 #@! TO.N,/RS485_DE*
X93600000Y-104900000D02*
X93690000Y-104810000D01*
X93690000Y-104810000D02*
X93690000Y-103000000D01*
D37*
G04 #@! TO.N,Net-(D3-A)*
X65400000Y-131400000D02*
X65000000Y-131800000D01*
X65000000Y-131800000D02*
X65000000Y-134550000D01*
X65400000Y-129000000D02*
X65400000Y-131400000D01*
G04 #@! TO.N,Net-(D6-DOUT)*
X102550000Y-96650000D02*
X104750000Y-96650000D01*
X104750000Y-96650000D02*
X107450000Y-99350000D01*
D39*
G04 #@! TO.N,Net-(D6-DIN)*
X107300000Y-91900000D02*
X107300000Y-93200000D01*
X107300000Y-93200000D02*
X107450000Y-93350000D01*
D37*
G04 #@! TO.N,Net-(D7-DOUT)*
X102550000Y-102650000D02*
X104750000Y-102650000D01*
X104750000Y-102650000D02*
X107450000Y-105350000D01*
D39*
G04 #@! TO.N,GND*
X101905000Y-112915000D02*
X102820000Y-112000000D01*
D37*
X107500000Y-102600000D02*
X107450000Y-102650000D01*
X107500000Y-101600000D02*
X107500000Y-102600000D01*
D39*
X101905000Y-113070000D02*
X101905000Y-112915000D01*
D37*
G04 #@! TO.N,+5V*
X77000000Y-109500000D02*
X77000000Y-111900000D01*
X77100000Y-114950000D02*
X77050000Y-115000000D01*
X102550000Y-99350000D02*
X100100000Y-99350000D01*
X104100000Y-106100000D02*
X104200000Y-106200000D01*
X77050000Y-115000000D02*
X76000000Y-116050000D01*
X97050000Y-119500000D02*
X96400000Y-120150000D01*
X102600000Y-93400000D02*
X102550000Y-93350000D01*
X80200000Y-109600000D02*
X79850000Y-109250000D01*
X100100000Y-106200000D02*
X100100000Y-105400000D01*
X100100000Y-105400000D02*
X100150000Y-105350000D01*
X76037500Y-118087500D02*
X76000000Y-118050000D01*
X100100000Y-108200000D02*
X100100000Y-106200000D01*
X102600000Y-100600000D02*
X102600000Y-99400000D01*
X78100000Y-118087500D02*
X80387500Y-118087500D01*
X96400000Y-120150000D02*
X89450000Y-120150000D01*
X79850000Y-108137500D02*
X78500000Y-109487500D01*
X73800000Y-112000000D02*
X77100000Y-112000000D01*
X77100000Y-109600000D02*
X77000000Y-109500000D01*
X81600000Y-119300000D02*
X81600000Y-126600000D01*
X100150000Y-105350000D02*
X102550000Y-105350000D01*
X77000000Y-111900000D02*
X77100000Y-112000000D01*
X83500000Y-126500000D02*
X81700000Y-126500000D01*
X100100000Y-99350000D02*
X100100000Y-101800000D01*
X84165000Y-125835000D02*
X83500000Y-126500000D01*
X103350000Y-105350000D02*
X104100000Y-106100000D01*
X96500000Y-112200000D02*
X96500000Y-111800000D01*
X81400000Y-109600000D02*
X80200000Y-109600000D01*
X100100000Y-101800000D02*
X100100000Y-106200000D01*
X81750000Y-109250000D02*
X81400000Y-109600000D01*
X102600000Y-94700000D02*
X102600000Y-93400000D01*
X78500000Y-109600000D02*
X77100000Y-109600000D01*
X102550000Y-105350000D02*
X103350000Y-105350000D01*
X78500000Y-109487500D02*
X78500000Y-109600000D01*
X76000000Y-116050000D02*
X76000000Y-118050000D01*
X102600000Y-99400000D02*
X102550000Y-99350000D01*
X100100000Y-95800000D02*
X100100000Y-101800000D01*
X84165000Y-124525000D02*
X84165000Y-125835000D01*
X80387500Y-118087500D02*
X81600000Y-119300000D01*
X104200000Y-106200000D02*
X104200000Y-106700000D01*
X77100000Y-112000000D02*
X77100000Y-114950000D01*
X96500000Y-111800000D02*
X100100000Y-108200000D01*
X78100000Y-118087500D02*
X76037500Y-118087500D01*
X81700000Y-126500000D02*
X81600000Y-126600000D01*
X102550000Y-93350000D02*
X100100000Y-95800000D01*
X81750000Y-108137500D02*
X81750000Y-109250000D01*
X79850000Y-109250000D02*
X79850000Y-108137500D01*
G04 #@! TO.N,+3V3*
X82895000Y-127905000D02*
X82895000Y-129475000D01*
X64300000Y-99800000D02*
X64200000Y-99700000D01*
X83400000Y-92400000D02*
X83400000Y-99500000D01*
X71600000Y-103200000D02*
X72000000Y-103200000D01*
X83200000Y-127600000D02*
X82895000Y-127905000D01*
X75100000Y-90900000D02*
X74000000Y-92000000D01*
X82800000Y-90900000D02*
X83400000Y-91500000D01*
X72000000Y-103200000D02*
X74600000Y-105800000D01*
X79850000Y-105862500D02*
X79850000Y-104650000D01*
X74000000Y-92000000D02*
X73000000Y-92000000D01*
X76290000Y-90900000D02*
X82800000Y-90900000D01*
X76190000Y-91000000D02*
X76290000Y-90900000D01*
X84300000Y-127600000D02*
X83200000Y-127600000D01*
X79850000Y-104650000D02*
X79800000Y-104600000D01*
X83400000Y-99500000D02*
X83300000Y-99600000D01*
X70500000Y-99800000D02*
X64300000Y-99800000D01*
X76090000Y-90900000D02*
X75100000Y-90900000D01*
X76190000Y-91000000D02*
X76090000Y-90900000D01*
X85700000Y-126200000D02*
X84300000Y-127600000D01*
X83400000Y-91500000D02*
X83400000Y-92400000D01*
D39*
G04 #@! TO.N,/EN{slash}CHIP_PU*
X76290000Y-92400000D02*
X76190000Y-92500000D01*
X77700000Y-92400000D02*
X76290000Y-92400000D01*
D37*
G04 #@! TO.N,Net-(D1-A)*
X84000000Y-109400000D02*
X84000000Y-111200000D01*
G04 #@! TO.N,/Vbus*
X99770000Y-113870000D02*
X99300000Y-113400000D01*
X100500000Y-113870000D02*
X99770000Y-113870000D01*
X101905000Y-113870000D02*
X100500000Y-113870000D01*
X99300000Y-113400000D02*
X99300000Y-112200000D01*
X101905000Y-118770000D02*
X100570000Y-118770000D01*
X100570000Y-118770000D02*
X100500000Y-118700000D01*
D39*
G04 #@! TO.N,/GPIO3*
X96900000Y-94100000D02*
X96900000Y-94700000D01*
X96900000Y-94700000D02*
X96200000Y-95400000D01*
X93790000Y-95400000D02*
X93690000Y-95500000D01*
X96200000Y-95400000D02*
X93790000Y-95400000D01*
G04 #@! TO.N,/CANH*
X86000000Y-132600000D02*
X86000000Y-134550000D01*
X85435000Y-132035000D02*
X86000000Y-132600000D01*
X85435000Y-129475000D02*
X85435000Y-132035000D01*
G04 #@! TO.N,/CANL*
X84000000Y-131500000D02*
X84165000Y-131335000D01*
X84165000Y-131335000D02*
X84165000Y-129475000D01*
X84000000Y-134550000D02*
X84000000Y-131500000D01*
D38*
G04 #@! TO.N,/GPIO2*
X93790000Y-93900000D02*
X95000000Y-93900000D01*
X93690000Y-94000000D02*
X93790000Y-93900000D01*
X95000000Y-93900000D02*
X95400000Y-94300000D01*
D37*
G04 #@! TO.N,/GPIO8*
X78200000Y-99900000D02*
X76290000Y-99900000D01*
X76290000Y-99900000D02*
X76190000Y-100000000D01*
D39*
G04 #@! TO.N,/CAN_TX*
X91601000Y-94189000D02*
X91601000Y-99699000D01*
X93690000Y-92500000D02*
X93590000Y-92400000D01*
X86705000Y-104595000D02*
X86705000Y-124525000D01*
X93590000Y-92400000D02*
X93390000Y-92400000D01*
X91601000Y-99699000D02*
X86705000Y-104595000D01*
X93390000Y-92400000D02*
X91601000Y-94189000D01*
G04 #@! TO.N,/CAN_RX*
X90400000Y-92600000D02*
X92100000Y-90900000D01*
X85900000Y-103600000D02*
X90400000Y-99100000D01*
X85900000Y-118100000D02*
X85900000Y-103600000D01*
X93590000Y-90900000D02*
X93690000Y-91000000D01*
X82900000Y-121100000D02*
X85900000Y-118100000D01*
X82900000Y-124520000D02*
X82900000Y-121100000D01*
X92100000Y-90900000D02*
X93590000Y-90900000D01*
X82895000Y-124525000D02*
X82900000Y-124520000D01*
X90400000Y-99100000D02*
X90400000Y-92600000D01*
G04 #@! TO.N,/SD_CS*
X76090000Y-98400000D02*
X76190000Y-98500000D01*
X73550000Y-99550000D02*
X74700000Y-98400000D01*
X74700000Y-98400000D02*
X76090000Y-98400000D01*
G04 #@! TO.N,/SD_MOSI*
X76090000Y-93900000D02*
X76190000Y-94000000D01*
X68800000Y-95100000D02*
X70000000Y-93900000D01*
X70200000Y-93900000D02*
X76090000Y-93900000D01*
G04 #@! TO.N,/SD_MISO*
X76090000Y-96900000D02*
X76190000Y-97000000D01*
X70100000Y-96900000D02*
X76090000Y-96900000D01*
X69850000Y-97150000D02*
X70100000Y-96900000D01*
D37*
G04 #@! TO.N,Net-(C35-Pad1)*
X76000000Y-119950000D02*
X74037500Y-119950000D01*
X74000000Y-122050000D02*
X74000000Y-119912500D01*
X74037500Y-119950000D02*
X74000000Y-119912500D01*
G04 #@! TO.N,/FB*
X76000000Y-122087500D02*
X76912500Y-122087500D01*
X70900000Y-123900000D02*
X71800000Y-123900000D01*
X71800000Y-123900000D02*
X71850000Y-123950000D01*
X77800000Y-120212500D02*
X78100000Y-119912500D01*
X77800000Y-121200000D02*
X77800000Y-120212500D01*
X69650000Y-121905000D02*
X69650000Y-122650000D01*
X69650000Y-122650000D02*
X70900000Y-123900000D01*
X75862500Y-122087500D02*
X74000000Y-123950000D01*
X76000000Y-122087500D02*
X75862500Y-122087500D01*
X71850000Y-123950000D02*
X74000000Y-123950000D01*
X76912500Y-122087500D02*
X77800000Y-121200000D01*
G04 #@! TO.N,/SW*
X68200000Y-112000000D02*
X68200000Y-116645000D01*
X68200000Y-116645000D02*
X69650000Y-118095000D01*
X72000000Y-118050000D02*
X73962500Y-118050000D01*
X69695000Y-118050000D02*
X69650000Y-118095000D01*
X72000000Y-118050000D02*
X69695000Y-118050000D01*
X73962500Y-118050000D02*
X74000000Y-118087500D01*
G04 #@! TO.N,/BST*
X69650000Y-119365000D02*
X71415000Y-119365000D01*
X71415000Y-119365000D02*
X72000000Y-119950000D01*
D38*
G04 #@! TO.N,Net-(J5-D+-PadA6)*
X103330000Y-116570000D02*
X103500000Y-116400000D01*
X103500000Y-116400000D02*
X103500000Y-115800000D01*
X103270000Y-115570000D02*
X101905000Y-115570000D01*
X103500000Y-115800000D02*
X103270000Y-115570000D01*
X101905000Y-116570000D02*
X103330000Y-116570000D01*
G04 #@! TO.N,Net-(J5-D--PadA7)*
X101905000Y-116070000D02*
X100930000Y-116070000D01*
X100800000Y-116200000D02*
X100800000Y-117070000D01*
X101905000Y-117070000D02*
X100800000Y-117070000D01*
X100930000Y-116070000D02*
X100800000Y-116200000D01*
G04 #@! TO.N,Net-(J5-CC1)*
X103070000Y-117570000D02*
X101905000Y-117570000D01*
X103800000Y-118300000D02*
X103070000Y-117570000D01*
X105100000Y-118300000D02*
X103800000Y-118300000D01*
G04 #@! TO.N,Net-(J5-CC2)*
X105000000Y-113800000D02*
X104140000Y-113800000D01*
X104140000Y-113800000D02*
X103469000Y-114471000D01*
X103469000Y-114471000D02*
X102004000Y-114471000D01*
X102004000Y-114471000D02*
X101905000Y-114570000D01*
D37*
G04 #@! TO.N,/RON*
X64350000Y-122750000D02*
X64350000Y-121905000D01*
X66500000Y-123500000D02*
X65100000Y-123500000D01*
X65100000Y-123500000D02*
X64350000Y-122750000D01*
X67700000Y-124700000D02*
X66500000Y-123500000D01*
X67700000Y-126087500D02*
X67700000Y-124700000D01*
X67687500Y-126100000D02*
X67700000Y-126087500D01*
D39*
G04 #@! TO.N,/SD_SCK*
X76190000Y-95500000D02*
X76090000Y-95400000D01*
X73800000Y-95400000D02*
X73500000Y-95700000D01*
X76090000Y-95400000D02*
X73800000Y-95400000D01*
G04 #@! TD*
G04 #@! TA.AperFunction,Conductor*
G04 #@! TO.N,GND*
G36*
X74205809Y-90520185D02*
G01*
X74251564Y-90572989D01*
X74261508Y-90642147D01*
X74232483Y-90705703D01*
X74226451Y-90712181D01*
X73725451Y-91213181D01*
X73698523Y-91227884D01*
X73672705Y-91244477D01*
X73666504Y-91245368D01*
X73664128Y-91246666D01*
X73637770Y-91249500D01*
X73535270Y-91249500D01*
X73468231Y-91229815D01*
X73466378Y-91228601D01*
X73426552Y-91201989D01*
X73426547Y-91201987D01*
X73262667Y-91134106D01*
X73262658Y-91134103D01*
X73088694Y-91099500D01*
X73088691Y-91099500D01*
X72911309Y-91099500D01*
X72911306Y-91099500D01*
X72737341Y-91134103D01*
X72737332Y-91134106D01*
X72573459Y-91201983D01*
X72573446Y-91201990D01*
X72425965Y-91300535D01*
X72425961Y-91300538D01*
X72300538Y-91425961D01*
X72300535Y-91425965D01*
X72201990Y-91573446D01*
X72201983Y-91573459D01*
X72134106Y-91737332D01*
X72134103Y-91737341D01*
X72099500Y-91911304D01*
X72099500Y-92088695D01*
X72134103Y-92262658D01*
X72134105Y-92262664D01*
X72134106Y-92262666D01*
X72146203Y-92291871D01*
X72201983Y-92426540D01*
X72201990Y-92426553D01*
X72300535Y-92574034D01*
X72300538Y-92574038D01*
X72425961Y-92699461D01*
X72425965Y-92699464D01*
X72573446Y-92798009D01*
X72573459Y-92798016D01*
X72664817Y-92835857D01*
X72737334Y-92865894D01*
X72737336Y-92865894D01*
X72737341Y-92865896D01*
X72911304Y-92900499D01*
X72911307Y-92900500D01*
X72911309Y-92900500D01*
X73088693Y-92900500D01*
X73088694Y-92900499D01*
X73146682Y-92888964D01*
X73262658Y-92865896D01*
X73262661Y-92865894D01*
X73262666Y-92865894D01*
X73426547Y-92798013D01*
X73426550Y-92798010D01*
X73426552Y-92798010D01*
X73466378Y-92771399D01*
X73533055Y-92750520D01*
X73535270Y-92750500D01*
X74073920Y-92750500D01*
X74171462Y-92731096D01*
X74218913Y-92721658D01*
X74355495Y-92665084D01*
X74404729Y-92632186D01*
X74413180Y-92626540D01*
X74444320Y-92605733D01*
X74478416Y-92582952D01*
X74727820Y-92333547D01*
X74789142Y-92300063D01*
X74858833Y-92305047D01*
X74914767Y-92346918D01*
X74939184Y-92412383D01*
X74939500Y-92421229D01*
X74939500Y-92997870D01*
X74939501Y-92997876D01*
X74945909Y-93057485D01*
X74955115Y-93082168D01*
X74960099Y-93151860D01*
X74926613Y-93213182D01*
X74865289Y-93246667D01*
X74838933Y-93249500D01*
X70924500Y-93249500D01*
X70915814Y-93246949D01*
X70906853Y-93248238D01*
X70882812Y-93237259D01*
X70857461Y-93229815D01*
X70851533Y-93222974D01*
X70843297Y-93219213D01*
X70829007Y-93196978D01*
X70811706Y-93177011D01*
X70809418Y-93166496D01*
X70805523Y-93160435D01*
X70800500Y-93125500D01*
X70800500Y-92924361D01*
X70820185Y-92857322D01*
X70836814Y-92836684D01*
X70899464Y-92774035D01*
X70998013Y-92626547D01*
X71065894Y-92462666D01*
X71066810Y-92458064D01*
X71096001Y-92311309D01*
X71100500Y-92288691D01*
X71100500Y-92111309D01*
X71100500Y-92111306D01*
X71100499Y-92111304D01*
X71065896Y-91937341D01*
X71065893Y-91937332D01*
X71064355Y-91933620D01*
X71019764Y-91825965D01*
X70998016Y-91773459D01*
X70998009Y-91773446D01*
X70899464Y-91625965D01*
X70899461Y-91625961D01*
X70774038Y-91500538D01*
X70774034Y-91500535D01*
X70626553Y-91401990D01*
X70626540Y-91401983D01*
X70462667Y-91334106D01*
X70462658Y-91334103D01*
X70288694Y-91299500D01*
X70288691Y-91299500D01*
X70111309Y-91299500D01*
X70111306Y-91299500D01*
X69937341Y-91334103D01*
X69937332Y-91334106D01*
X69773459Y-91401983D01*
X69773446Y-91401990D01*
X69625965Y-91500535D01*
X69625961Y-91500538D01*
X69500538Y-91625961D01*
X69500535Y-91625965D01*
X69401990Y-91773446D01*
X69401983Y-91773459D01*
X69334106Y-91937332D01*
X69334103Y-91937341D01*
X69299500Y-92111304D01*
X69299500Y-92288695D01*
X69334103Y-92462658D01*
X69334106Y-92462667D01*
X69401983Y-92626540D01*
X69401990Y-92626553D01*
X69500534Y-92774033D01*
X69500535Y-92774034D01*
X69500536Y-92774035D01*
X69563182Y-92836681D01*
X69596666Y-92898002D01*
X69599500Y-92924361D01*
X69599500Y-93329191D01*
X69579815Y-93396230D01*
X69563181Y-93416872D01*
X68816873Y-94163181D01*
X68755550Y-94196666D01*
X68729192Y-94199500D01*
X68711306Y-94199500D01*
X68537341Y-94234103D01*
X68537332Y-94234106D01*
X68373459Y-94301983D01*
X68373446Y-94301990D01*
X68225965Y-94400535D01*
X68225961Y-94400538D01*
X68100538Y-94525961D01*
X68100535Y-94525965D01*
X68001990Y-94673446D01*
X68001983Y-94673459D01*
X67934106Y-94837332D01*
X67934103Y-94837341D01*
X67899500Y-95011304D01*
X67899500Y-95188695D01*
X67934103Y-95362658D01*
X67934106Y-95362667D01*
X68001983Y-95526540D01*
X68001990Y-95526553D01*
X68100535Y-95674034D01*
X68100538Y-95674038D01*
X68225961Y-95799461D01*
X68225965Y-95799464D01*
X68373446Y-95898009D01*
X68373459Y-95898016D01*
X68496363Y-95948923D01*
X68537334Y-95965894D01*
X68537336Y-95965894D01*
X68537341Y-95965896D01*
X68711304Y-96000499D01*
X68711307Y-96000500D01*
X68711309Y-96000500D01*
X68888693Y-96000500D01*
X68888694Y-96000499D01*
X68967057Y-95984912D01*
X69062658Y-95965896D01*
X69062661Y-95965894D01*
X69062666Y-95965894D01*
X69226547Y-95898013D01*
X69374035Y-95799464D01*
X69499464Y-95674035D01*
X69598013Y-95526547D01*
X69598236Y-95526010D01*
X69620442Y-95472398D01*
X69665894Y-95362666D01*
X69700500Y-95188691D01*
X69700500Y-95170808D01*
X69720185Y-95103769D01*
X69736819Y-95083127D01*
X70233127Y-94586819D01*
X70294450Y-94553334D01*
X70320808Y-94550500D01*
X73527648Y-94550500D01*
X73538467Y-94553676D01*
X73549679Y-94552473D01*
X73571391Y-94563344D01*
X73594687Y-94570185D01*
X73602070Y-94578706D01*
X73612154Y-94583755D01*
X73624542Y-94604640D01*
X73640442Y-94622989D01*
X73642046Y-94634148D01*
X73647800Y-94643848D01*
X73646930Y-94668114D01*
X73650386Y-94692147D01*
X73645701Y-94702403D01*
X73645298Y-94713673D01*
X73631447Y-94733616D01*
X73621361Y-94755703D01*
X73610841Y-94763288D01*
X73605443Y-94771061D01*
X73575093Y-94789063D01*
X73572669Y-94790067D01*
X73525233Y-94799500D01*
X73411306Y-94799500D01*
X73237341Y-94834103D01*
X73237332Y-94834106D01*
X73073459Y-94901983D01*
X73073446Y-94901990D01*
X72925965Y-95000535D01*
X72925961Y-95000538D01*
X72800537Y-95125962D01*
X72788225Y-95144390D01*
X72782133Y-95149481D01*
X72778835Y-95156703D01*
X72755709Y-95171564D01*
X72734613Y-95189196D01*
X72725236Y-95191148D01*
X72720057Y-95194477D01*
X72685122Y-95199500D01*
X72524361Y-95199500D01*
X72457322Y-95179815D01*
X72436684Y-95163185D01*
X72374035Y-95100536D01*
X72374034Y-95100535D01*
X72374033Y-95100534D01*
X72226553Y-95001990D01*
X72226540Y-95001983D01*
X72062667Y-94934106D01*
X72062658Y-94934103D01*
X71888694Y-94899500D01*
X71888691Y-94899500D01*
X71711309Y-94899500D01*
X71711306Y-94899500D01*
X71537341Y-94934103D01*
X71537332Y-94934106D01*
X71373459Y-95001983D01*
X71373446Y-95001990D01*
X71225965Y-95100535D01*
X71225961Y-95100538D01*
X71100541Y-95225959D01*
X71100535Y-95225965D01*
X71001990Y-95373446D01*
X71001983Y-95373459D01*
X70934106Y-95537332D01*
X70934103Y-95537341D01*
X70899500Y-95711304D01*
X70899500Y-95888695D01*
X70934103Y-96062658D01*
X70934106Y-96062667D01*
X70940478Y-96078050D01*
X70947945Y-96147520D01*
X70916669Y-96209998D01*
X70856579Y-96245649D01*
X70825916Y-96249500D01*
X70035930Y-96249500D01*
X70011499Y-96254359D01*
X69963123Y-96254359D01*
X69938692Y-96249500D01*
X69938691Y-96249500D01*
X69761309Y-96249500D01*
X69761306Y-96249500D01*
X69587341Y-96284103D01*
X69587332Y-96284106D01*
X69423459Y-96351983D01*
X69423451Y-96351988D01*
X69275965Y-96450535D01*
X69275961Y-96450538D01*
X69263319Y-96463181D01*
X69201996Y-96496666D01*
X69175638Y-96499500D01*
X68285930Y-96499500D01*
X68261499Y-96504359D01*
X68213123Y-96504359D01*
X68188692Y-96499500D01*
X68188691Y-96499500D01*
X68011309Y-96499500D01*
X68011306Y-96499500D01*
X67837341Y-96534103D01*
X67837332Y-96534106D01*
X67673459Y-96601983D01*
X67673446Y-96601990D01*
X67525965Y-96700535D01*
X67525961Y-96700538D01*
X67400538Y-96825961D01*
X67400535Y-96825965D01*
X67301990Y-96973446D01*
X67301983Y-96973459D01*
X67234106Y-97137332D01*
X67234103Y-97137341D01*
X67199500Y-97311304D01*
X67199500Y-97488695D01*
X67234103Y-97662658D01*
X67234106Y-97662667D01*
X67301983Y-97826540D01*
X67301990Y-97826553D01*
X67400535Y-97974034D01*
X67400538Y-97974038D01*
X67525961Y-98099461D01*
X67525965Y-98099464D01*
X67673446Y-98198009D01*
X67673459Y-98198016D01*
X67796363Y-98248923D01*
X67837334Y-98265894D01*
X67837336Y-98265894D01*
X67837341Y-98265896D01*
X68011304Y-98300499D01*
X68011307Y-98300500D01*
X68011309Y-98300500D01*
X68188693Y-98300500D01*
X68188694Y-98300499D01*
X68246682Y-98288964D01*
X68362658Y-98265896D01*
X68362661Y-98265894D01*
X68362666Y-98265894D01*
X68526547Y-98198013D01*
X68674035Y-98099464D01*
X68799464Y-97974035D01*
X68878594Y-97855608D01*
X68884685Y-97850518D01*
X68887983Y-97843297D01*
X68911110Y-97828433D01*
X68932206Y-97810804D01*
X68941580Y-97808852D01*
X68946761Y-97805523D01*
X68981696Y-97800500D01*
X69175638Y-97800500D01*
X69242677Y-97820185D01*
X69263319Y-97836819D01*
X69275961Y-97849461D01*
X69275965Y-97849464D01*
X69423446Y-97948009D01*
X69423459Y-97948016D01*
X69546363Y-97998923D01*
X69587334Y-98015894D01*
X69587336Y-98015894D01*
X69587341Y-98015896D01*
X69761304Y-98050499D01*
X69761307Y-98050500D01*
X69761309Y-98050500D01*
X69938693Y-98050500D01*
X69938694Y-98050499D01*
X69996682Y-98038964D01*
X70112658Y-98015896D01*
X70112661Y-98015894D01*
X70112666Y-98015894D01*
X70276547Y-97948013D01*
X70424035Y-97849464D01*
X70549464Y-97724035D01*
X70628594Y-97605608D01*
X70682206Y-97560804D01*
X70731696Y-97550500D01*
X74427647Y-97550500D01*
X74438458Y-97553674D01*
X74449663Y-97552470D01*
X74471383Y-97563342D01*
X74494686Y-97570185D01*
X74502064Y-97578700D01*
X74512142Y-97583745D01*
X74524536Y-97604634D01*
X74540441Y-97622989D01*
X74542044Y-97634141D01*
X74547795Y-97643833D01*
X74546928Y-97668106D01*
X74550385Y-97692147D01*
X74545704Y-97702396D01*
X74545302Y-97713659D01*
X74531449Y-97733611D01*
X74521360Y-97755703D01*
X74510846Y-97763284D01*
X74505454Y-97771051D01*
X74475100Y-97789061D01*
X74463862Y-97793716D01*
X74391877Y-97823532D01*
X74391863Y-97823540D01*
X74285332Y-97894721D01*
X74285325Y-97894727D01*
X73566873Y-98613181D01*
X73505550Y-98646666D01*
X73479192Y-98649500D01*
X73461306Y-98649500D01*
X73287341Y-98684103D01*
X73287332Y-98684106D01*
X73123459Y-98751983D01*
X73123446Y-98751990D01*
X72975965Y-98850535D01*
X72975961Y-98850538D01*
X72850538Y-98975961D01*
X72850535Y-98975965D01*
X72749483Y-99127199D01*
X72734063Y-99145988D01*
X72616873Y-99263180D01*
X72555550Y-99296666D01*
X72529191Y-99299500D01*
X72511306Y-99299500D01*
X72337341Y-99334103D01*
X72337332Y-99334106D01*
X72173459Y-99401983D01*
X72173446Y-99401990D01*
X72025965Y-99500535D01*
X72025961Y-99500538D01*
X71900538Y-99625961D01*
X71900535Y-99625965D01*
X71801990Y-99773446D01*
X71801983Y-99773459D01*
X71734106Y-99937332D01*
X71734103Y-99937341D01*
X71699500Y-100111304D01*
X71699500Y-100288695D01*
X71734103Y-100462658D01*
X71734106Y-100462667D01*
X71781898Y-100578048D01*
X71789367Y-100647517D01*
X71758091Y-100709996D01*
X71698002Y-100745648D01*
X71667337Y-100749500D01*
X71225849Y-100749500D01*
X71222191Y-100748426D01*
X71218476Y-100749281D01*
X71188923Y-100738657D01*
X71158810Y-100729815D01*
X71155272Y-100726560D01*
X71152726Y-100725645D01*
X71127474Y-100700987D01*
X71082976Y-100642997D01*
X71057781Y-100577828D01*
X71071819Y-100509383D01*
X71093667Y-100479831D01*
X71199464Y-100374035D01*
X71298013Y-100226547D01*
X71298323Y-100225800D01*
X71337527Y-100131150D01*
X71365894Y-100062666D01*
X71373078Y-100026553D01*
X71400499Y-99888695D01*
X71400500Y-99888693D01*
X71400500Y-99711306D01*
X71400499Y-99711304D01*
X71365896Y-99537341D01*
X71365893Y-99537332D01*
X71298016Y-99373459D01*
X71298009Y-99373446D01*
X71199464Y-99225965D01*
X71199461Y-99225961D01*
X71074038Y-99100538D01*
X71074034Y-99100535D01*
X70926553Y-99001990D01*
X70926540Y-99001983D01*
X70762667Y-98934106D01*
X70762658Y-98934103D01*
X70588694Y-98899500D01*
X70588691Y-98899500D01*
X70411309Y-98899500D01*
X70411306Y-98899500D01*
X70237341Y-98934103D01*
X70237332Y-98934106D01*
X70073452Y-99001987D01*
X70073447Y-99001989D01*
X70033622Y-99028601D01*
X69966945Y-99049480D01*
X69964730Y-99049500D01*
X64874362Y-99049500D01*
X64807323Y-99029815D01*
X64786681Y-99013181D01*
X64774038Y-99000538D01*
X64774034Y-99000535D01*
X64626553Y-98901990D01*
X64626540Y-98901983D01*
X64462667Y-98834106D01*
X64462658Y-98834103D01*
X64288694Y-98799500D01*
X64288691Y-98799500D01*
X64111309Y-98799500D01*
X64111306Y-98799500D01*
X63937336Y-98834104D01*
X63937324Y-98834108D01*
X63913566Y-98843949D01*
X63844097Y-98851416D01*
X63781619Y-98820140D01*
X63778436Y-98817068D01*
X62909175Y-97947807D01*
X62875690Y-97886484D01*
X62875262Y-97884432D01*
X62865894Y-97837334D01*
X62829868Y-97750358D01*
X62798016Y-97673459D01*
X62798009Y-97673446D01*
X62699464Y-97525965D01*
X62699461Y-97525961D01*
X62574038Y-97400538D01*
X62574034Y-97400535D01*
X62426553Y-97301990D01*
X62426540Y-97301983D01*
X62262667Y-97234106D01*
X62262658Y-97234103D01*
X62088694Y-97199500D01*
X62088691Y-97199500D01*
X61911309Y-97199500D01*
X61911306Y-97199500D01*
X61737341Y-97234103D01*
X61737332Y-97234106D01*
X61573459Y-97301983D01*
X61573446Y-97301990D01*
X61425965Y-97400535D01*
X61425961Y-97400538D01*
X61300538Y-97525961D01*
X61300535Y-97525965D01*
X61201990Y-97673446D01*
X61201983Y-97673459D01*
X61134106Y-97837332D01*
X61134103Y-97837341D01*
X61099500Y-98011304D01*
X61099500Y-98188695D01*
X61134103Y-98362658D01*
X61134106Y-98362667D01*
X61201983Y-98526540D01*
X61201990Y-98526553D01*
X61300535Y-98674034D01*
X61300538Y-98674038D01*
X61425961Y-98799461D01*
X61425965Y-98799464D01*
X61573446Y-98898009D01*
X61573459Y-98898016D01*
X61640146Y-98925638D01*
X61737334Y-98965894D01*
X61784318Y-98975239D01*
X61846227Y-99007622D01*
X61847807Y-99009175D01*
X63121584Y-100282952D01*
X63125100Y-100285301D01*
X63174582Y-100318364D01*
X63174587Y-100318366D01*
X63179513Y-100321658D01*
X63244505Y-100365084D01*
X63287640Y-100382951D01*
X63317845Y-100395462D01*
X63323363Y-100398432D01*
X63343936Y-100418756D01*
X63366456Y-100436903D01*
X63368489Y-100443011D01*
X63373068Y-100447535D01*
X63379387Y-100475755D01*
X63388521Y-100503197D01*
X63386929Y-100509433D01*
X63388336Y-100515716D01*
X63378393Y-100542876D01*
X63371242Y-100570897D01*
X63364478Y-100580890D01*
X63364318Y-100581328D01*
X63364038Y-100581539D01*
X63362976Y-100583110D01*
X63275464Y-100697157D01*
X63214956Y-100843237D01*
X63214955Y-100843239D01*
X63199500Y-100960638D01*
X63199500Y-101839363D01*
X63214953Y-101956753D01*
X63214956Y-101956762D01*
X63275464Y-102102841D01*
X63371718Y-102228282D01*
X63497159Y-102324536D01*
X63643238Y-102385044D01*
X63760639Y-102400500D01*
X64639360Y-102400499D01*
X64639363Y-102400499D01*
X64756753Y-102385046D01*
X64756757Y-102385044D01*
X64756762Y-102385044D01*
X64902841Y-102324536D01*
X65028282Y-102228282D01*
X65124536Y-102102841D01*
X65124536Y-102102839D01*
X65127473Y-102099013D01*
X65183901Y-102057811D01*
X65225849Y-102050500D01*
X69174151Y-102050500D01*
X69241190Y-102070185D01*
X69272527Y-102099013D01*
X69275463Y-102102839D01*
X69275464Y-102102841D01*
X69371718Y-102228282D01*
X69497159Y-102324536D01*
X69643238Y-102385044D01*
X69760639Y-102400500D01*
X70639360Y-102400499D01*
X70639363Y-102400499D01*
X70756753Y-102385046D01*
X70756756Y-102385044D01*
X70756762Y-102385044D01*
X70837542Y-102351583D01*
X70907008Y-102344115D01*
X70969487Y-102375389D01*
X71005140Y-102435478D01*
X71002647Y-102505303D01*
X70972674Y-102553826D01*
X70900535Y-102625965D01*
X70801990Y-102773446D01*
X70801983Y-102773459D01*
X70734106Y-102937332D01*
X70734103Y-102937341D01*
X70699500Y-103111304D01*
X70699500Y-103288695D01*
X70734103Y-103462658D01*
X70734106Y-103462667D01*
X70801983Y-103626540D01*
X70801990Y-103626553D01*
X70900535Y-103774034D01*
X70900538Y-103774038D01*
X71025961Y-103899461D01*
X71025965Y-103899464D01*
X71173446Y-103998009D01*
X71173459Y-103998016D01*
X71259132Y-104033502D01*
X71337334Y-104065894D01*
X71337336Y-104065894D01*
X71337341Y-104065896D01*
X71511304Y-104100499D01*
X71511307Y-104100500D01*
X71511309Y-104100500D01*
X71688691Y-104100500D01*
X71749167Y-104088470D01*
X71818755Y-104094696D01*
X71861038Y-104122406D01*
X73690823Y-105952190D01*
X73724308Y-106013513D01*
X73724759Y-106015679D01*
X73734104Y-106062660D01*
X73734107Y-106062670D01*
X73801983Y-106226540D01*
X73801990Y-106226553D01*
X73900535Y-106374034D01*
X73900538Y-106374038D01*
X74025961Y-106499461D01*
X74025965Y-106499464D01*
X74173446Y-106598009D01*
X74173459Y-106598016D01*
X74263709Y-106635398D01*
X74337334Y-106665894D01*
X74337336Y-106665894D01*
X74337341Y-106665896D01*
X74511304Y-106700499D01*
X74511307Y-106700500D01*
X74511309Y-106700500D01*
X74688693Y-106700500D01*
X74688694Y-106700499D01*
X74746682Y-106688964D01*
X74862658Y-106665896D01*
X74862661Y-106665894D01*
X74862666Y-106665894D01*
X75026547Y-106598013D01*
X75174035Y-106499464D01*
X75299464Y-106374035D01*
X75390898Y-106237194D01*
X75444510Y-106192390D01*
X75513835Y-106183683D01*
X75576863Y-106213837D01*
X75613582Y-106273280D01*
X75615618Y-106330276D01*
X75599500Y-106411309D01*
X75599500Y-106588695D01*
X75634103Y-106762658D01*
X75634106Y-106762667D01*
X75701983Y-106926540D01*
X75701990Y-106926553D01*
X75800535Y-107074034D01*
X75800538Y-107074038D01*
X75925961Y-107199461D01*
X75925965Y-107199464D01*
X76073446Y-107298009D01*
X76073453Y-107298013D01*
X76172953Y-107339227D01*
X76227355Y-107383066D01*
X76249421Y-107449360D01*
X76249500Y-107453787D01*
X76249500Y-108964729D01*
X76229815Y-109031768D01*
X76228602Y-109033620D01*
X76201988Y-109073449D01*
X76201987Y-109073452D01*
X76134106Y-109237332D01*
X76134103Y-109237341D01*
X76099500Y-109411304D01*
X76099500Y-109588695D01*
X76134103Y-109762658D01*
X76134106Y-109762667D01*
X76201984Y-109926542D01*
X76201985Y-109926543D01*
X76201987Y-109926547D01*
X76228602Y-109966378D01*
X76249480Y-110033055D01*
X76249500Y-110035269D01*
X76249500Y-111033804D01*
X76244804Y-111050360D01*
X76245104Y-111066530D01*
X76231039Y-111098900D01*
X76174481Y-111190596D01*
X76122533Y-111237321D01*
X76068942Y-111249500D01*
X75324499Y-111249500D01*
X75257460Y-111229815D01*
X75211705Y-111177011D01*
X75200499Y-111125500D01*
X75200499Y-108202129D01*
X75200498Y-108202123D01*
X75200497Y-108202116D01*
X75194091Y-108142517D01*
X75191604Y-108135850D01*
X75143797Y-108007671D01*
X75143793Y-108007664D01*
X75057547Y-107892455D01*
X75057544Y-107892452D01*
X74942335Y-107806206D01*
X74942328Y-107806202D01*
X74807482Y-107755908D01*
X74807483Y-107755908D01*
X74747883Y-107749501D01*
X74747881Y-107749500D01*
X74747873Y-107749500D01*
X74747864Y-107749500D01*
X72852129Y-107749500D01*
X72852123Y-107749501D01*
X72792516Y-107755908D01*
X72657671Y-107806202D01*
X72657664Y-107806206D01*
X72542455Y-107892452D01*
X72542452Y-107892455D01*
X72456206Y-108007664D01*
X72456202Y-108007671D01*
X72405908Y-108142517D01*
X72399501Y-108202116D01*
X72399501Y-108202123D01*
X72399500Y-108202135D01*
X72399500Y-115797870D01*
X72399501Y-115797876D01*
X72405908Y-115857483D01*
X72456202Y-115992328D01*
X72456206Y-115992335D01*
X72542452Y-116107544D01*
X72542455Y-116107547D01*
X72657664Y-116193793D01*
X72657671Y-116193797D01*
X72792517Y-116244091D01*
X72792516Y-116244091D01*
X72799444Y-116244835D01*
X72852127Y-116250500D01*
X74747872Y-116250499D01*
X74807483Y-116244091D01*
X74942331Y-116193796D01*
X75000168Y-116150499D01*
X75051189Y-116112305D01*
X75116653Y-116087887D01*
X75184926Y-116102738D01*
X75234332Y-116152143D01*
X75249500Y-116211571D01*
X75249500Y-117018942D01*
X75246901Y-117027792D01*
X75248189Y-117036929D01*
X75237211Y-117060790D01*
X75229815Y-117085981D01*
X75222069Y-117093704D01*
X75218988Y-117100404D01*
X75194688Y-117121011D01*
X75192250Y-117123443D01*
X75191429Y-117123966D01*
X75056344Y-117207288D01*
X75048134Y-117215497D01*
X75036752Y-117222768D01*
X75015640Y-117228903D01*
X74996344Y-117239437D01*
X74982748Y-117238462D01*
X74969659Y-117242267D01*
X74948581Y-117236014D01*
X74926653Y-117234443D01*
X74904906Y-117223806D01*
X74769340Y-117140189D01*
X74769335Y-117140187D01*
X74769334Y-117140186D01*
X74602797Y-117085001D01*
X74602795Y-117085000D01*
X74500010Y-117074500D01*
X73499998Y-117074500D01*
X73499980Y-117074501D01*
X73397203Y-117085000D01*
X73397200Y-117085001D01*
X73230668Y-117140185D01*
X73230663Y-117140187D01*
X73081342Y-117232289D01*
X73062681Y-117250951D01*
X73001358Y-117284436D01*
X72931666Y-117279452D01*
X72887319Y-117250951D01*
X72843657Y-117207289D01*
X72843656Y-117207288D01*
X72694334Y-117115186D01*
X72527797Y-117060001D01*
X72527795Y-117060000D01*
X72425010Y-117049500D01*
X71374998Y-117049500D01*
X71374980Y-117049501D01*
X71272203Y-117060000D01*
X71272200Y-117060001D01*
X71105668Y-117115185D01*
X71105663Y-117115187D01*
X70956342Y-117207289D01*
X70900451Y-117263181D01*
X70839128Y-117296666D01*
X70812770Y-117299500D01*
X70425288Y-117299500D01*
X70403008Y-117297482D01*
X70402569Y-117297401D01*
X70365701Y-117294500D01*
X70365694Y-117294500D01*
X69962229Y-117294500D01*
X69895190Y-117274815D01*
X69874548Y-117258181D01*
X69077411Y-116461043D01*
X69043926Y-116399720D01*
X69048910Y-116330028D01*
X69090782Y-116274095D01*
X69151838Y-116250072D01*
X69207483Y-116244091D01*
X69342331Y-116193796D01*
X69457546Y-116107546D01*
X69543796Y-115992331D01*
X69594091Y-115857483D01*
X69600500Y-115797873D01*
X69600499Y-108202128D01*
X69594091Y-108142517D01*
X69591604Y-108135850D01*
X69543797Y-108007671D01*
X69543793Y-108007664D01*
X69457547Y-107892455D01*
X69457544Y-107892452D01*
X69342335Y-107806206D01*
X69342328Y-107806202D01*
X69207482Y-107755908D01*
X69207483Y-107755908D01*
X69147883Y-107749501D01*
X69147881Y-107749500D01*
X69147873Y-107749500D01*
X69147864Y-107749500D01*
X67252129Y-107749500D01*
X67252123Y-107749501D01*
X67192516Y-107755908D01*
X67057671Y-107806202D01*
X67057664Y-107806206D01*
X66942455Y-107892452D01*
X66942452Y-107892455D01*
X66856206Y-108007664D01*
X66856202Y-108007671D01*
X66805908Y-108142517D01*
X66799501Y-108202116D01*
X66799501Y-108202123D01*
X66799500Y-108202135D01*
X66799500Y-115797870D01*
X66799501Y-115797876D01*
X66805908Y-115857483D01*
X66856202Y-115992328D01*
X66856206Y-115992335D01*
X66942452Y-116107544D01*
X66942455Y-116107547D01*
X67057664Y-116193793D01*
X67057671Y-116193797D01*
X67094307Y-116207461D01*
X67192517Y-116244091D01*
X67252127Y-116250500D01*
X67325500Y-116250499D01*
X67392538Y-116270183D01*
X67438294Y-116322986D01*
X67449500Y-116374499D01*
X67449500Y-116718918D01*
X67449500Y-116718920D01*
X67449499Y-116718920D01*
X67478340Y-116863907D01*
X67478343Y-116863917D01*
X67534913Y-117000490D01*
X67534915Y-117000493D01*
X67546759Y-117018220D01*
X67546758Y-117018220D01*
X67617046Y-117123414D01*
X67617052Y-117123421D01*
X68193934Y-117700302D01*
X68227419Y-117761625D01*
X68222435Y-117831316D01*
X68180564Y-117887250D01*
X68115099Y-117911667D01*
X68082064Y-117909601D01*
X68033793Y-117900000D01*
X67876202Y-117900000D01*
X67721656Y-117930741D01*
X67721648Y-117930743D01*
X67592705Y-117984153D01*
X68131777Y-118523223D01*
X68391523Y-118782969D01*
X68425008Y-118844292D01*
X68420024Y-118913984D01*
X68410577Y-118933766D01*
X68398256Y-118954601D01*
X68398254Y-118954606D01*
X68352402Y-119112426D01*
X68352401Y-119112432D01*
X68349500Y-119149298D01*
X68349405Y-119151734D01*
X68349309Y-119151730D01*
X68349309Y-119151733D01*
X68349238Y-119151727D01*
X68348615Y-119151703D01*
X68329815Y-119215730D01*
X68277011Y-119261485D01*
X68207853Y-119271429D01*
X68144297Y-119242404D01*
X68137819Y-119236372D01*
X67955001Y-119053553D01*
X67955000Y-119053553D01*
X67658553Y-119350000D01*
X67955000Y-119646446D01*
X67955001Y-119646446D01*
X68137819Y-119463628D01*
X68199142Y-119430143D01*
X68268834Y-119435127D01*
X68324767Y-119476999D01*
X68349184Y-119542463D01*
X68349500Y-119551309D01*
X68349500Y-119580701D01*
X68352401Y-119617567D01*
X68352402Y-119617573D01*
X68398254Y-119775393D01*
X68398255Y-119775397D01*
X68399431Y-119777385D01*
X68399876Y-119779143D01*
X68401353Y-119782554D01*
X68400802Y-119782792D01*
X68416607Y-119845111D01*
X68394442Y-119911371D01*
X68380375Y-119928178D01*
X68308553Y-120000000D01*
X68380374Y-120071820D01*
X68413859Y-120133143D01*
X68408875Y-120202835D01*
X68399432Y-120222612D01*
X68398258Y-120224595D01*
X68398254Y-120224607D01*
X68352402Y-120382426D01*
X68352401Y-120382432D01*
X68349500Y-120419298D01*
X68349500Y-120448691D01*
X68329815Y-120515730D01*
X68277011Y-120561485D01*
X68207853Y-120571429D01*
X68144297Y-120542404D01*
X68137819Y-120536372D01*
X67955001Y-120353553D01*
X67955000Y-120353553D01*
X67658553Y-120650000D01*
X67955000Y-120946446D01*
X67955001Y-120946446D01*
X68137819Y-120763628D01*
X68199142Y-120730143D01*
X68268834Y-120735127D01*
X68324767Y-120776999D01*
X68349184Y-120842463D01*
X68349391Y-120848266D01*
X68349405Y-120848266D01*
X68349500Y-120850701D01*
X68352401Y-120887567D01*
X68352402Y-120887573D01*
X68398254Y-121045393D01*
X68398254Y-121045394D01*
X68398255Y-121045396D01*
X68398256Y-121045398D01*
X68410574Y-121066226D01*
X68410575Y-121066228D01*
X68427756Y-121133952D01*
X68405596Y-121200215D01*
X68391524Y-121217029D01*
X68131778Y-121476777D01*
X68131777Y-121476777D01*
X67592706Y-122015845D01*
X67721652Y-122069257D01*
X67721656Y-122069258D01*
X67876202Y-122099999D01*
X67876206Y-122100000D01*
X68033794Y-122100000D01*
X68033797Y-122099999D01*
X68188343Y-122069258D01*
X68194178Y-122067489D01*
X68194908Y-122069897D01*
X68253394Y-122063564D01*
X68315897Y-122094791D01*
X68349747Y-122151742D01*
X68350634Y-122151485D01*
X68398254Y-122315393D01*
X68398255Y-122315396D01*
X68481917Y-122456862D01*
X68481923Y-122456870D01*
X68598129Y-122573076D01*
X68598133Y-122573079D01*
X68598135Y-122573081D01*
X68739602Y-122656744D01*
X68764124Y-122663868D01*
X68822797Y-122680915D01*
X68881683Y-122718521D01*
X68909819Y-122775798D01*
X68928341Y-122868908D01*
X68928343Y-122868917D01*
X68984913Y-123005490D01*
X68984914Y-123005491D01*
X68984916Y-123005495D01*
X69007971Y-123039999D01*
X69065086Y-123125480D01*
X69067051Y-123128420D01*
X69067052Y-123128421D01*
X70421584Y-124482952D01*
X70421586Y-124482954D01*
X70443364Y-124497504D01*
X70476035Y-124519334D01*
X70544505Y-124565084D01*
X70544506Y-124565084D01*
X70544507Y-124565085D01*
X70681082Y-124621656D01*
X70681087Y-124621658D01*
X70681091Y-124621658D01*
X70681092Y-124621659D01*
X70826079Y-124650500D01*
X70826082Y-124650500D01*
X70826083Y-124650500D01*
X70973917Y-124650500D01*
X71555341Y-124650500D01*
X71585383Y-124654194D01*
X71594299Y-124656420D01*
X71631088Y-124671659D01*
X71747241Y-124694763D01*
X71771757Y-124699639D01*
X71776081Y-124700500D01*
X71776082Y-124700500D01*
X71776083Y-124700500D01*
X71923918Y-124700500D01*
X72912770Y-124700500D01*
X72979809Y-124720185D01*
X73000451Y-124736819D01*
X73056344Y-124792712D01*
X73205666Y-124884814D01*
X73372203Y-124939999D01*
X73474991Y-124950500D01*
X74525008Y-124950499D01*
X74525016Y-124950498D01*
X74525019Y-124950498D01*
X74581302Y-124944748D01*
X74627797Y-124939999D01*
X74794334Y-124884814D01*
X74943656Y-124792712D01*
X74943661Y-124792707D01*
X74949324Y-124788231D01*
X74950335Y-124789510D01*
X75003988Y-124760206D01*
X75073680Y-124765182D01*
X75095458Y-124775830D01*
X75230875Y-124859356D01*
X75230880Y-124859358D01*
X75397302Y-124914505D01*
X75397309Y-124914506D01*
X75500019Y-124924999D01*
X75749999Y-124924999D01*
X76250000Y-124924999D01*
X76499972Y-124924999D01*
X76499986Y-124924998D01*
X76602697Y-124914505D01*
X76769119Y-124859358D01*
X76769124Y-124859356D01*
X76918345Y-124767315D01*
X77042315Y-124643345D01*
X77134356Y-124494124D01*
X77134358Y-124494119D01*
X77189505Y-124327697D01*
X77189506Y-124327690D01*
X77199999Y-124224986D01*
X77200000Y-124224973D01*
X77200000Y-124162500D01*
X76250000Y-124162500D01*
X76250000Y-124924999D01*
X75749999Y-124924999D01*
X75750000Y-124924998D01*
X75750000Y-124036500D01*
X75769685Y-123969461D01*
X75822489Y-123923706D01*
X75874000Y-123912500D01*
X76000000Y-123912500D01*
X76000000Y-123786500D01*
X76019685Y-123719461D01*
X76072489Y-123673706D01*
X76124000Y-123662500D01*
X77199999Y-123662500D01*
X77199999Y-123600028D01*
X77199998Y-123600013D01*
X77189505Y-123497302D01*
X77134358Y-123330880D01*
X77134356Y-123330875D01*
X77042315Y-123181654D01*
X76948695Y-123088034D01*
X76944356Y-123080088D01*
X76937109Y-123074663D01*
X76927874Y-123049903D01*
X76915210Y-123026711D01*
X76915855Y-123017681D01*
X76912692Y-123009199D01*
X76918308Y-122983378D01*
X76920194Y-122957019D01*
X76926012Y-122947965D01*
X76927544Y-122940926D01*
X76948692Y-122912674D01*
X77005946Y-122855420D01*
X77067269Y-122821936D01*
X77069300Y-122821512D01*
X77131413Y-122809158D01*
X77267995Y-122752584D01*
X77324118Y-122715084D01*
X77324118Y-122715083D01*
X77324120Y-122715083D01*
X77361673Y-122689991D01*
X77390916Y-122670452D01*
X78382952Y-121678415D01*
X78444645Y-121586084D01*
X78465084Y-121555495D01*
X78496079Y-121480666D01*
X78521659Y-121418912D01*
X78550500Y-121273917D01*
X78550500Y-121126082D01*
X78550500Y-121042534D01*
X78570185Y-120975495D01*
X78622989Y-120929740D01*
X78661897Y-120919176D01*
X78702797Y-120914999D01*
X78869334Y-120859814D01*
X79018656Y-120767712D01*
X79142712Y-120643656D01*
X79234814Y-120494334D01*
X79289999Y-120327797D01*
X79300500Y-120225009D01*
X79300499Y-119599992D01*
X79298528Y-119580701D01*
X79289999Y-119497203D01*
X79289998Y-119497200D01*
X79278873Y-119463628D01*
X79234814Y-119330666D01*
X79142712Y-119181344D01*
X79049049Y-119087681D01*
X79044710Y-119079735D01*
X79037463Y-119074310D01*
X79028228Y-119049550D01*
X79015564Y-119026358D01*
X79016209Y-119017328D01*
X79013046Y-119008846D01*
X79018662Y-118983025D01*
X79020548Y-118956666D01*
X79026366Y-118947612D01*
X79027898Y-118940573D01*
X79049049Y-118912319D01*
X79087049Y-118874319D01*
X79148372Y-118840834D01*
X79174730Y-118838000D01*
X80025270Y-118838000D01*
X80092309Y-118857685D01*
X80112951Y-118874319D01*
X80813181Y-119574549D01*
X80846666Y-119635872D01*
X80849500Y-119662230D01*
X80849500Y-126064729D01*
X80829815Y-126131768D01*
X80828602Y-126133620D01*
X80801988Y-126173449D01*
X80801987Y-126173452D01*
X80734106Y-126337332D01*
X80734103Y-126337341D01*
X80699500Y-126511304D01*
X80699500Y-126688695D01*
X80734103Y-126862658D01*
X80734106Y-126862667D01*
X80801983Y-127026540D01*
X80801990Y-127026553D01*
X80900535Y-127174034D01*
X80900538Y-127174038D01*
X81025961Y-127299461D01*
X81025965Y-127299464D01*
X81173446Y-127398009D01*
X81173459Y-127398016D01*
X81242430Y-127426584D01*
X81337334Y-127465894D01*
X81337336Y-127465894D01*
X81337341Y-127465896D01*
X81511304Y-127500499D01*
X81511307Y-127500500D01*
X81511309Y-127500500D01*
X81688693Y-127500500D01*
X81688694Y-127500499D01*
X81746682Y-127488964D01*
X81862658Y-127465896D01*
X81862661Y-127465894D01*
X81862666Y-127465894D01*
X82002535Y-127407958D01*
X82026540Y-127398016D01*
X82026540Y-127398015D01*
X82026547Y-127398013D01*
X82046326Y-127384797D01*
X82058482Y-127376675D01*
X82125159Y-127355797D01*
X82192539Y-127374281D01*
X82239230Y-127426260D01*
X82250406Y-127495230D01*
X82232271Y-127543854D01*
X82232789Y-127544131D01*
X82230734Y-127547975D01*
X82230477Y-127548665D01*
X82229920Y-127549498D01*
X82229914Y-127549508D01*
X82173342Y-127686086D01*
X82173340Y-127686092D01*
X82144500Y-127831079D01*
X82144500Y-128367670D01*
X82139576Y-128402265D01*
X82097402Y-128547426D01*
X82097401Y-128547432D01*
X82094500Y-128584298D01*
X82094500Y-130365701D01*
X82097401Y-130402567D01*
X82097402Y-130402573D01*
X82143254Y-130560393D01*
X82143255Y-130560396D01*
X82203567Y-130662379D01*
X82220750Y-130730103D01*
X82198590Y-130796366D01*
X82144124Y-130840129D01*
X82096835Y-130849500D01*
X81520808Y-130849500D01*
X81453769Y-130829815D01*
X81433127Y-130813181D01*
X81036819Y-130416873D01*
X81003334Y-130355550D01*
X81000500Y-130329192D01*
X81000500Y-130311306D01*
X81000499Y-130311304D01*
X80965896Y-130137341D01*
X80965893Y-130137332D01*
X80898016Y-129973459D01*
X80898009Y-129973446D01*
X80799464Y-129825965D01*
X80799461Y-129825961D01*
X80674038Y-129700538D01*
X80674034Y-129700535D01*
X80526553Y-129601990D01*
X80526540Y-129601983D01*
X80362667Y-129534106D01*
X80362658Y-129534103D01*
X80188694Y-129499500D01*
X80188691Y-129499500D01*
X80011309Y-129499500D01*
X80011306Y-129499500D01*
X79837341Y-129534103D01*
X79837332Y-129534106D01*
X79673459Y-129601983D01*
X79673446Y-129601990D01*
X79525965Y-129700535D01*
X79525961Y-129700538D01*
X79400538Y-129825961D01*
X79400535Y-129825965D01*
X79301990Y-129973446D01*
X79301983Y-129973459D01*
X79234106Y-130137332D01*
X79234103Y-130137341D01*
X79199500Y-130311304D01*
X79199500Y-130488695D01*
X79234103Y-130662658D01*
X79234106Y-130662667D01*
X79301983Y-130826540D01*
X79301990Y-130826553D01*
X79400535Y-130974034D01*
X79400538Y-130974038D01*
X79525961Y-131099461D01*
X79525965Y-131099464D01*
X79673446Y-131198009D01*
X79673459Y-131198016D01*
X79796363Y-131248923D01*
X79837334Y-131265894D01*
X79837336Y-131265894D01*
X79837341Y-131265896D01*
X80011304Y-131300499D01*
X80011307Y-131300500D01*
X80011309Y-131300500D01*
X80029192Y-131300500D01*
X80096231Y-131320185D01*
X80116873Y-131336819D01*
X80785325Y-132005272D01*
X80785332Y-132005278D01*
X80873320Y-132064069D01*
X80873321Y-132064069D01*
X80891873Y-132076465D01*
X81010256Y-132125501D01*
X81010260Y-132125501D01*
X81010261Y-132125502D01*
X81135928Y-132150500D01*
X81135931Y-132150500D01*
X83225500Y-132150500D01*
X83292539Y-132170185D01*
X83338294Y-132222989D01*
X83349500Y-132274500D01*
X83349500Y-133324142D01*
X83340459Y-133354929D01*
X83332900Y-133386120D01*
X83330527Y-133388755D01*
X83329815Y-133391181D01*
X83311088Y-133413867D01*
X83305087Y-133419590D01*
X83283072Y-133435586D01*
X83174521Y-133544136D01*
X83173437Y-133545171D01*
X83143658Y-133560530D01*
X83114207Y-133576612D01*
X83112691Y-133576503D01*
X83111341Y-133577200D01*
X83077972Y-133574020D01*
X83044515Y-133571628D01*
X83043298Y-133570716D01*
X83041787Y-133570573D01*
X83015425Y-133549851D01*
X82988582Y-133529756D01*
X82987109Y-133527593D01*
X82986856Y-133527394D01*
X82986733Y-133527041D01*
X82982310Y-133520543D01*
X82946312Y-133462181D01*
X82942712Y-133456344D01*
X82818656Y-133332288D01*
X82693559Y-133255128D01*
X82669336Y-133240187D01*
X82669331Y-133240185D01*
X82650587Y-133233974D01*
X82502797Y-133185001D01*
X82502795Y-133185000D01*
X82400010Y-133174500D01*
X81599998Y-133174500D01*
X81599980Y-133174501D01*
X81497203Y-133185000D01*
X81497200Y-133185001D01*
X81330668Y-133240185D01*
X81330663Y-133240187D01*
X81181342Y-133332289D01*
X81057289Y-133456342D01*
X80965187Y-133605663D01*
X80965185Y-133605668D01*
X80948014Y-133657488D01*
X80910001Y-133772203D01*
X80910001Y-133772204D01*
X80910000Y-133772204D01*
X80899500Y-133874983D01*
X80899500Y-135225001D01*
X80899501Y-135225018D01*
X80910000Y-135327796D01*
X80910001Y-135327799D01*
X80965185Y-135494331D01*
X80965187Y-135494336D01*
X80988600Y-135532294D01*
X81057288Y-135643656D01*
X81181344Y-135767712D01*
X81330666Y-135859814D01*
X81497203Y-135914999D01*
X81599991Y-135925500D01*
X82400008Y-135925499D01*
X82400016Y-135925498D01*
X82400019Y-135925498D01*
X82456302Y-135919748D01*
X82502797Y-135914999D01*
X82669334Y-135859814D01*
X82818656Y-135767712D01*
X82942712Y-135643656D01*
X82982310Y-135579456D01*
X83034258Y-135532732D01*
X83103220Y-135521509D01*
X83167303Y-135549352D01*
X83175530Y-135556872D01*
X83283072Y-135664414D01*
X83423212Y-135766232D01*
X83577555Y-135844873D01*
X83742299Y-135898402D01*
X83913389Y-135925500D01*
X83913390Y-135925500D01*
X84086610Y-135925500D01*
X84086611Y-135925500D01*
X84257701Y-135898402D01*
X84422445Y-135844873D01*
X84576788Y-135766232D01*
X84716928Y-135664414D01*
X84839414Y-135541928D01*
X84899682Y-135458975D01*
X84955012Y-135416311D01*
X85024626Y-135410332D01*
X85086421Y-135442938D01*
X85100315Y-135458973D01*
X85160586Y-135541928D01*
X85283072Y-135664414D01*
X85423212Y-135766232D01*
X85577555Y-135844873D01*
X85742299Y-135898402D01*
X85913389Y-135925500D01*
X85913390Y-135925500D01*
X86086610Y-135925500D01*
X86086611Y-135925500D01*
X86257701Y-135898402D01*
X86422445Y-135844873D01*
X86576788Y-135766232D01*
X86716928Y-135664414D01*
X86839414Y-135541928D01*
X86899991Y-135458550D01*
X86955321Y-135415885D01*
X87024934Y-135409906D01*
X87086729Y-135442512D01*
X87100628Y-135458551D01*
X87160967Y-135541602D01*
X87283397Y-135664032D01*
X87423475Y-135765804D01*
X87577744Y-135844408D01*
X87742415Y-135897914D01*
X87742414Y-135897914D01*
X87749999Y-135899115D01*
X87750000Y-135899114D01*
X87750000Y-134830330D01*
X87769745Y-134850075D01*
X87855255Y-134899444D01*
X87950630Y-134925000D01*
X88049370Y-134925000D01*
X88144745Y-134899444D01*
X88230255Y-134850075D01*
X88250000Y-134830330D01*
X88250000Y-135899115D01*
X88257584Y-135897914D01*
X88422255Y-135844408D01*
X88576524Y-135765804D01*
X88716602Y-135664032D01*
X88839032Y-135541602D01*
X88940804Y-135401524D01*
X89019408Y-135247257D01*
X89072914Y-135082584D01*
X89100000Y-134911571D01*
X89100000Y-134800000D01*
X88280330Y-134800000D01*
X88300075Y-134780255D01*
X88349444Y-134694745D01*
X88375000Y-134599370D01*
X88375000Y-134500630D01*
X88349444Y-134405255D01*
X88300075Y-134319745D01*
X88280330Y-134300000D01*
X89100000Y-134300000D01*
X89100000Y-134188428D01*
X89072914Y-134017415D01*
X89038062Y-133910153D01*
X89026635Y-133874983D01*
X93899500Y-133874983D01*
X93899500Y-135225001D01*
X93899501Y-135225018D01*
X93910000Y-135327796D01*
X93910001Y-135327799D01*
X93965185Y-135494331D01*
X93965187Y-135494336D01*
X93988600Y-135532294D01*
X94057288Y-135643656D01*
X94181344Y-135767712D01*
X94330666Y-135859814D01*
X94497203Y-135914999D01*
X94599991Y-135925500D01*
X95400008Y-135925499D01*
X95400016Y-135925498D01*
X95400019Y-135925498D01*
X95456302Y-135919748D01*
X95502797Y-135914999D01*
X95669334Y-135859814D01*
X95818656Y-135767712D01*
X95942712Y-135643656D01*
X95982581Y-135579016D01*
X96034525Y-135532294D01*
X96103488Y-135521071D01*
X96167570Y-135548914D01*
X96175799Y-135556434D01*
X96283397Y-135664032D01*
X96423475Y-135765804D01*
X96577744Y-135844408D01*
X96742415Y-135897914D01*
X96742414Y-135897914D01*
X96749999Y-135899115D01*
X96750000Y-135899114D01*
X96750000Y-134830330D01*
X96769745Y-134850075D01*
X96855255Y-134899444D01*
X96950630Y-134925000D01*
X97049370Y-134925000D01*
X97144745Y-134899444D01*
X97230255Y-134850075D01*
X97250000Y-134830330D01*
X97250000Y-135899115D01*
X97257584Y-135897914D01*
X97422255Y-135844408D01*
X97576524Y-135765804D01*
X97716602Y-135664032D01*
X97839036Y-135541598D01*
X97899371Y-135458552D01*
X97954700Y-135415886D01*
X98024313Y-135409905D01*
X98086109Y-135442510D01*
X98100008Y-135458550D01*
X98100318Y-135458976D01*
X98160586Y-135541928D01*
X98283072Y-135664414D01*
X98423212Y-135766232D01*
X98577555Y-135844873D01*
X98742299Y-135898402D01*
X98913389Y-135925500D01*
X98913390Y-135925500D01*
X99086610Y-135925500D01*
X99086611Y-135925500D01*
X99257701Y-135898402D01*
X99318303Y-135878711D01*
X104149500Y-135878711D01*
X104149500Y-136121288D01*
X104181161Y-136361785D01*
X104243947Y-136596104D01*
X104336773Y-136820205D01*
X104336776Y-136820212D01*
X104458064Y-137030289D01*
X104458066Y-137030292D01*
X104458067Y-137030293D01*
X104605733Y-137222736D01*
X104605739Y-137222743D01*
X104777256Y-137394260D01*
X104777262Y-137394265D01*
X104969711Y-137541936D01*
X105179788Y-137663224D01*
X105403900Y-137756054D01*
X105638211Y-137818838D01*
X105818586Y-137842584D01*
X105878711Y-137850500D01*
X105878712Y-137850500D01*
X106121289Y-137850500D01*
X106169388Y-137844167D01*
X106361789Y-137818838D01*
X106596100Y-137756054D01*
X106820212Y-137663224D01*
X107030289Y-137541936D01*
X107222738Y-137394265D01*
X107394265Y-137222738D01*
X107541936Y-137030289D01*
X107663224Y-136820212D01*
X107756054Y-136596100D01*
X107818838Y-136361789D01*
X107850500Y-136121288D01*
X107850500Y-135878712D01*
X107818838Y-135638211D01*
X107756054Y-135403900D01*
X107663224Y-135179788D01*
X107541936Y-134969711D01*
X107450136Y-134850075D01*
X107394266Y-134777263D01*
X107394260Y-134777256D01*
X107222743Y-134605739D01*
X107222736Y-134605733D01*
X107030293Y-134458067D01*
X107030292Y-134458066D01*
X107030289Y-134458064D01*
X106820212Y-134336776D01*
X106820205Y-134336773D01*
X106596104Y-134243947D01*
X106361785Y-134181161D01*
X106121289Y-134149500D01*
X106121288Y-134149500D01*
X105878712Y-134149500D01*
X105878711Y-134149500D01*
X105638214Y-134181161D01*
X105403895Y-134243947D01*
X105179794Y-134336773D01*
X105179785Y-134336777D01*
X104969706Y-134458067D01*
X104777263Y-134605733D01*
X104777256Y-134605739D01*
X104605739Y-134777256D01*
X104605733Y-134777263D01*
X104458067Y-134969706D01*
X104336777Y-135179785D01*
X104336773Y-135179794D01*
X104243947Y-135403895D01*
X104181161Y-135638214D01*
X104149500Y-135878711D01*
X99318303Y-135878711D01*
X99422445Y-135844873D01*
X99498026Y-135806362D01*
X99576785Y-135766234D01*
X99577377Y-135765804D01*
X99716928Y-135664414D01*
X99839414Y-135541928D01*
X99941232Y-135401788D01*
X100019873Y-135247445D01*
X100073402Y-135082701D01*
X100100500Y-134911611D01*
X100100500Y-134188389D01*
X100073402Y-134017299D01*
X100019873Y-133852555D01*
X99941232Y-133698212D01*
X99839414Y-133558072D01*
X99716928Y-133435586D01*
X99576788Y-133333768D01*
X99422445Y-133255127D01*
X99257701Y-133201598D01*
X99257699Y-133201597D01*
X99257698Y-133201597D01*
X99126271Y-133180781D01*
X99086611Y-133174500D01*
X98913389Y-133174500D01*
X98873728Y-133180781D01*
X98742302Y-133201597D01*
X98577552Y-133255128D01*
X98423211Y-133333768D01*
X98382113Y-133363628D01*
X98283072Y-133435586D01*
X98283070Y-133435588D01*
X98283069Y-133435588D01*
X98160585Y-133558072D01*
X98100007Y-133641450D01*
X98044677Y-133684115D01*
X97975063Y-133690093D01*
X97913269Y-133657486D01*
X97899371Y-133641447D01*
X97839036Y-133558401D01*
X97716602Y-133435967D01*
X97576524Y-133334195D01*
X97422257Y-133255591D01*
X97257589Y-133202087D01*
X97257581Y-133202085D01*
X97250000Y-133200884D01*
X97250000Y-134269670D01*
X97230255Y-134249925D01*
X97144745Y-134200556D01*
X97049370Y-134175000D01*
X96950630Y-134175000D01*
X96855255Y-134200556D01*
X96769745Y-134249925D01*
X96750000Y-134269670D01*
X96750000Y-133200884D01*
X96749999Y-133200884D01*
X96742418Y-133202085D01*
X96742410Y-133202087D01*
X96577742Y-133255591D01*
X96423475Y-133334195D01*
X96283401Y-133435964D01*
X96175799Y-133543566D01*
X96114476Y-133577050D01*
X96044784Y-133572066D01*
X95988851Y-133530194D01*
X95982585Y-133520988D01*
X95942712Y-133456344D01*
X95818656Y-133332288D01*
X95693559Y-133255128D01*
X95669336Y-133240187D01*
X95669331Y-133240185D01*
X95650587Y-133233974D01*
X95502797Y-133185001D01*
X95502795Y-133185000D01*
X95400010Y-133174500D01*
X94599998Y-133174500D01*
X94599980Y-133174501D01*
X94497203Y-133185000D01*
X94497200Y-133185001D01*
X94330668Y-133240185D01*
X94330663Y-133240187D01*
X94181342Y-133332289D01*
X94057289Y-133456342D01*
X93965187Y-133605663D01*
X93965185Y-133605668D01*
X93948014Y-133657488D01*
X93910001Y-133772203D01*
X93910001Y-133772204D01*
X93910000Y-133772204D01*
X93899500Y-133874983D01*
X89026635Y-133874983D01*
X89019408Y-133852742D01*
X88940804Y-133698475D01*
X88839032Y-133558397D01*
X88716600Y-133435965D01*
X88701483Y-133424982D01*
X88697790Y-133420193D01*
X88692315Y-133417632D01*
X88676705Y-133392849D01*
X88658818Y-133369652D01*
X88658300Y-133363628D01*
X88655078Y-133358512D01*
X88655345Y-133329221D01*
X88652839Y-133300038D01*
X88655660Y-133294690D01*
X88655716Y-133288645D01*
X88671773Y-133264152D01*
X88685445Y-133238243D01*
X88691559Y-133233974D01*
X88694025Y-133230214D01*
X88717541Y-133215835D01*
X88723889Y-133211404D01*
X88725361Y-133210747D01*
X88808127Y-133176465D01*
X88811068Y-133174500D01*
X88914669Y-133105277D01*
X89605276Y-132414669D01*
X89676465Y-132308127D01*
X89725501Y-132189744D01*
X89733307Y-132150500D01*
X89750500Y-132064069D01*
X89750500Y-130874361D01*
X89770185Y-130807322D01*
X89786816Y-130786682D01*
X89799464Y-130774035D01*
X89898013Y-130626547D01*
X89965894Y-130462666D01*
X89977848Y-130402573D01*
X89996001Y-130311309D01*
X90000500Y-130288691D01*
X90000500Y-130111309D01*
X90000500Y-130111306D01*
X90000499Y-130111304D01*
X89965896Y-129937341D01*
X89965893Y-129937332D01*
X89898016Y-129773459D01*
X89898009Y-129773446D01*
X89799464Y-129625965D01*
X89799461Y-129625961D01*
X89674038Y-129500538D01*
X89674034Y-129500535D01*
X89526553Y-129401990D01*
X89526540Y-129401983D01*
X89362667Y-129334106D01*
X89362658Y-129334103D01*
X89188694Y-129299500D01*
X89188691Y-129299500D01*
X89011309Y-129299500D01*
X89011306Y-129299500D01*
X88837341Y-129334103D01*
X88837332Y-129334106D01*
X88673459Y-129401983D01*
X88673446Y-129401990D01*
X88525965Y-129500535D01*
X88525961Y-129500538D01*
X88400538Y-129625961D01*
X88400535Y-129625965D01*
X88301990Y-129773446D01*
X88301983Y-129773459D01*
X88234106Y-129937332D01*
X88234103Y-129937341D01*
X88199500Y-130111304D01*
X88199500Y-130288695D01*
X88234103Y-130462658D01*
X88234106Y-130462667D01*
X88301983Y-130626540D01*
X88301990Y-130626553D01*
X88400534Y-130774033D01*
X88400535Y-130774034D01*
X88400536Y-130774035D01*
X88413180Y-130786679D01*
X88446665Y-130847999D01*
X88449500Y-130874361D01*
X88449500Y-131679192D01*
X88440855Y-131708632D01*
X88434332Y-131738619D01*
X88430577Y-131743634D01*
X88429815Y-131746231D01*
X88413181Y-131766873D01*
X88266873Y-131913181D01*
X88205550Y-131946666D01*
X88179192Y-131949500D01*
X86320808Y-131949500D01*
X86253769Y-131929815D01*
X86233127Y-131913181D01*
X86121819Y-131801873D01*
X86088334Y-131740550D01*
X86085500Y-131714192D01*
X86085500Y-130994896D01*
X86105185Y-130927857D01*
X86157989Y-130882102D01*
X86227147Y-130872158D01*
X86272621Y-130888164D01*
X86294801Y-130901281D01*
X86452514Y-130947100D01*
X86452511Y-130947100D01*
X86454998Y-130947295D01*
X86455000Y-130947295D01*
X86955000Y-130947295D01*
X86955001Y-130947295D01*
X86957486Y-130947100D01*
X87115198Y-130901281D01*
X87256552Y-130817685D01*
X87256561Y-130817678D01*
X87372678Y-130701561D01*
X87372685Y-130701552D01*
X87456282Y-130560196D01*
X87456283Y-130560193D01*
X87502099Y-130402495D01*
X87502100Y-130402489D01*
X87504999Y-130365649D01*
X87505000Y-130365634D01*
X87505000Y-129725000D01*
X86955000Y-129725000D01*
X86955000Y-130947295D01*
X86455000Y-130947295D01*
X86455000Y-129225000D01*
X86955000Y-129225000D01*
X87505000Y-129225000D01*
X87505000Y-128584365D01*
X87504999Y-128584350D01*
X87502100Y-128547510D01*
X87502099Y-128547504D01*
X87456283Y-128389806D01*
X87456282Y-128389803D01*
X87372685Y-128248447D01*
X87372678Y-128248438D01*
X87256561Y-128132321D01*
X87256552Y-128132314D01*
X87115196Y-128048717D01*
X87115193Y-128048716D01*
X86957494Y-128002900D01*
X86957497Y-128002900D01*
X86955000Y-128002703D01*
X86955000Y-129225000D01*
X86455000Y-129225000D01*
X86455000Y-128002703D01*
X86452503Y-128002900D01*
X86294806Y-128048716D01*
X86294803Y-128048717D01*
X86153449Y-128132313D01*
X86147283Y-128137097D01*
X86145389Y-128134655D01*
X86096580Y-128161239D01*
X86026894Y-128156179D01*
X85994227Y-128135159D01*
X85993031Y-128136702D01*
X85986862Y-128131917D01*
X85908681Y-128085681D01*
X85845398Y-128048256D01*
X85845397Y-128048255D01*
X85845396Y-128048255D01*
X85845393Y-128048254D01*
X85687573Y-128002402D01*
X85687567Y-128002401D01*
X85650701Y-127999500D01*
X85650694Y-127999500D01*
X85261230Y-127999500D01*
X85194191Y-127979815D01*
X85148436Y-127927011D01*
X85138492Y-127857853D01*
X85167517Y-127794297D01*
X85173549Y-127787819D01*
X85682110Y-127279257D01*
X85852193Y-127109173D01*
X85913514Y-127075690D01*
X85915555Y-127075264D01*
X85962666Y-127065894D01*
X86126547Y-126998013D01*
X86274035Y-126899464D01*
X86399464Y-126774035D01*
X86498013Y-126626547D01*
X86565894Y-126462666D01*
X86600500Y-126288691D01*
X86600500Y-126124500D01*
X86620185Y-126057461D01*
X86672989Y-126011706D01*
X86724500Y-126000500D01*
X86920686Y-126000500D01*
X86920694Y-126000500D01*
X86957569Y-125997598D01*
X86957571Y-125997597D01*
X86957573Y-125997597D01*
X86999191Y-125985505D01*
X87115398Y-125951744D01*
X87256865Y-125868081D01*
X87373081Y-125751865D01*
X87456744Y-125610398D01*
X87502598Y-125452569D01*
X87505500Y-125415694D01*
X87505500Y-123634306D01*
X87502598Y-123597431D01*
X87456744Y-123439602D01*
X87373081Y-123298135D01*
X87372768Y-123297605D01*
X87355500Y-123234484D01*
X87355500Y-104915808D01*
X87375185Y-104848769D01*
X87391819Y-104828127D01*
X89305381Y-102914565D01*
X89322291Y-102905330D01*
X89336240Y-102892031D01*
X89352327Y-102888930D01*
X89366704Y-102881080D01*
X89385923Y-102882454D01*
X89404847Y-102878807D01*
X89420055Y-102884895D01*
X89436396Y-102886064D01*
X89451822Y-102897612D01*
X89469712Y-102904774D01*
X89479215Y-102918118D01*
X89492329Y-102927936D01*
X89499062Y-102945989D01*
X89510242Y-102961688D01*
X89511021Y-102978052D01*
X89516746Y-102993400D01*
X89512649Y-103012229D01*
X89513567Y-103031479D01*
X89502387Y-103059406D01*
X89501894Y-103061673D01*
X89500450Y-103064245D01*
X89473279Y-103111308D01*
X89473277Y-103111310D01*
X89440425Y-103168209D01*
X89440424Y-103168210D01*
X89424544Y-103227472D01*
X89399499Y-103320943D01*
X89399499Y-103320945D01*
X89399499Y-103489046D01*
X89399500Y-103489059D01*
X89399500Y-104575638D01*
X89379815Y-104642677D01*
X89363181Y-104663319D01*
X89300538Y-104725961D01*
X89300535Y-104725965D01*
X89201990Y-104873446D01*
X89201983Y-104873459D01*
X89134106Y-105037332D01*
X89134103Y-105037341D01*
X89099500Y-105211304D01*
X89099500Y-105388695D01*
X89134103Y-105562658D01*
X89134106Y-105562667D01*
X89201983Y-105726540D01*
X89201990Y-105726553D01*
X89300535Y-105874034D01*
X89300538Y-105874038D01*
X89425961Y-105999461D01*
X89425965Y-105999464D01*
X89573446Y-106098009D01*
X89573459Y-106098016D01*
X89653451Y-106131149D01*
X89737334Y-106165894D01*
X89737336Y-106165894D01*
X89737341Y-106165896D01*
X89911304Y-106200499D01*
X89911307Y-106200500D01*
X89911309Y-106200500D01*
X90088693Y-106200500D01*
X90088694Y-106200499D01*
X90146682Y-106188964D01*
X90262658Y-106165896D01*
X90262661Y-106165894D01*
X90262666Y-106165894D01*
X90426547Y-106098013D01*
X90574035Y-105999464D01*
X90699464Y-105874035D01*
X90798013Y-105726547D01*
X90865894Y-105562666D01*
X90870932Y-105537341D01*
X90898350Y-105399500D01*
X90900500Y-105388691D01*
X90900500Y-105211309D01*
X90900500Y-105211306D01*
X90900499Y-105211304D01*
X90865896Y-105037341D01*
X90865893Y-105037332D01*
X90861425Y-105026546D01*
X90828947Y-104948135D01*
X90798016Y-104873459D01*
X90798009Y-104873446D01*
X90699464Y-104725965D01*
X90699461Y-104725961D01*
X90636819Y-104663319D01*
X90603334Y-104601996D01*
X90600500Y-104575638D01*
X90600500Y-103700096D01*
X90620185Y-103633057D01*
X90636815Y-103612419D01*
X91495433Y-102753800D01*
X91556754Y-102720317D01*
X91607302Y-102719866D01*
X91659430Y-102730234D01*
X91761306Y-102750500D01*
X91761309Y-102750500D01*
X91938693Y-102750500D01*
X91938694Y-102750499D01*
X92014463Y-102735428D01*
X92112658Y-102715896D01*
X92112661Y-102715894D01*
X92112666Y-102715894D01*
X92268049Y-102651532D01*
X92337517Y-102644064D01*
X92399996Y-102675339D01*
X92435648Y-102735428D01*
X92439500Y-102766094D01*
X92439500Y-103497870D01*
X92439501Y-103497876D01*
X92445908Y-103557483D01*
X92496202Y-103692328D01*
X92496206Y-103692335D01*
X92582452Y-103807544D01*
X92582455Y-103807547D01*
X92697664Y-103893793D01*
X92697671Y-103893797D01*
X92715745Y-103900538D01*
X92832517Y-103944091D01*
X92892127Y-103950500D01*
X92965500Y-103950499D01*
X92974184Y-103953049D01*
X92983147Y-103951761D01*
X93007186Y-103962739D01*
X93032538Y-103970183D01*
X93038466Y-103977024D01*
X93046703Y-103980786D01*
X93060989Y-104003016D01*
X93078294Y-104022986D01*
X93080581Y-104033502D01*
X93084477Y-104039564D01*
X93089500Y-104074499D01*
X93089500Y-104091803D01*
X93069815Y-104158842D01*
X93034396Y-104194902D01*
X93025967Y-104200534D01*
X92900534Y-104325966D01*
X92801990Y-104473446D01*
X92801983Y-104473459D01*
X92734106Y-104637332D01*
X92734103Y-104637341D01*
X92699500Y-104811304D01*
X92699500Y-104811309D01*
X92699500Y-104988691D01*
X92709177Y-105037341D01*
X92713542Y-105059287D01*
X92707313Y-105128878D01*
X92679605Y-105171158D01*
X92487582Y-105363182D01*
X92426262Y-105396666D01*
X92399903Y-105399500D01*
X92311306Y-105399500D01*
X92137341Y-105434103D01*
X92137332Y-105434106D01*
X91973459Y-105501983D01*
X91973446Y-105501990D01*
X91825965Y-105600535D01*
X91825961Y-105600538D01*
X91700538Y-105725961D01*
X91700535Y-105725965D01*
X91601990Y-105873446D01*
X91601983Y-105873459D01*
X91534106Y-106037332D01*
X91534103Y-106037341D01*
X91499500Y-106211304D01*
X91499500Y-106388695D01*
X91534103Y-106562658D01*
X91534106Y-106562667D01*
X91601983Y-106726540D01*
X91601990Y-106726553D01*
X91700535Y-106874034D01*
X91700538Y-106874038D01*
X91825961Y-106999461D01*
X91825965Y-106999464D01*
X91973446Y-107098009D01*
X91973459Y-107098016D01*
X92042355Y-107126553D01*
X92137334Y-107165894D01*
X92137336Y-107165894D01*
X92137341Y-107165896D01*
X92311304Y-107200499D01*
X92311307Y-107200500D01*
X92311309Y-107200500D01*
X92488693Y-107200500D01*
X92488694Y-107200499D01*
X92546682Y-107188964D01*
X92662658Y-107165896D01*
X92662661Y-107165894D01*
X92662666Y-107165894D01*
X92805495Y-107106733D01*
X92826540Y-107098016D01*
X92826540Y-107098015D01*
X92826547Y-107098013D01*
X92974035Y-106999464D01*
X93099464Y-106874035D01*
X93198013Y-106726547D01*
X93265894Y-106562666D01*
X93267321Y-106555496D01*
X93288964Y-106446682D01*
X93300500Y-106388691D01*
X93300500Y-106300096D01*
X93320185Y-106233057D01*
X93336815Y-106212419D01*
X93737047Y-105812186D01*
X93798368Y-105778703D01*
X93800433Y-105778272D01*
X93862666Y-105765894D01*
X94016953Y-105701987D01*
X94026540Y-105698016D01*
X94026540Y-105698015D01*
X94026547Y-105698013D01*
X94174035Y-105599464D01*
X94299464Y-105474035D01*
X94398013Y-105326547D01*
X94465894Y-105162666D01*
X94468414Y-105150000D01*
X94494164Y-105020542D01*
X94500500Y-104988691D01*
X94500500Y-104811309D01*
X94500500Y-104811306D01*
X94500499Y-104811304D01*
X94465896Y-104637341D01*
X94465893Y-104637332D01*
X94398016Y-104473459D01*
X94398009Y-104473446D01*
X94311398Y-104343824D01*
X94305747Y-104325777D01*
X94295523Y-104309868D01*
X94291071Y-104278906D01*
X94290520Y-104277146D01*
X94290500Y-104274933D01*
X94290500Y-104074499D01*
X94310185Y-104007460D01*
X94362989Y-103961705D01*
X94414500Y-103950499D01*
X94487871Y-103950499D01*
X94487872Y-103950499D01*
X94547483Y-103944091D01*
X94682331Y-103893796D01*
X94797546Y-103807546D01*
X94883796Y-103692331D01*
X94934091Y-103557483D01*
X94940500Y-103497873D01*
X94940499Y-102502128D01*
X94934091Y-102442517D01*
X94883796Y-102307669D01*
X94883794Y-102307666D01*
X94880696Y-102299360D01*
X94882426Y-102298714D01*
X94869902Y-102241163D01*
X94881691Y-102201011D01*
X94880696Y-102200640D01*
X94883794Y-102192333D01*
X94883796Y-102192331D01*
X94934091Y-102057483D01*
X94940500Y-101997873D01*
X94940499Y-101117617D01*
X94960183Y-101050579D01*
X95012987Y-101004824D01*
X95070793Y-100993778D01*
X95079822Y-100994236D01*
X95111309Y-101000500D01*
X95203049Y-101000500D01*
X95206197Y-101000660D01*
X95236324Y-101011194D01*
X95266942Y-101020185D01*
X95270702Y-101023215D01*
X95272151Y-101023722D01*
X95273544Y-101025505D01*
X95287583Y-101036818D01*
X95379534Y-101128770D01*
X95413019Y-101190092D01*
X95408035Y-101259784D01*
X95403321Y-101270230D01*
X95334106Y-101437332D01*
X95334103Y-101437341D01*
X95299500Y-101611304D01*
X95299500Y-101788695D01*
X95334103Y-101962658D01*
X95334106Y-101962667D01*
X95401983Y-102126540D01*
X95401990Y-102126553D01*
X95500535Y-102274034D01*
X95500538Y-102274038D01*
X95625961Y-102399461D01*
X95625965Y-102399464D01*
X95773446Y-102498009D01*
X95773459Y-102498016D01*
X95896363Y-102548923D01*
X95937334Y-102565894D01*
X95937336Y-102565894D01*
X95937341Y-102565896D01*
X96111304Y-102600499D01*
X96111307Y-102600500D01*
X96111309Y-102600500D01*
X96288693Y-102600500D01*
X96288694Y-102600499D01*
X96346682Y-102588964D01*
X96462658Y-102565896D01*
X96462661Y-102565894D01*
X96462666Y-102565894D01*
X96616610Y-102502129D01*
X96626540Y-102498016D01*
X96626540Y-102498015D01*
X96626547Y-102498013D01*
X96774035Y-102399464D01*
X96803333Y-102370166D01*
X96862819Y-102310681D01*
X96924142Y-102277196D01*
X96993834Y-102282180D01*
X97049767Y-102324052D01*
X97074184Y-102389516D01*
X97074500Y-102398362D01*
X97074500Y-104506704D01*
X97054815Y-104573743D01*
X97038181Y-104594385D01*
X89994481Y-111638084D01*
X89994475Y-111638092D01*
X89951415Y-111712676D01*
X89951415Y-111712678D01*
X89915423Y-111775016D01*
X89915423Y-111775017D01*
X89874499Y-111927745D01*
X89874499Y-111927747D01*
X89874499Y-112095848D01*
X89874500Y-112095861D01*
X89874500Y-114606528D01*
X89874499Y-114606546D01*
X89874499Y-114772252D01*
X89874498Y-114772252D01*
X89915424Y-114924987D01*
X89915425Y-114924988D01*
X89936985Y-114962330D01*
X89936986Y-114962332D01*
X89994475Y-115061907D01*
X89994481Y-115061915D01*
X90113349Y-115180783D01*
X90113355Y-115180788D01*
X91521941Y-116589374D01*
X91521951Y-116589385D01*
X91526281Y-116593715D01*
X91526282Y-116593716D01*
X91638086Y-116705520D01*
X91712695Y-116748595D01*
X91712696Y-116748596D01*
X91775011Y-116784574D01*
X91775012Y-116784574D01*
X91775017Y-116784577D01*
X91927745Y-116825500D01*
X92085859Y-116825500D01*
X92474903Y-116825500D01*
X92541942Y-116845185D01*
X92562584Y-116861819D01*
X93294254Y-117593489D01*
X93294264Y-117593500D01*
X93298594Y-117597830D01*
X93298595Y-117597831D01*
X93410399Y-117709635D01*
X93480300Y-117749992D01*
X93547330Y-117788692D01*
X93700058Y-117829615D01*
X93858172Y-117829615D01*
X95308307Y-117829615D01*
X95375346Y-117849300D01*
X95395989Y-117865935D01*
X95448129Y-117918076D01*
X95448133Y-117918079D01*
X95448135Y-117918081D01*
X95589602Y-118001744D01*
X95615434Y-118009249D01*
X95747426Y-118047597D01*
X95747429Y-118047597D01*
X95747431Y-118047598D01*
X95784306Y-118050500D01*
X96586457Y-118050500D01*
X96653496Y-118070185D01*
X96699251Y-118122989D01*
X96709195Y-118192147D01*
X96680170Y-118255703D01*
X96625462Y-118292205D01*
X96569667Y-118310694D01*
X96480668Y-118340185D01*
X96480663Y-118340187D01*
X96331342Y-118432289D01*
X96207289Y-118556342D01*
X96115187Y-118705663D01*
X96115185Y-118705668D01*
X96107122Y-118730000D01*
X96060001Y-118872203D01*
X96060001Y-118872204D01*
X96060000Y-118872204D01*
X96049500Y-118974983D01*
X96049500Y-119275500D01*
X96029815Y-119342539D01*
X95977011Y-119388294D01*
X95925500Y-119399500D01*
X89985270Y-119399500D01*
X89918231Y-119379815D01*
X89916378Y-119378601D01*
X89876552Y-119351989D01*
X89876547Y-119351987D01*
X89712667Y-119284106D01*
X89712658Y-119284103D01*
X89538694Y-119249500D01*
X89538691Y-119249500D01*
X89361309Y-119249500D01*
X89361306Y-119249500D01*
X89187341Y-119284103D01*
X89187332Y-119284106D01*
X89023459Y-119351983D01*
X89023446Y-119351990D01*
X88875965Y-119450535D01*
X88875961Y-119450538D01*
X88750538Y-119575961D01*
X88750535Y-119575965D01*
X88651990Y-119723446D01*
X88651983Y-119723459D01*
X88584106Y-119887332D01*
X88584103Y-119887341D01*
X88549500Y-120061304D01*
X88549500Y-120238695D01*
X88584103Y-120412658D01*
X88584106Y-120412667D01*
X88651983Y-120576540D01*
X88651990Y-120576553D01*
X88750535Y-120724034D01*
X88750538Y-120724038D01*
X88875961Y-120849461D01*
X88875965Y-120849464D01*
X89023446Y-120948009D01*
X89023459Y-120948016D01*
X89089801Y-120975495D01*
X89187334Y-121015894D01*
X89187336Y-121015894D01*
X89187341Y-121015896D01*
X89361304Y-121050499D01*
X89361307Y-121050500D01*
X89361309Y-121050500D01*
X89538693Y-121050500D01*
X89538694Y-121050499D01*
X89596682Y-121038964D01*
X89712658Y-121015896D01*
X89712661Y-121015894D01*
X89712666Y-121015894D01*
X89876547Y-120948013D01*
X89876550Y-120948010D01*
X89876552Y-120948010D01*
X89916378Y-120921399D01*
X89983055Y-120900520D01*
X89985270Y-120900500D01*
X96473920Y-120900500D01*
X96576674Y-120880060D01*
X96618913Y-120871658D01*
X96755495Y-120815084D01*
X96804729Y-120782186D01*
X96828040Y-120766611D01*
X96847568Y-120753564D01*
X96858296Y-120746396D01*
X96924974Y-120725519D01*
X96927185Y-120725499D01*
X97350002Y-120725499D01*
X97350008Y-120725499D01*
X97452797Y-120714999D01*
X97619334Y-120659814D01*
X97768656Y-120567712D01*
X97892712Y-120443656D01*
X97894752Y-120440347D01*
X97896745Y-120438555D01*
X97897193Y-120437989D01*
X97897289Y-120438065D01*
X97946694Y-120393623D01*
X98015656Y-120382395D01*
X98079740Y-120410234D01*
X98105829Y-120440339D01*
X98107681Y-120443341D01*
X98107683Y-120443344D01*
X98231654Y-120567315D01*
X98380875Y-120659356D01*
X98380880Y-120659358D01*
X98547302Y-120714505D01*
X98547309Y-120714506D01*
X98650019Y-120724999D01*
X98699999Y-120724998D01*
X98700000Y-120724998D01*
X98700000Y-119624000D01*
X98719685Y-119556961D01*
X98772489Y-119511206D01*
X98824000Y-119500000D01*
X99076000Y-119500000D01*
X99143039Y-119519685D01*
X99188794Y-119572489D01*
X99200000Y-119624000D01*
X99200000Y-120724999D01*
X99249972Y-120724999D01*
X99249986Y-120724998D01*
X99352697Y-120714505D01*
X99519119Y-120659358D01*
X99519124Y-120659356D01*
X99668345Y-120567315D01*
X99792315Y-120443345D01*
X99884356Y-120294124D01*
X99884358Y-120294119D01*
X99939505Y-120127697D01*
X99939506Y-120127690D01*
X99949999Y-120024986D01*
X99949999Y-119819999D01*
X100680000Y-119819999D01*
X100680000Y-119917844D01*
X100686401Y-119977372D01*
X100686403Y-119977379D01*
X100736645Y-120112086D01*
X100736649Y-120112093D01*
X100822809Y-120227187D01*
X100822812Y-120227190D01*
X100937906Y-120313350D01*
X100937913Y-120313354D01*
X101072620Y-120363596D01*
X101072627Y-120363598D01*
X101132155Y-120369999D01*
X101132172Y-120370000D01*
X101225076Y-120370000D01*
X101292115Y-120389685D01*
X101292469Y-120390000D01*
X101655000Y-120390000D01*
X101655000Y-119820000D01*
X100744183Y-119820000D01*
X100693793Y-119805203D01*
X100688404Y-119811595D01*
X100680000Y-119819999D01*
X99949999Y-119819999D01*
X99949999Y-119632455D01*
X99969683Y-119565416D01*
X100022487Y-119519661D01*
X100091646Y-119509717D01*
X100121449Y-119517893D01*
X100237334Y-119565894D01*
X100237336Y-119565894D01*
X100237341Y-119565896D01*
X100411304Y-119600499D01*
X100411307Y-119600500D01*
X100594783Y-119600500D01*
X100594783Y-119601690D01*
X100653528Y-119612831D01*
X100709248Y-119577023D01*
X100719992Y-119574383D01*
X100762658Y-119565896D01*
X100762661Y-119565894D01*
X100762666Y-119565894D01*
X100849470Y-119529939D01*
X100857646Y-119528312D01*
X100861987Y-119525523D01*
X100896922Y-119520500D01*
X100933271Y-119520500D01*
X100976604Y-119528318D01*
X101072517Y-119564091D01*
X101072516Y-119564091D01*
X101079444Y-119564835D01*
X101132127Y-119570500D01*
X102031001Y-119570499D01*
X102098039Y-119590183D01*
X102143794Y-119642987D01*
X102155000Y-119694499D01*
X102155000Y-120360230D01*
X102154204Y-120360444D01*
X102085795Y-120399940D01*
X102029940Y-120455795D01*
X101990444Y-120524204D01*
X101970000Y-120600504D01*
X101970000Y-120679496D01*
X101990444Y-120755796D01*
X102029940Y-120824205D01*
X102085795Y-120880060D01*
X102103012Y-120890000D01*
X101300138Y-120890000D01*
X101308430Y-120931690D01*
X101308430Y-120931692D01*
X101383807Y-121113671D01*
X101383814Y-121113684D01*
X101493248Y-121277462D01*
X101493251Y-121277466D01*
X101632533Y-121416748D01*
X101632537Y-121416751D01*
X101796315Y-121526185D01*
X101796328Y-121526192D01*
X101978306Y-121601569D01*
X101978318Y-121601572D01*
X102171504Y-121639999D01*
X102171508Y-121640000D01*
X102570000Y-121640000D01*
X102570000Y-120940000D01*
X103070000Y-120940000D01*
X103070000Y-121640000D01*
X103468492Y-121640000D01*
X103468495Y-121639999D01*
X103661681Y-121601572D01*
X103661693Y-121601569D01*
X103843671Y-121526192D01*
X103843684Y-121526185D01*
X104007462Y-121416751D01*
X104007466Y-121416748D01*
X104146748Y-121277466D01*
X104146751Y-121277462D01*
X104256185Y-121113684D01*
X104256192Y-121113671D01*
X104331569Y-120931692D01*
X104331569Y-120931690D01*
X104339862Y-120890000D01*
X103536988Y-120890000D01*
X103554205Y-120880060D01*
X103610060Y-120824205D01*
X103649556Y-120755796D01*
X103670000Y-120679496D01*
X103670000Y-120600504D01*
X103649556Y-120524204D01*
X103610060Y-120455795D01*
X103554205Y-120399940D01*
X103536988Y-120390000D01*
X104339862Y-120390000D01*
X105730138Y-120390000D01*
X106533012Y-120390000D01*
X106515795Y-120399940D01*
X106459940Y-120455795D01*
X106420444Y-120524204D01*
X106400000Y-120600504D01*
X106400000Y-120679496D01*
X106420444Y-120755796D01*
X106459940Y-120824205D01*
X106515795Y-120880060D01*
X106533012Y-120890000D01*
X105730138Y-120890000D01*
X105738430Y-120931690D01*
X105738430Y-120931692D01*
X105813807Y-121113671D01*
X105813814Y-121113684D01*
X105923248Y-121277462D01*
X105923251Y-121277466D01*
X106062533Y-121416748D01*
X106062537Y-121416751D01*
X106226315Y-121526185D01*
X106226328Y-121526192D01*
X106408306Y-121601569D01*
X106408318Y-121601572D01*
X106601504Y-121639999D01*
X106601508Y-121640000D01*
X106750000Y-121640000D01*
X106750000Y-120940000D01*
X107250000Y-120940000D01*
X107250000Y-121640000D01*
X107398492Y-121640000D01*
X107398495Y-121639999D01*
X107591681Y-121601572D01*
X107591693Y-121601569D01*
X107773671Y-121526192D01*
X107773684Y-121526185D01*
X107937462Y-121416751D01*
X107937466Y-121416748D01*
X108076748Y-121277466D01*
X108076751Y-121277462D01*
X108186185Y-121113684D01*
X108186192Y-121113671D01*
X108261569Y-120931692D01*
X108261569Y-120931690D01*
X108269862Y-120890000D01*
X107466988Y-120890000D01*
X107484205Y-120880060D01*
X107540060Y-120824205D01*
X107579556Y-120755796D01*
X107600000Y-120679496D01*
X107600000Y-120600504D01*
X107579556Y-120524204D01*
X107540060Y-120455795D01*
X107484205Y-120399940D01*
X107466988Y-120390000D01*
X108269862Y-120390000D01*
X108261569Y-120348309D01*
X108261569Y-120348307D01*
X108186192Y-120166328D01*
X108186185Y-120166315D01*
X108076751Y-120002537D01*
X108076748Y-120002533D01*
X107937466Y-119863251D01*
X107937462Y-119863248D01*
X107773684Y-119753814D01*
X107773671Y-119753807D01*
X107591693Y-119678430D01*
X107591681Y-119678427D01*
X107398495Y-119640000D01*
X107250000Y-119640000D01*
X107250000Y-120340000D01*
X106750000Y-120340000D01*
X106750000Y-119640000D01*
X106601504Y-119640000D01*
X106408318Y-119678427D01*
X106408306Y-119678430D01*
X106226328Y-119753807D01*
X106226315Y-119753814D01*
X106062537Y-119863248D01*
X106062533Y-119863251D01*
X105923251Y-120002533D01*
X105923248Y-120002537D01*
X105813814Y-120166315D01*
X105813807Y-120166328D01*
X105738430Y-120348307D01*
X105738430Y-120348309D01*
X105730138Y-120390000D01*
X104339862Y-120390000D01*
X104331569Y-120348309D01*
X104331569Y-120348307D01*
X104256192Y-120166328D01*
X104256185Y-120166315D01*
X104146751Y-120002537D01*
X104146748Y-120002533D01*
X104007466Y-119863251D01*
X104007462Y-119863248D01*
X103838613Y-119750426D01*
X103839568Y-119748996D01*
X103795568Y-119705777D01*
X103780105Y-119637640D01*
X103803934Y-119571960D01*
X103805702Y-119569913D01*
X103805568Y-119569811D01*
X103810507Y-119563372D01*
X103810515Y-119563365D01*
X103886281Y-119432135D01*
X103925500Y-119285766D01*
X103925500Y-119134234D01*
X103904696Y-119056591D01*
X103906359Y-118986743D01*
X103945522Y-118928881D01*
X104009750Y-118901377D01*
X104024471Y-118900500D01*
X104375639Y-118900500D01*
X104442678Y-118920185D01*
X104463315Y-118936814D01*
X104501484Y-118974983D01*
X104525966Y-118999465D01*
X104673446Y-119098009D01*
X104673459Y-119098016D01*
X104760899Y-119134234D01*
X104837334Y-119165894D01*
X104837336Y-119165894D01*
X104837341Y-119165896D01*
X105011304Y-119200499D01*
X105011307Y-119200500D01*
X105011309Y-119200500D01*
X105188693Y-119200500D01*
X105188694Y-119200499D01*
X105246682Y-119188964D01*
X105362658Y-119165896D01*
X105362661Y-119165894D01*
X105362666Y-119165894D01*
X105526547Y-119098013D01*
X105674035Y-118999464D01*
X105799464Y-118874035D01*
X105898013Y-118726547D01*
X105965894Y-118562666D01*
X105968414Y-118550000D01*
X106000499Y-118388695D01*
X106000500Y-118388693D01*
X106000500Y-118211306D01*
X106000499Y-118211304D01*
X105965896Y-118037341D01*
X105965893Y-118037332D01*
X105898016Y-117873459D01*
X105898009Y-117873446D01*
X105799464Y-117725965D01*
X105799461Y-117725961D01*
X105674038Y-117600538D01*
X105674034Y-117600535D01*
X105526553Y-117501990D01*
X105526540Y-117501983D01*
X105362667Y-117434106D01*
X105362658Y-117434103D01*
X105188694Y-117399500D01*
X105188691Y-117399500D01*
X105011309Y-117399500D01*
X105011306Y-117399500D01*
X104837341Y-117434103D01*
X104837332Y-117434106D01*
X104673459Y-117501983D01*
X104673446Y-117501990D01*
X104525966Y-117600534D01*
X104494643Y-117631857D01*
X104463318Y-117663182D01*
X104401998Y-117696666D01*
X104375639Y-117699500D01*
X104100097Y-117699500D01*
X104033058Y-117679815D01*
X104012416Y-117663181D01*
X103623450Y-117274215D01*
X103589965Y-117212892D01*
X103594949Y-117143200D01*
X103636821Y-117087267D01*
X103649126Y-117079150D01*
X103698716Y-117050520D01*
X103810520Y-116938716D01*
X103810520Y-116938714D01*
X103820723Y-116928512D01*
X103820727Y-116928506D01*
X103858506Y-116890728D01*
X103858511Y-116890724D01*
X103868714Y-116880520D01*
X103868716Y-116880520D01*
X103980520Y-116768716D01*
X104058894Y-116632968D01*
X104058903Y-116632953D01*
X104059576Y-116631787D01*
X104060426Y-116628615D01*
X104100500Y-116479058D01*
X104100500Y-116320943D01*
X104100500Y-115720943D01*
X104086506Y-115668716D01*
X104059577Y-115568215D01*
X104030639Y-115518095D01*
X103980520Y-115431284D01*
X103868716Y-115319480D01*
X103868715Y-115319479D01*
X103864385Y-115315149D01*
X103864374Y-115315139D01*
X103757590Y-115208355D01*
X103757588Y-115208352D01*
X103738359Y-115189123D01*
X103704874Y-115127800D01*
X103709858Y-115058108D01*
X103751730Y-115002175D01*
X103764042Y-114994054D01*
X103837716Y-114951520D01*
X103949520Y-114839716D01*
X103949520Y-114839714D01*
X103959728Y-114829507D01*
X103959729Y-114829504D01*
X104272365Y-114516869D01*
X104333687Y-114483385D01*
X104403379Y-114488369D01*
X104428934Y-114501448D01*
X104573453Y-114598013D01*
X104573455Y-114598014D01*
X104573459Y-114598016D01*
X104696363Y-114648923D01*
X104737334Y-114665894D01*
X104737336Y-114665894D01*
X104737341Y-114665896D01*
X104911304Y-114700499D01*
X104911307Y-114700500D01*
X104911309Y-114700500D01*
X105088693Y-114700500D01*
X105088694Y-114700499D01*
X105180530Y-114682232D01*
X105262658Y-114665896D01*
X105262661Y-114665894D01*
X105262666Y-114665894D01*
X105405990Y-114606528D01*
X105426540Y-114598016D01*
X105426540Y-114598015D01*
X105426547Y-114598013D01*
X105574035Y-114499464D01*
X105699464Y-114374035D01*
X105798013Y-114226547D01*
X105865894Y-114062666D01*
X105865928Y-114062499D01*
X105900499Y-113888695D01*
X105900500Y-113888693D01*
X105900500Y-113711306D01*
X105900499Y-113711304D01*
X105865896Y-113537341D01*
X105865893Y-113537332D01*
X105798016Y-113373459D01*
X105798009Y-113373446D01*
X105699464Y-113225965D01*
X105699461Y-113225961D01*
X105574038Y-113100538D01*
X105574034Y-113100535D01*
X105426553Y-113001990D01*
X105426540Y-113001983D01*
X105262667Y-112934106D01*
X105262658Y-112934103D01*
X105088694Y-112899500D01*
X105088691Y-112899500D01*
X104911309Y-112899500D01*
X104911306Y-112899500D01*
X104737341Y-112934103D01*
X104737332Y-112934106D01*
X104573459Y-113001983D01*
X104573446Y-113001990D01*
X104425966Y-113100534D01*
X104403816Y-113122685D01*
X104363318Y-113163182D01*
X104301998Y-113196666D01*
X104275639Y-113199500D01*
X104060937Y-113199500D01*
X103997402Y-113216524D01*
X103970645Y-113215886D01*
X103944046Y-113218912D01*
X103936245Y-113215067D01*
X103927553Y-113214860D01*
X103905387Y-113199857D01*
X103881375Y-113188022D01*
X103873645Y-113178373D01*
X103869691Y-113175697D01*
X103859061Y-113160677D01*
X103858464Y-113159685D01*
X103810515Y-113076635D01*
X103805443Y-113071563D01*
X103797613Y-113058549D01*
X103792455Y-113038850D01*
X103782697Y-113020979D01*
X103783786Y-113005739D01*
X103779917Y-112990958D01*
X103786228Y-112971598D01*
X103787681Y-112951287D01*
X103796838Y-112939054D01*
X103801574Y-112924529D01*
X103817350Y-112911654D01*
X103829553Y-112895354D01*
X103838620Y-112889585D01*
X103838613Y-112889574D01*
X104007462Y-112776751D01*
X104007466Y-112776748D01*
X104146748Y-112637466D01*
X104146751Y-112637462D01*
X104256185Y-112473684D01*
X104256192Y-112473671D01*
X104331569Y-112291692D01*
X104331569Y-112291690D01*
X104339862Y-112250000D01*
X103536988Y-112250000D01*
X103554205Y-112240060D01*
X103610060Y-112184205D01*
X103649556Y-112115796D01*
X103670000Y-112039496D01*
X103670000Y-111960504D01*
X103649556Y-111884204D01*
X103610060Y-111815795D01*
X103554205Y-111759940D01*
X103536988Y-111750000D01*
X104339862Y-111750000D01*
X105730138Y-111750000D01*
X106533012Y-111750000D01*
X106515795Y-111759940D01*
X106459940Y-111815795D01*
X106420444Y-111884204D01*
X106400000Y-111960504D01*
X106400000Y-112039496D01*
X106420444Y-112115796D01*
X106459940Y-112184205D01*
X106515795Y-112240060D01*
X106533012Y-112250000D01*
X105730138Y-112250000D01*
X105738430Y-112291690D01*
X105738430Y-112291692D01*
X105813807Y-112473671D01*
X105813814Y-112473684D01*
X105923248Y-112637462D01*
X105923251Y-112637466D01*
X106062533Y-112776748D01*
X106062537Y-112776751D01*
X106226315Y-112886185D01*
X106226328Y-112886192D01*
X106408306Y-112961569D01*
X106408318Y-112961572D01*
X106601504Y-112999999D01*
X106601508Y-113000000D01*
X106750000Y-113000000D01*
X106750000Y-112300000D01*
X107250000Y-112300000D01*
X107250000Y-113000000D01*
X107398492Y-113000000D01*
X107398495Y-112999999D01*
X107591681Y-112961572D01*
X107591693Y-112961569D01*
X107773671Y-112886192D01*
X107773684Y-112886185D01*
X107937462Y-112776751D01*
X107937466Y-112776748D01*
X108076748Y-112637466D01*
X108076751Y-112637462D01*
X108186185Y-112473684D01*
X108186192Y-112473671D01*
X108261569Y-112291692D01*
X108261569Y-112291690D01*
X108269862Y-112250000D01*
X107466988Y-112250000D01*
X107484205Y-112240060D01*
X107540060Y-112184205D01*
X107579556Y-112115796D01*
X107600000Y-112039496D01*
X107600000Y-111960504D01*
X107579556Y-111884204D01*
X107540060Y-111815795D01*
X107484205Y-111759940D01*
X107466988Y-111750000D01*
X108269862Y-111750000D01*
X108261569Y-111708309D01*
X108261569Y-111708307D01*
X108186192Y-111526328D01*
X108186185Y-111526315D01*
X108076751Y-111362537D01*
X108076748Y-111362533D01*
X107937466Y-111223251D01*
X107937462Y-111223248D01*
X107773684Y-111113814D01*
X107773671Y-111113807D01*
X107591693Y-111038430D01*
X107591681Y-111038427D01*
X107398495Y-111000000D01*
X107250000Y-111000000D01*
X107250000Y-111700000D01*
X106750000Y-111700000D01*
X106750000Y-111000000D01*
X106601504Y-111000000D01*
X106408318Y-111038427D01*
X106408306Y-111038430D01*
X106226328Y-111113807D01*
X106226315Y-111113814D01*
X106062537Y-111223248D01*
X106062533Y-111223251D01*
X105923251Y-111362533D01*
X105923248Y-111362537D01*
X105813814Y-111526315D01*
X105813807Y-111526328D01*
X105738430Y-111708307D01*
X105738430Y-111708309D01*
X105730138Y-111750000D01*
X104339862Y-111750000D01*
X104331569Y-111708309D01*
X104331569Y-111708307D01*
X104256192Y-111526328D01*
X104256185Y-111526315D01*
X104146751Y-111362537D01*
X104146748Y-111362533D01*
X104007466Y-111223251D01*
X104007462Y-111223248D01*
X103843684Y-111113814D01*
X103843671Y-111113807D01*
X103661693Y-111038430D01*
X103661681Y-111038427D01*
X103468495Y-111000000D01*
X103070000Y-111000000D01*
X103070000Y-111700000D01*
X102570000Y-111700000D01*
X102570000Y-111000000D01*
X102171504Y-111000000D01*
X101978318Y-111038427D01*
X101978306Y-111038430D01*
X101796328Y-111113807D01*
X101796315Y-111113814D01*
X101632537Y-111223248D01*
X101632533Y-111223251D01*
X101493251Y-111362533D01*
X101493248Y-111362537D01*
X101383814Y-111526315D01*
X101383807Y-111526328D01*
X101308430Y-111708307D01*
X101308430Y-111708309D01*
X101300138Y-111750000D01*
X102103012Y-111750000D01*
X102085795Y-111759940D01*
X102029940Y-111815795D01*
X101990444Y-111884204D01*
X101970000Y-111960504D01*
X101970000Y-112039496D01*
X101990444Y-112115796D01*
X102029940Y-112184205D01*
X102085795Y-112240060D01*
X102103012Y-112250000D01*
X101283735Y-112250000D01*
X101263182Y-112264000D01*
X101225076Y-112270000D01*
X101132155Y-112270000D01*
X101072627Y-112276401D01*
X101072620Y-112276403D01*
X100937913Y-112326645D01*
X100937906Y-112326649D01*
X100822812Y-112412809D01*
X100822809Y-112412812D01*
X100736649Y-112527906D01*
X100736645Y-112527913D01*
X100686403Y-112662620D01*
X100686401Y-112662627D01*
X100680000Y-112722155D01*
X100680000Y-112845500D01*
X100677449Y-112854185D01*
X100678738Y-112863147D01*
X100667759Y-112887187D01*
X100660315Y-112912539D01*
X100653474Y-112918466D01*
X100649713Y-112926703D01*
X100627478Y-112940992D01*
X100607511Y-112958294D01*
X100596996Y-112960581D01*
X100590935Y-112964477D01*
X100556000Y-112969500D01*
X100406774Y-112969500D01*
X100339735Y-112949815D01*
X100293980Y-112897011D01*
X100284036Y-112827853D01*
X100289068Y-112806496D01*
X100297290Y-112781684D01*
X100339999Y-112652797D01*
X100350500Y-112550009D01*
X100350499Y-111849992D01*
X100339999Y-111747203D01*
X100284814Y-111580666D01*
X100192712Y-111431344D01*
X100068656Y-111307288D01*
X99919334Y-111215186D01*
X99752797Y-111160001D01*
X99752795Y-111160000D01*
X99650010Y-111149500D01*
X98949998Y-111149500D01*
X98949980Y-111149501D01*
X98847203Y-111160000D01*
X98847200Y-111160001D01*
X98680668Y-111215185D01*
X98680663Y-111215187D01*
X98531342Y-111307289D01*
X98407289Y-111431342D01*
X98315187Y-111580663D01*
X98315185Y-111580668D01*
X98296159Y-111638086D01*
X98260001Y-111747203D01*
X98260001Y-111747204D01*
X98260000Y-111747204D01*
X98249500Y-111849983D01*
X98249500Y-112550001D01*
X98249501Y-112550019D01*
X98260000Y-112652796D01*
X98260001Y-112652799D01*
X98315185Y-112819331D01*
X98315187Y-112819336D01*
X98331325Y-112845500D01*
X98404710Y-112964477D01*
X98407289Y-112968657D01*
X98513181Y-113074549D01*
X98546666Y-113135872D01*
X98549500Y-113162230D01*
X98549500Y-113473918D01*
X98549500Y-113473920D01*
X98549499Y-113473920D01*
X98578340Y-113618907D01*
X98578343Y-113618917D01*
X98634914Y-113755491D01*
X98634916Y-113755495D01*
X98653075Y-113782672D01*
X98662034Y-113796081D01*
X98717049Y-113878418D01*
X98717052Y-113878421D01*
X99176452Y-114337819D01*
X99209937Y-114399142D01*
X99204953Y-114468833D01*
X99163082Y-114524767D01*
X99097617Y-114549184D01*
X99088771Y-114549500D01*
X98350500Y-114549500D01*
X98283461Y-114529815D01*
X98237706Y-114477011D01*
X98226500Y-114425500D01*
X98226500Y-114102079D01*
X98197659Y-113957092D01*
X98197658Y-113957091D01*
X98197658Y-113957087D01*
X98169329Y-113888695D01*
X98141087Y-113820511D01*
X98141080Y-113820498D01*
X98058952Y-113697585D01*
X98039781Y-113678414D01*
X97954416Y-113593049D01*
X97438125Y-113076758D01*
X97404640Y-113015435D01*
X97409624Y-112945743D01*
X97420262Y-112923989D01*
X97484814Y-112819334D01*
X97539999Y-112652797D01*
X97550500Y-112550009D01*
X97550499Y-111862229D01*
X97570183Y-111795191D01*
X97586818Y-111774549D01*
X100682947Y-108678421D01*
X100682947Y-108678420D01*
X100682952Y-108678416D01*
X100735681Y-108599500D01*
X100765084Y-108555495D01*
X100821658Y-108418913D01*
X100850500Y-108273918D01*
X100850500Y-108251298D01*
X101299500Y-108251298D01*
X101299500Y-109048703D01*
X101314696Y-109164142D01*
X101314699Y-109164151D01*
X101374093Y-109307541D01*
X101374200Y-109307798D01*
X101468851Y-109431149D01*
X101592202Y-109525800D01*
X101735849Y-109585301D01*
X101851299Y-109600500D01*
X103248700Y-109600499D01*
X103248703Y-109600499D01*
X103364142Y-109585303D01*
X103364146Y-109585301D01*
X103364151Y-109585301D01*
X103507798Y-109525800D01*
X103631149Y-109431149D01*
X103725800Y-109307798D01*
X103785301Y-109164151D01*
X103800500Y-109048701D01*
X103800500Y-109048670D01*
X106200000Y-109048670D01*
X106215185Y-109164019D01*
X106215187Y-109164024D01*
X106274633Y-109307541D01*
X106274633Y-109307542D01*
X106369207Y-109430792D01*
X106492458Y-109525366D01*
X106635975Y-109584812D01*
X106635980Y-109584814D01*
X106751329Y-109600000D01*
X107200000Y-109600000D01*
X107700000Y-109600000D01*
X108148671Y-109600000D01*
X108264019Y-109584814D01*
X108264024Y-109584812D01*
X108407541Y-109525366D01*
X108407542Y-109525366D01*
X108530792Y-109430792D01*
X108625366Y-109307542D01*
X108625366Y-109307541D01*
X108684812Y-109164024D01*
X108684814Y-109164019D01*
X108700000Y-109048670D01*
X108700000Y-108900000D01*
X107700000Y-108900000D01*
X107700000Y-109600000D01*
X107200000Y-109600000D01*
X107200000Y-108900000D01*
X106200000Y-108900000D01*
X106200000Y-109048670D01*
X103800500Y-109048670D01*
X103800499Y-108601990D01*
X103800499Y-108251329D01*
X106200000Y-108251329D01*
X106200000Y-108400000D01*
X107200000Y-108400000D01*
X107700000Y-108400000D01*
X108700000Y-108400000D01*
X108700000Y-108251329D01*
X108684814Y-108135980D01*
X108684812Y-108135975D01*
X108625366Y-107992458D01*
X108625366Y-107992457D01*
X108530792Y-107869207D01*
X108407541Y-107774633D01*
X108264024Y-107715187D01*
X108264019Y-107715185D01*
X108148671Y-107700000D01*
X107700000Y-107700000D01*
X107700000Y-108400000D01*
X107200000Y-108400000D01*
X107200000Y-107700000D01*
X106751329Y-107700000D01*
X106635980Y-107715185D01*
X106635975Y-107715187D01*
X106492458Y-107774633D01*
X106492457Y-107774633D01*
X106369207Y-107869207D01*
X106274633Y-107992457D01*
X106274633Y-107992458D01*
X106215187Y-108135975D01*
X106215185Y-108135980D01*
X106200000Y-108251329D01*
X103800499Y-108251329D01*
X103800499Y-108251296D01*
X103785303Y-108135857D01*
X103785301Y-108135850D01*
X103785301Y-108135849D01*
X103725800Y-107992202D01*
X103631149Y-107868851D01*
X103507798Y-107774200D01*
X103507794Y-107774198D01*
X103364151Y-107714699D01*
X103364149Y-107714698D01*
X103248701Y-107699500D01*
X101851296Y-107699500D01*
X101735857Y-107714696D01*
X101735848Y-107714699D01*
X101592205Y-107774198D01*
X101592202Y-107774199D01*
X101592202Y-107774200D01*
X101550494Y-107806204D01*
X101468851Y-107868851D01*
X101374198Y-107992205D01*
X101314699Y-108135848D01*
X101314698Y-108135850D01*
X101299500Y-108251298D01*
X100850500Y-108251298D01*
X100850500Y-106224500D01*
X100870185Y-106157461D01*
X100922989Y-106111706D01*
X100974500Y-106100500D01*
X101386840Y-106100500D01*
X101453879Y-106120185D01*
X101461999Y-106126728D01*
X101462404Y-106126201D01*
X101468849Y-106131146D01*
X101468851Y-106131149D01*
X101592202Y-106225800D01*
X101735849Y-106285301D01*
X101851299Y-106300500D01*
X103187768Y-106300499D01*
X103217202Y-106309142D01*
X103247192Y-106315665D01*
X103252210Y-106319421D01*
X103254807Y-106320184D01*
X103275447Y-106336815D01*
X103286439Y-106347807D01*
X103294182Y-106355549D01*
X103327669Y-106416872D01*
X103328120Y-106467424D01*
X103299500Y-106611304D01*
X103299500Y-106788695D01*
X103334103Y-106962658D01*
X103334106Y-106962667D01*
X103401983Y-107126540D01*
X103401990Y-107126553D01*
X103500535Y-107274034D01*
X103500538Y-107274038D01*
X103625961Y-107399461D01*
X103625965Y-107399464D01*
X103773446Y-107498009D01*
X103773459Y-107498016D01*
X103832406Y-107522432D01*
X103937334Y-107565894D01*
X103937336Y-107565894D01*
X103937341Y-107565896D01*
X104111304Y-107600499D01*
X104111307Y-107600500D01*
X104111309Y-107600500D01*
X104288693Y-107600500D01*
X104288694Y-107600499D01*
X104346682Y-107588964D01*
X104462658Y-107565896D01*
X104462661Y-107565894D01*
X104462666Y-107565894D01*
X104626547Y-107498013D01*
X104774035Y-107399464D01*
X104899464Y-107274035D01*
X104998013Y-107126547D01*
X105065894Y-106962666D01*
X105073078Y-106926553D01*
X105100499Y-106788695D01*
X105100500Y-106788693D01*
X105100500Y-106611306D01*
X105100499Y-106611304D01*
X105065896Y-106437341D01*
X105065893Y-106437332D01*
X105053633Y-106407733D01*
X104998013Y-106273453D01*
X104998011Y-106273451D01*
X104998011Y-106273449D01*
X104971398Y-106233620D01*
X104950520Y-106166942D01*
X104950500Y-106164729D01*
X104950500Y-106126079D01*
X104921659Y-105981092D01*
X104921658Y-105981091D01*
X104921658Y-105981087D01*
X104911527Y-105956628D01*
X104865087Y-105844511D01*
X104865080Y-105844498D01*
X104782952Y-105721585D01*
X104759376Y-105698009D01*
X104682951Y-105621584D01*
X104578416Y-105517048D01*
X104578413Y-105517046D01*
X104387907Y-105326540D01*
X103828421Y-104767052D01*
X103828414Y-104767046D01*
X103754730Y-104717813D01*
X103752714Y-104716466D01*
X103723230Y-104688853D01*
X103631149Y-104568851D01*
X103507798Y-104474200D01*
X103507794Y-104474198D01*
X103364151Y-104414699D01*
X103364149Y-104414698D01*
X103248701Y-104399500D01*
X101851296Y-104399500D01*
X101735857Y-104414696D01*
X101735848Y-104414699D01*
X101592205Y-104474198D01*
X101592202Y-104474199D01*
X101592202Y-104474200D01*
X101468851Y-104568851D01*
X101468849Y-104568853D01*
X101462404Y-104573799D01*
X101460240Y-104570978D01*
X101413198Y-104596666D01*
X101386840Y-104599500D01*
X100974500Y-104599500D01*
X100907461Y-104579815D01*
X100861706Y-104527011D01*
X100850500Y-104475500D01*
X100850500Y-100224500D01*
X100870185Y-100157461D01*
X100922989Y-100111706D01*
X100974500Y-100100500D01*
X101386840Y-100100500D01*
X101453879Y-100120185D01*
X101461999Y-100126728D01*
X101462404Y-100126201D01*
X101468849Y-100131146D01*
X101468851Y-100131149D01*
X101592202Y-100225800D01*
X101594020Y-100226553D01*
X101649783Y-100249651D01*
X101704186Y-100293492D01*
X101726251Y-100359786D01*
X101723947Y-100388403D01*
X101699500Y-100511304D01*
X101699500Y-100688695D01*
X101734103Y-100862658D01*
X101734106Y-100862667D01*
X101801983Y-101026540D01*
X101801990Y-101026553D01*
X101900535Y-101174034D01*
X101900538Y-101174038D01*
X102025961Y-101299461D01*
X102025965Y-101299464D01*
X102173446Y-101398009D01*
X102173450Y-101398011D01*
X102173453Y-101398013D01*
X102325377Y-101460941D01*
X102379776Y-101504779D01*
X102401842Y-101571073D01*
X102384563Y-101638772D01*
X102333427Y-101686383D01*
X102277921Y-101699500D01*
X101851296Y-101699500D01*
X101735857Y-101714696D01*
X101735848Y-101714699D01*
X101592205Y-101774198D01*
X101468851Y-101868851D01*
X101374198Y-101992205D01*
X101314699Y-102135848D01*
X101314698Y-102135850D01*
X101299500Y-102251298D01*
X101299500Y-103048703D01*
X101314696Y-103164142D01*
X101314699Y-103164151D01*
X101374093Y-103307541D01*
X101374200Y-103307798D01*
X101468851Y-103431149D01*
X101592202Y-103525800D01*
X101735849Y-103585301D01*
X101851299Y-103600500D01*
X103248700Y-103600499D01*
X103248703Y-103600499D01*
X103364142Y-103585303D01*
X103364146Y-103585301D01*
X103364151Y-103585301D01*
X103507798Y-103525800D01*
X103631149Y-103431149D01*
X103631150Y-103431146D01*
X103637596Y-103426201D01*
X103639759Y-103429021D01*
X103686802Y-103403334D01*
X103713160Y-103400500D01*
X104387770Y-103400500D01*
X104454809Y-103420185D01*
X104475451Y-103436819D01*
X106163181Y-105124548D01*
X106196666Y-105185871D01*
X106199500Y-105212229D01*
X106199500Y-105748703D01*
X106214696Y-105864142D01*
X106214699Y-105864151D01*
X106270746Y-105999461D01*
X106274200Y-106007798D01*
X106368851Y-106131149D01*
X106492202Y-106225800D01*
X106635849Y-106285301D01*
X106751299Y-106300500D01*
X108148700Y-106300499D01*
X108148703Y-106300499D01*
X108264142Y-106285303D01*
X108264146Y-106285301D01*
X108264151Y-106285301D01*
X108407798Y-106225800D01*
X108531149Y-106131149D01*
X108625800Y-106007798D01*
X108685301Y-105864151D01*
X108700500Y-105748701D01*
X108700499Y-104951300D01*
X108700499Y-104951296D01*
X108685303Y-104835857D01*
X108685301Y-104835852D01*
X108685301Y-104835849D01*
X108625800Y-104692202D01*
X108531149Y-104568851D01*
X108407798Y-104474200D01*
X108407794Y-104474198D01*
X108264151Y-104414699D01*
X108264149Y-104414698D01*
X108148702Y-104399500D01*
X108148701Y-104399500D01*
X107612229Y-104399500D01*
X107545190Y-104379815D01*
X107524548Y-104363181D01*
X106973048Y-103811681D01*
X106939563Y-103750358D01*
X106944547Y-103680666D01*
X106986419Y-103624733D01*
X107051883Y-103600316D01*
X107060729Y-103600000D01*
X107200000Y-103600000D01*
X107700000Y-103600000D01*
X108148671Y-103600000D01*
X108264019Y-103584814D01*
X108264024Y-103584812D01*
X108407541Y-103525366D01*
X108407542Y-103525366D01*
X108530792Y-103430792D01*
X108625366Y-103307542D01*
X108625366Y-103307541D01*
X108684812Y-103164024D01*
X108684814Y-103164019D01*
X108700000Y-103048670D01*
X108700000Y-102900000D01*
X107700000Y-102900000D01*
X107700000Y-103600000D01*
X107200000Y-103600000D01*
X107200000Y-102900000D01*
X106184731Y-102900000D01*
X106157039Y-102915120D01*
X106087347Y-102910134D01*
X106043003Y-102881634D01*
X105412698Y-102251329D01*
X106200000Y-102251329D01*
X106200000Y-102400000D01*
X107200000Y-102400000D01*
X107700000Y-102400000D01*
X108700000Y-102400000D01*
X108700000Y-102251329D01*
X108684814Y-102135980D01*
X108684812Y-102135975D01*
X108625366Y-101992458D01*
X108625366Y-101992457D01*
X108530792Y-101869207D01*
X108407541Y-101774633D01*
X108264024Y-101715187D01*
X108264019Y-101715185D01*
X108148671Y-101700000D01*
X107700000Y-101700000D01*
X107700000Y-102400000D01*
X107200000Y-102400000D01*
X107200000Y-101700000D01*
X106751329Y-101700000D01*
X106635980Y-101715185D01*
X106635975Y-101715187D01*
X106492458Y-101774633D01*
X106492457Y-101774633D01*
X106369207Y-101869207D01*
X106274633Y-101992457D01*
X106274633Y-101992458D01*
X106215187Y-102135975D01*
X106215185Y-102135980D01*
X106200000Y-102251329D01*
X105412698Y-102251329D01*
X105228421Y-102067052D01*
X105228414Y-102067046D01*
X105128818Y-102000499D01*
X105128817Y-102000499D01*
X105105495Y-101984916D01*
X105105488Y-101984912D01*
X104968917Y-101928343D01*
X104968907Y-101928340D01*
X104823920Y-101899500D01*
X104823918Y-101899500D01*
X103713160Y-101899500D01*
X103646121Y-101879815D01*
X103638000Y-101873271D01*
X103637596Y-101873799D01*
X103631150Y-101868853D01*
X103631149Y-101868851D01*
X103507798Y-101774200D01*
X103507794Y-101774198D01*
X103364151Y-101714699D01*
X103364149Y-101714698D01*
X103248702Y-101699500D01*
X102922079Y-101699500D01*
X102855040Y-101679815D01*
X102809285Y-101627011D01*
X102799341Y-101557853D01*
X102828366Y-101494297D01*
X102874621Y-101460941D01*
X103026547Y-101398013D01*
X103174035Y-101299464D01*
X103299464Y-101174035D01*
X103398013Y-101026547D01*
X103465894Y-100862666D01*
X103469759Y-100843239D01*
X103493149Y-100725645D01*
X103500500Y-100688691D01*
X103500500Y-100511309D01*
X103500500Y-100511306D01*
X103467238Y-100344092D01*
X103473465Y-100274500D01*
X103513366Y-100221526D01*
X103631149Y-100131149D01*
X103725800Y-100007798D01*
X103785301Y-99864151D01*
X103800500Y-99748701D01*
X103800499Y-98951300D01*
X103800499Y-98951296D01*
X103785303Y-98835857D01*
X103785301Y-98835852D01*
X103785301Y-98835849D01*
X103725800Y-98692202D01*
X103631149Y-98568851D01*
X103507798Y-98474200D01*
X103507794Y-98474198D01*
X103364151Y-98414699D01*
X103364149Y-98414698D01*
X103248701Y-98399500D01*
X101851296Y-98399500D01*
X101735857Y-98414696D01*
X101735848Y-98414699D01*
X101592205Y-98474198D01*
X101592202Y-98474199D01*
X101592202Y-98474200D01*
X101468851Y-98568851D01*
X101468849Y-98568853D01*
X101462404Y-98573799D01*
X101460240Y-98570978D01*
X101413198Y-98596666D01*
X101386840Y-98599500D01*
X100974500Y-98599500D01*
X100907461Y-98579815D01*
X100861706Y-98527011D01*
X100850500Y-98475500D01*
X100850500Y-96162229D01*
X100870185Y-96095190D01*
X100886819Y-96074548D01*
X101287333Y-95674034D01*
X101708300Y-95253066D01*
X101769621Y-95219583D01*
X101839312Y-95224567D01*
X101895246Y-95266439D01*
X101899081Y-95271858D01*
X101900535Y-95274034D01*
X101900538Y-95274038D01*
X102025961Y-95399461D01*
X102025965Y-95399464D01*
X102135118Y-95472398D01*
X102179923Y-95526010D01*
X102188630Y-95595335D01*
X102158476Y-95658362D01*
X102099033Y-95695082D01*
X102066228Y-95699500D01*
X101851296Y-95699500D01*
X101735857Y-95714696D01*
X101735848Y-95714699D01*
X101592205Y-95774198D01*
X101592202Y-95774199D01*
X101592202Y-95774200D01*
X101468851Y-95868851D01*
X101386276Y-95976465D01*
X101374198Y-95992205D01*
X101314699Y-96135848D01*
X101314698Y-96135850D01*
X101299500Y-96251298D01*
X101299500Y-97048703D01*
X101314696Y-97164142D01*
X101314699Y-97164151D01*
X101374093Y-97307541D01*
X101374200Y-97307798D01*
X101468851Y-97431149D01*
X101592202Y-97525800D01*
X101735849Y-97585301D01*
X101851299Y-97600500D01*
X103248700Y-97600499D01*
X103248703Y-97600499D01*
X103364142Y-97585303D01*
X103364146Y-97585301D01*
X103364151Y-97585301D01*
X103507798Y-97525800D01*
X103631149Y-97431149D01*
X103631150Y-97431146D01*
X103637596Y-97426201D01*
X103639759Y-97429021D01*
X103686802Y-97403334D01*
X103713160Y-97400500D01*
X104387770Y-97400500D01*
X104454809Y-97420185D01*
X104475451Y-97436819D01*
X106163181Y-99124548D01*
X106196666Y-99185871D01*
X106199500Y-99212229D01*
X106199500Y-99748703D01*
X106214696Y-99864142D01*
X106214699Y-99864151D01*
X106273925Y-100007136D01*
X106274200Y-100007798D01*
X106368851Y-100131149D01*
X106492202Y-100225800D01*
X106635849Y-100285301D01*
X106751299Y-100300500D01*
X108148700Y-100300499D01*
X108148703Y-100300499D01*
X108264142Y-100285303D01*
X108264146Y-100285301D01*
X108264151Y-100285301D01*
X108407798Y-100225800D01*
X108531149Y-100131149D01*
X108625800Y-100007798D01*
X108685301Y-99864151D01*
X108700500Y-99748701D01*
X108700499Y-98951300D01*
X108700499Y-98951296D01*
X108685303Y-98835857D01*
X108685301Y-98835852D01*
X108685301Y-98835849D01*
X108625800Y-98692202D01*
X108531149Y-98568851D01*
X108407798Y-98474200D01*
X108407794Y-98474198D01*
X108264151Y-98414699D01*
X108264149Y-98414698D01*
X108148702Y-98399500D01*
X108148701Y-98399500D01*
X107612229Y-98399500D01*
X107545190Y-98379815D01*
X107524548Y-98363181D01*
X106973048Y-97811681D01*
X106939563Y-97750358D01*
X106944547Y-97680666D01*
X106986419Y-97624733D01*
X107051883Y-97600316D01*
X107060729Y-97600000D01*
X107200000Y-97600000D01*
X107700000Y-97600000D01*
X108148671Y-97600000D01*
X108264019Y-97584814D01*
X108264024Y-97584812D01*
X108407541Y-97525366D01*
X108407542Y-97525366D01*
X108530792Y-97430792D01*
X108625366Y-97307542D01*
X108625366Y-97307541D01*
X108684812Y-97164024D01*
X108684814Y-97164019D01*
X108700000Y-97048670D01*
X108700000Y-96900000D01*
X107700000Y-96900000D01*
X107700000Y-97600000D01*
X107200000Y-97600000D01*
X107200000Y-96900000D01*
X106184731Y-96900000D01*
X106157039Y-96915120D01*
X106087347Y-96910134D01*
X106043003Y-96881634D01*
X105412698Y-96251329D01*
X106200000Y-96251329D01*
X106200000Y-96400000D01*
X107200000Y-96400000D01*
X107700000Y-96400000D01*
X108700000Y-96400000D01*
X108700000Y-96251329D01*
X108684814Y-96135980D01*
X108684812Y-96135975D01*
X108625366Y-95992458D01*
X108625366Y-95992457D01*
X108530792Y-95869207D01*
X108407541Y-95774633D01*
X108264024Y-95715187D01*
X108264019Y-95715185D01*
X108148671Y-95700000D01*
X107700000Y-95700000D01*
X107700000Y-96400000D01*
X107200000Y-96400000D01*
X107200000Y-95700000D01*
X106751329Y-95700000D01*
X106635980Y-95715185D01*
X106635975Y-95715187D01*
X106492458Y-95774633D01*
X106492457Y-95774633D01*
X106369207Y-95869207D01*
X106274633Y-95992457D01*
X106274633Y-95992458D01*
X106215187Y-96135975D01*
X106215185Y-96135980D01*
X106200000Y-96251329D01*
X105412698Y-96251329D01*
X105228421Y-96067052D01*
X105228414Y-96067046D01*
X105128818Y-96000499D01*
X105128817Y-96000499D01*
X105105495Y-95984916D01*
X105105488Y-95984912D01*
X104968917Y-95928343D01*
X104968907Y-95928340D01*
X104823920Y-95899500D01*
X104823918Y-95899500D01*
X103713160Y-95899500D01*
X103646121Y-95879815D01*
X103638000Y-95873271D01*
X103637596Y-95873799D01*
X103631150Y-95868853D01*
X103631149Y-95868851D01*
X103507798Y-95774200D01*
X103507794Y-95774198D01*
X103364151Y-95714699D01*
X103364149Y-95714698D01*
X103248702Y-95699500D01*
X103133774Y-95699500D01*
X103066735Y-95679815D01*
X103020980Y-95627011D01*
X103011036Y-95557853D01*
X103040061Y-95494297D01*
X103064883Y-95472398D01*
X103109965Y-95442274D01*
X103174035Y-95399464D01*
X103299464Y-95274035D01*
X103398013Y-95126547D01*
X103402931Y-95114675D01*
X103437884Y-95030289D01*
X103465894Y-94962666D01*
X103478755Y-94898013D01*
X103494231Y-94820205D01*
X103500500Y-94788691D01*
X103500500Y-94611309D01*
X103500500Y-94611306D01*
X103500499Y-94611304D01*
X103465896Y-94437341D01*
X103465894Y-94437336D01*
X103465894Y-94437334D01*
X103444693Y-94386151D01*
X103437225Y-94316686D01*
X103468500Y-94254207D01*
X103501561Y-94231253D01*
X103500759Y-94229864D01*
X103507793Y-94225802D01*
X103507792Y-94225802D01*
X103507798Y-94225800D01*
X103631149Y-94131149D01*
X103725800Y-94007798D01*
X103785301Y-93864151D01*
X103800500Y-93748701D01*
X103800499Y-92951300D01*
X103800499Y-92951298D01*
X106199500Y-92951298D01*
X106199500Y-93748703D01*
X106214696Y-93864142D01*
X106214699Y-93864151D01*
X106270039Y-93997754D01*
X106274200Y-94007798D01*
X106368851Y-94131149D01*
X106492202Y-94225800D01*
X106635849Y-94285301D01*
X106751299Y-94300500D01*
X108148700Y-94300499D01*
X108148703Y-94300499D01*
X108264142Y-94285303D01*
X108264146Y-94285301D01*
X108264151Y-94285301D01*
X108407798Y-94225800D01*
X108531149Y-94131149D01*
X108625800Y-94007798D01*
X108685301Y-93864151D01*
X108700500Y-93748701D01*
X108700499Y-92951300D01*
X108700499Y-92951298D01*
X108700499Y-92951296D01*
X108685303Y-92835857D01*
X108685301Y-92835850D01*
X108685301Y-92835849D01*
X108625800Y-92692202D01*
X108531149Y-92568851D01*
X108407798Y-92474200D01*
X108407794Y-92474198D01*
X108264151Y-92414699D01*
X108264149Y-92414698D01*
X108232195Y-92410492D01*
X108168298Y-92382225D01*
X108129827Y-92323901D01*
X108128996Y-92254036D01*
X108133813Y-92240116D01*
X108165894Y-92162666D01*
X108170932Y-92137341D01*
X108197828Y-92002123D01*
X108200500Y-91988691D01*
X108200500Y-91811309D01*
X108200500Y-91811306D01*
X108200499Y-91811304D01*
X108165896Y-91637341D01*
X108165893Y-91637332D01*
X108098016Y-91473459D01*
X108098009Y-91473446D01*
X107999464Y-91325965D01*
X107999461Y-91325961D01*
X107874038Y-91200538D01*
X107874034Y-91200535D01*
X107726553Y-91101990D01*
X107726540Y-91101983D01*
X107562667Y-91034106D01*
X107562658Y-91034103D01*
X107388694Y-90999500D01*
X107388691Y-90999500D01*
X107211309Y-90999500D01*
X107211306Y-90999500D01*
X107037341Y-91034103D01*
X107037332Y-91034106D01*
X106873459Y-91101983D01*
X106873446Y-91101990D01*
X106725965Y-91200535D01*
X106725961Y-91200538D01*
X106600538Y-91325961D01*
X106600535Y-91325965D01*
X106501990Y-91473446D01*
X106501983Y-91473459D01*
X106434106Y-91637332D01*
X106434103Y-91637341D01*
X106399500Y-91811304D01*
X106399500Y-91988695D01*
X106434103Y-92162658D01*
X106434106Y-92162667D01*
X106501984Y-92326542D01*
X106504856Y-92331914D01*
X106502642Y-92333097D01*
X106520245Y-92389282D01*
X106501771Y-92456666D01*
X106471752Y-92489891D01*
X106368853Y-92568849D01*
X106368852Y-92568850D01*
X106368851Y-92568851D01*
X106295007Y-92665086D01*
X106274198Y-92692205D01*
X106214699Y-92835848D01*
X106214698Y-92835850D01*
X106199500Y-92951298D01*
X103800499Y-92951298D01*
X103800499Y-92951296D01*
X103785303Y-92835857D01*
X103785301Y-92835850D01*
X103785301Y-92835849D01*
X103725800Y-92692202D01*
X103631149Y-92568851D01*
X103507798Y-92474200D01*
X103507794Y-92474198D01*
X103364151Y-92414699D01*
X103364149Y-92414698D01*
X103248701Y-92399500D01*
X101851296Y-92399500D01*
X101735857Y-92414696D01*
X101735848Y-92414699D01*
X101592205Y-92474198D01*
X101592202Y-92474199D01*
X101592202Y-92474200D01*
X101468851Y-92568851D01*
X101395009Y-92665084D01*
X101374198Y-92692205D01*
X101314699Y-92835848D01*
X101314698Y-92835850D01*
X101299500Y-92951298D01*
X101299500Y-93487769D01*
X101279815Y-93554808D01*
X101263181Y-93575450D01*
X99517048Y-95321583D01*
X99497457Y-95350904D01*
X99477996Y-95380031D01*
X99434914Y-95444507D01*
X99378343Y-95581082D01*
X99378340Y-95581092D01*
X99349500Y-95726079D01*
X99349500Y-107837769D01*
X99329815Y-107904808D01*
X99313181Y-107925450D01*
X96113093Y-111125537D01*
X96051770Y-111159022D01*
X96051377Y-111159107D01*
X96047207Y-111159999D01*
X95880668Y-111215185D01*
X95880663Y-111215187D01*
X95731342Y-111307289D01*
X95607289Y-111431342D01*
X95515187Y-111580663D01*
X95515185Y-111580668D01*
X95496159Y-111638086D01*
X95460001Y-111747203D01*
X95460001Y-111747204D01*
X95460000Y-111747204D01*
X95449500Y-111849983D01*
X95449500Y-112550001D01*
X95449501Y-112550019D01*
X95460000Y-112652796D01*
X95460001Y-112652799D01*
X95515185Y-112819331D01*
X95515187Y-112819336D01*
X95531325Y-112845500D01*
X95604710Y-112964477D01*
X95607289Y-112968657D01*
X95713181Y-113074549D01*
X95746666Y-113135872D01*
X95749500Y-113162230D01*
X95749500Y-113273918D01*
X95749500Y-113273920D01*
X95749499Y-113273920D01*
X95778340Y-113418907D01*
X95778343Y-113418917D01*
X95834913Y-113555490D01*
X95834914Y-113555491D01*
X95834916Y-113555495D01*
X95843415Y-113568214D01*
X95843416Y-113568217D01*
X95917046Y-113678414D01*
X95917052Y-113678421D01*
X96576452Y-114337819D01*
X96609937Y-114399142D01*
X96604953Y-114468833D01*
X96563082Y-114524767D01*
X96497617Y-114549184D01*
X96488771Y-114549500D01*
X95784298Y-114549500D01*
X95747432Y-114552401D01*
X95747426Y-114552402D01*
X95589606Y-114598254D01*
X95589603Y-114598255D01*
X95447605Y-114682232D01*
X95384484Y-114699500D01*
X93170940Y-114699500D01*
X93130019Y-114710464D01*
X93130019Y-114710465D01*
X93092751Y-114720451D01*
X93018214Y-114740423D01*
X93018209Y-114740426D01*
X92881290Y-114819475D01*
X92881282Y-114819481D01*
X92769478Y-114931286D01*
X92571779Y-115128984D01*
X92510456Y-115162469D01*
X92440764Y-115157485D01*
X92396417Y-115128984D01*
X91561819Y-114294386D01*
X91528334Y-114233063D01*
X91525500Y-114206705D01*
X91525500Y-112493295D01*
X91545185Y-112426256D01*
X91561819Y-112405614D01*
X95057035Y-108910398D01*
X98605520Y-105361914D01*
X98684577Y-105224982D01*
X98725501Y-105072255D01*
X98725501Y-104914140D01*
X98725501Y-104906545D01*
X98725500Y-104906527D01*
X98725500Y-99095861D01*
X98725501Y-99095848D01*
X98725501Y-98927747D01*
X98725501Y-98927745D01*
X98684577Y-98775017D01*
X98640977Y-98699500D01*
X98605520Y-98638086D01*
X98493716Y-98526282D01*
X98493715Y-98526281D01*
X98489385Y-98521951D01*
X98489374Y-98521941D01*
X97030788Y-97063355D01*
X97030786Y-97063352D01*
X96911915Y-96944481D01*
X96911914Y-96944480D01*
X96825102Y-96894360D01*
X96825102Y-96894359D01*
X96825098Y-96894358D01*
X96774983Y-96865423D01*
X96622255Y-96824499D01*
X96464141Y-96824499D01*
X96456545Y-96824499D01*
X96456529Y-96824500D01*
X95640098Y-96824500D01*
X95573059Y-96804815D01*
X95552417Y-96788181D01*
X95302591Y-96538355D01*
X95302589Y-96538352D01*
X95183718Y-96419481D01*
X95183710Y-96419475D01*
X95076471Y-96357561D01*
X95076467Y-96357559D01*
X95066815Y-96351987D01*
X95046786Y-96340423D01*
X94975195Y-96321240D01*
X94970377Y-96319512D01*
X94946118Y-96301826D01*
X94920483Y-96286200D01*
X94918178Y-96281456D01*
X94913919Y-96278351D01*
X94903073Y-96250359D01*
X94889955Y-96223353D01*
X94890479Y-96217856D01*
X94888676Y-96213201D01*
X94892896Y-96192543D01*
X94896055Y-96159461D01*
X94906610Y-96131163D01*
X94948480Y-96075233D01*
X95013944Y-96050816D01*
X95022790Y-96050500D01*
X96264071Y-96050500D01*
X96348615Y-96033682D01*
X96389744Y-96025501D01*
X96508127Y-95976465D01*
X96523948Y-95965894D01*
X96528778Y-95962667D01*
X96557409Y-95943536D01*
X96614669Y-95905277D01*
X97405276Y-95114670D01*
X97440870Y-95061398D01*
X97476464Y-95008129D01*
X97479624Y-95000500D01*
X97525501Y-94889744D01*
X97528709Y-94873613D01*
X97561092Y-94811703D01*
X97621806Y-94777126D01*
X97691576Y-94780864D01*
X97720266Y-94797028D01*
X97720900Y-94796080D01*
X97873446Y-94898009D01*
X97873459Y-94898016D01*
X97960583Y-94934103D01*
X98037334Y-94965894D01*
X98037336Y-94965894D01*
X98037341Y-94965896D01*
X98211304Y-95000499D01*
X98211307Y-95000500D01*
X98211309Y-95000500D01*
X98388693Y-95000500D01*
X98388694Y-95000499D01*
X98446682Y-94988964D01*
X98562658Y-94965896D01*
X98562661Y-94965894D01*
X98562666Y-94965894D01*
X98716953Y-94901987D01*
X98726540Y-94898016D01*
X98726540Y-94898015D01*
X98726547Y-94898013D01*
X98874035Y-94799464D01*
X98999464Y-94674035D01*
X99098013Y-94526547D01*
X99165894Y-94362666D01*
X99166069Y-94361789D01*
X99193118Y-94225801D01*
X99200500Y-94188691D01*
X99200500Y-94011309D01*
X99200500Y-94011306D01*
X99200499Y-94011304D01*
X99165896Y-93837341D01*
X99165893Y-93837332D01*
X99098016Y-93673459D01*
X99098009Y-93673446D01*
X98999464Y-93525965D01*
X98999461Y-93525961D01*
X98874038Y-93400538D01*
X98874034Y-93400535D01*
X98726553Y-93301990D01*
X98726540Y-93301983D01*
X98562667Y-93234106D01*
X98562658Y-93234103D01*
X98388694Y-93199500D01*
X98388691Y-93199500D01*
X98211309Y-93199500D01*
X98211306Y-93199500D01*
X98037341Y-93234103D01*
X98037332Y-93234106D01*
X97873459Y-93301983D01*
X97873446Y-93301990D01*
X97743391Y-93388891D01*
X97676713Y-93409769D01*
X97609333Y-93391284D01*
X97562643Y-93339306D01*
X97550500Y-93285789D01*
X97550500Y-92374361D01*
X97570185Y-92307322D01*
X97586816Y-92286682D01*
X97599464Y-92274035D01*
X97698013Y-92126547D01*
X97699952Y-92121867D01*
X97713693Y-92088691D01*
X97765894Y-91962666D01*
X97770932Y-91937341D01*
X97796001Y-91811309D01*
X97800500Y-91788691D01*
X97800500Y-91611309D01*
X97800500Y-91611306D01*
X97800499Y-91611304D01*
X97765896Y-91437341D01*
X97765893Y-91437332D01*
X97698016Y-91273459D01*
X97698009Y-91273446D01*
X97599464Y-91125965D01*
X97599461Y-91125961D01*
X97474038Y-91000538D01*
X97474034Y-91000535D01*
X97326553Y-90901990D01*
X97326540Y-90901983D01*
X97162667Y-90834106D01*
X97162658Y-90834103D01*
X96988694Y-90799500D01*
X96988691Y-90799500D01*
X96811309Y-90799500D01*
X96811306Y-90799500D01*
X96637341Y-90834103D01*
X96637332Y-90834106D01*
X96473459Y-90901983D01*
X96473446Y-90901990D01*
X96325965Y-91000535D01*
X96325961Y-91000538D01*
X96200538Y-91125961D01*
X96200535Y-91125965D01*
X96101990Y-91273446D01*
X96101983Y-91273459D01*
X96034106Y-91437332D01*
X96034103Y-91437341D01*
X95999500Y-91611304D01*
X95999500Y-91788695D01*
X96034103Y-91962658D01*
X96034106Y-91962667D01*
X96101983Y-92126540D01*
X96101990Y-92126553D01*
X96200534Y-92274033D01*
X96200535Y-92274034D01*
X96200536Y-92274035D01*
X96213180Y-92286679D01*
X96246665Y-92347999D01*
X96249500Y-92374361D01*
X96249500Y-93576638D01*
X96229815Y-93643677D01*
X96177011Y-93689432D01*
X96107853Y-93699376D01*
X96044297Y-93670351D01*
X96037819Y-93664319D01*
X95974038Y-93600538D01*
X95974034Y-93600535D01*
X95826553Y-93501990D01*
X95826540Y-93501983D01*
X95662667Y-93434106D01*
X95662658Y-93434103D01*
X95488694Y-93399500D01*
X95488691Y-93399500D01*
X95367335Y-93399500D01*
X95351849Y-93395350D01*
X95338105Y-93396006D01*
X95305337Y-93382888D01*
X95290853Y-93374526D01*
X95281906Y-93369361D01*
X95281904Y-93369359D01*
X95281900Y-93369358D01*
X95231785Y-93340423D01*
X95079057Y-93299499D01*
X95022418Y-93299499D01*
X94955379Y-93279814D01*
X94909624Y-93227010D01*
X94899680Y-93157852D01*
X94906236Y-93132166D01*
X94934091Y-93057482D01*
X94940500Y-92997873D01*
X94940499Y-92002128D01*
X94934091Y-91942517D01*
X94883796Y-91807669D01*
X94883794Y-91807666D01*
X94880696Y-91799360D01*
X94882426Y-91798714D01*
X94869902Y-91741163D01*
X94881691Y-91701011D01*
X94880696Y-91700640D01*
X94883794Y-91692333D01*
X94883796Y-91692331D01*
X94934091Y-91557483D01*
X94940500Y-91497873D01*
X94940499Y-90624499D01*
X94960183Y-90557461D01*
X95012987Y-90511706D01*
X95064499Y-90500500D01*
X109375500Y-90500500D01*
X109442539Y-90520185D01*
X109488294Y-90572989D01*
X109499500Y-90624500D01*
X109499500Y-139375500D01*
X109479815Y-139442539D01*
X109427011Y-139488294D01*
X109375500Y-139499500D01*
X60624500Y-139499500D01*
X60557461Y-139479815D01*
X60511706Y-139427011D01*
X60500500Y-139375500D01*
X60500500Y-133874983D01*
X63899500Y-133874983D01*
X63899500Y-135225001D01*
X63899501Y-135225018D01*
X63910000Y-135327796D01*
X63910001Y-135327799D01*
X63965185Y-135494331D01*
X63965187Y-135494336D01*
X63988600Y-135532294D01*
X64057288Y-135643656D01*
X64181344Y-135767712D01*
X64330666Y-135859814D01*
X64497203Y-135914999D01*
X64599991Y-135925500D01*
X65400008Y-135925499D01*
X65400016Y-135925498D01*
X65400019Y-135925498D01*
X65456302Y-135919748D01*
X65502797Y-135914999D01*
X65669334Y-135859814D01*
X65818656Y-135767712D01*
X65942712Y-135643656D01*
X65982581Y-135579016D01*
X66034525Y-135532294D01*
X66103488Y-135521071D01*
X66167570Y-135548914D01*
X66175799Y-135556434D01*
X66283397Y-135664032D01*
X66423475Y-135765804D01*
X66577744Y-135844408D01*
X66742415Y-135897914D01*
X66742414Y-135897914D01*
X66749999Y-135899115D01*
X66750000Y-135899114D01*
X66750000Y-134830330D01*
X66769745Y-134850075D01*
X66855255Y-134899444D01*
X66950630Y-134925000D01*
X67049370Y-134925000D01*
X67144745Y-134899444D01*
X67230255Y-134850075D01*
X67250000Y-134830330D01*
X67250000Y-135899115D01*
X67257584Y-135897914D01*
X67422255Y-135844408D01*
X67576524Y-135765804D01*
X67716602Y-135664032D01*
X67839032Y-135541602D01*
X67940804Y-135401524D01*
X68019408Y-135247257D01*
X68072914Y-135082584D01*
X68100000Y-134911571D01*
X68100000Y-134800000D01*
X67280330Y-134800000D01*
X67300075Y-134780255D01*
X67349444Y-134694745D01*
X67375000Y-134599370D01*
X67375000Y-134500630D01*
X67349444Y-134405255D01*
X67300075Y-134319745D01*
X67280330Y-134300000D01*
X68100000Y-134300000D01*
X68100000Y-134188428D01*
X68072914Y-134017415D01*
X68019408Y-133852742D01*
X67940804Y-133698475D01*
X67839032Y-133558397D01*
X67716602Y-133435967D01*
X67576524Y-133334195D01*
X67422257Y-133255591D01*
X67257589Y-133202087D01*
X67257581Y-133202085D01*
X67250000Y-133200884D01*
X67250000Y-134269670D01*
X67230255Y-134249925D01*
X67144745Y-134200556D01*
X67049370Y-134175000D01*
X66950630Y-134175000D01*
X66855255Y-134200556D01*
X66769745Y-134249925D01*
X66750000Y-134269670D01*
X66750000Y-133200884D01*
X66749999Y-133200884D01*
X66742418Y-133202085D01*
X66742410Y-133202087D01*
X66577742Y-133255591D01*
X66423475Y-133334195D01*
X66283401Y-133435964D01*
X66175799Y-133543566D01*
X66114476Y-133577050D01*
X66044784Y-133572066D01*
X65988851Y-133530194D01*
X65982585Y-133520988D01*
X65942712Y-133456344D01*
X65818656Y-133332288D01*
X65818655Y-133332287D01*
X65809402Y-133326580D01*
X65762678Y-133274632D01*
X65750500Y-133221042D01*
X65750500Y-132162229D01*
X65770185Y-132095190D01*
X65786819Y-132074548D01*
X65982948Y-131878419D01*
X65982951Y-131878416D01*
X66065084Y-131755495D01*
X66121658Y-131618913D01*
X66150500Y-131473918D01*
X66150500Y-131326083D01*
X66150500Y-129962230D01*
X66170185Y-129895191D01*
X66186819Y-129874549D01*
X66235407Y-129825961D01*
X66292712Y-129768656D01*
X66384814Y-129619334D01*
X66439999Y-129452797D01*
X66450500Y-129350009D01*
X66450499Y-128649992D01*
X66439999Y-128547203D01*
X66384814Y-128380666D01*
X66292712Y-128231344D01*
X66168656Y-128107288D01*
X66019334Y-128015186D01*
X65852797Y-127960001D01*
X65852795Y-127960000D01*
X65750010Y-127949500D01*
X65049998Y-127949500D01*
X65049980Y-127949501D01*
X64947203Y-127960000D01*
X64947200Y-127960001D01*
X64780668Y-128015185D01*
X64780663Y-128015187D01*
X64631342Y-128107289D01*
X64507289Y-128231342D01*
X64415187Y-128380663D01*
X64415186Y-128380666D01*
X64360001Y-128547203D01*
X64360001Y-128547204D01*
X64360000Y-128547204D01*
X64349500Y-128649983D01*
X64349500Y-129350001D01*
X64349501Y-129350019D01*
X64360000Y-129452796D01*
X64360001Y-129452799D01*
X64415185Y-129619331D01*
X64415187Y-129619336D01*
X64419276Y-129625965D01*
X64465271Y-129700536D01*
X64507289Y-129768657D01*
X64613181Y-129874549D01*
X64646666Y-129935872D01*
X64649500Y-129962230D01*
X64649500Y-131037770D01*
X64629815Y-131104809D01*
X64613181Y-131125451D01*
X64417047Y-131321584D01*
X64417043Y-131321589D01*
X64398395Y-131349500D01*
X64398395Y-131349501D01*
X64334914Y-131444508D01*
X64278343Y-131581082D01*
X64278340Y-131581092D01*
X64249500Y-131726079D01*
X64249500Y-133221042D01*
X64229815Y-133288081D01*
X64190598Y-133326580D01*
X64181344Y-133332287D01*
X64057289Y-133456342D01*
X63965187Y-133605663D01*
X63965185Y-133605668D01*
X63948014Y-133657488D01*
X63910001Y-133772203D01*
X63910001Y-133772204D01*
X63910000Y-133772204D01*
X63899500Y-133874983D01*
X60500500Y-133874983D01*
X60500500Y-125299983D01*
X61449500Y-125299983D01*
X61449500Y-126700001D01*
X61449501Y-126700018D01*
X61460000Y-126802796D01*
X61460001Y-126802799D01*
X61515185Y-126969331D01*
X61515187Y-126969336D01*
X61550069Y-127025888D01*
X61607288Y-127118656D01*
X61731344Y-127242712D01*
X61790596Y-127279258D01*
X61837321Y-127331204D01*
X61849500Y-127384797D01*
X61849500Y-128037769D01*
X61829815Y-128104808D01*
X61813182Y-128125450D01*
X61707287Y-128231345D01*
X61615187Y-128380663D01*
X61615186Y-128380666D01*
X61560001Y-128547203D01*
X61560001Y-128547204D01*
X61560000Y-128547204D01*
X61549500Y-128649983D01*
X61549500Y-129350001D01*
X61549501Y-129350019D01*
X61560000Y-129452796D01*
X61560001Y-129452799D01*
X61615185Y-129619331D01*
X61615187Y-129619336D01*
X61619276Y-129625965D01*
X61707288Y-129768656D01*
X61831344Y-129892712D01*
X61980666Y-129984814D01*
X62147203Y-130039999D01*
X62249991Y-130050500D01*
X62950008Y-130050499D01*
X62950016Y-130050498D01*
X62950019Y-130050498D01*
X63006302Y-130044748D01*
X63052797Y-130039999D01*
X63219334Y-129984814D01*
X63368656Y-129892712D01*
X63492712Y-129768656D01*
X63584814Y-129619334D01*
X63639999Y-129452797D01*
X63650500Y-129350009D01*
X63650499Y-128649992D01*
X63639999Y-128547203D01*
X63584814Y-128380666D01*
X63492712Y-128231344D01*
X63386818Y-128125450D01*
X63353334Y-128064127D01*
X63350500Y-128037769D01*
X63350500Y-127262230D01*
X63370185Y-127195191D01*
X63386819Y-127174549D01*
X63387334Y-127174034D01*
X63442712Y-127118656D01*
X63534814Y-126969334D01*
X63589999Y-126802797D01*
X63600500Y-126700009D01*
X63600500Y-126699986D01*
X64400001Y-126699986D01*
X64410494Y-126802697D01*
X64465641Y-126969119D01*
X64465643Y-126969124D01*
X64557684Y-127118345D01*
X64681654Y-127242315D01*
X64830875Y-127334356D01*
X64830880Y-127334358D01*
X64997302Y-127389505D01*
X64997309Y-127389506D01*
X65100019Y-127399999D01*
X65224999Y-127399999D01*
X65225000Y-127399998D01*
X65225000Y-126250000D01*
X64400001Y-126250000D01*
X64400001Y-126699986D01*
X63600500Y-126699986D01*
X63600499Y-125997598D01*
X63600499Y-125300013D01*
X64400000Y-125300013D01*
X64400000Y-125750000D01*
X65225000Y-125750000D01*
X65225000Y-124600000D01*
X65100027Y-124600000D01*
X65100012Y-124600001D01*
X64997302Y-124610494D01*
X64830880Y-124665641D01*
X64830875Y-124665643D01*
X64681654Y-124757684D01*
X64557684Y-124881654D01*
X64465643Y-125030875D01*
X64465641Y-125030880D01*
X64410494Y-125197302D01*
X64410493Y-125197309D01*
X64400000Y-125300013D01*
X63600499Y-125300013D01*
X63600499Y-125299998D01*
X63600498Y-125299981D01*
X63589999Y-125197203D01*
X63589998Y-125197200D01*
X63584858Y-125181690D01*
X63534814Y-125030666D01*
X63442712Y-124881344D01*
X63318656Y-124757288D01*
X63313549Y-124752181D01*
X63315435Y-124750294D01*
X63282212Y-124703375D01*
X63275500Y-124663132D01*
X63275500Y-122774220D01*
X63282896Y-122749030D01*
X63286559Y-122723031D01*
X63292584Y-122716036D01*
X63295185Y-122707181D01*
X63315023Y-122689991D01*
X63332163Y-122670096D01*
X63341014Y-122667469D01*
X63347989Y-122661426D01*
X63373975Y-122657689D01*
X63399146Y-122650221D01*
X63412668Y-122652125D01*
X63417147Y-122651482D01*
X63434095Y-122655144D01*
X63439601Y-122656743D01*
X63439602Y-122656744D01*
X63510095Y-122677224D01*
X63568981Y-122714830D01*
X63598187Y-122778302D01*
X63599500Y-122796300D01*
X63599500Y-122823918D01*
X63599500Y-122823920D01*
X63599499Y-122823920D01*
X63628340Y-122968907D01*
X63628343Y-122968917D01*
X63684913Y-123105490D01*
X63684914Y-123105492D01*
X63710982Y-123144505D01*
X63710983Y-123144507D01*
X63767045Y-123228414D01*
X63767049Y-123228418D01*
X64621580Y-124082948D01*
X64621584Y-124082951D01*
X64744498Y-124165080D01*
X64744511Y-124165087D01*
X64880908Y-124221584D01*
X64881087Y-124221658D01*
X64881091Y-124221658D01*
X64881092Y-124221659D01*
X65026079Y-124250500D01*
X65026082Y-124250500D01*
X65173917Y-124250500D01*
X66137770Y-124250500D01*
X66204809Y-124270185D01*
X66225451Y-124286819D01*
X66564714Y-124626082D01*
X66888451Y-124949818D01*
X66888681Y-124950240D01*
X66889104Y-124950475D01*
X66905437Y-124980926D01*
X66921936Y-125011141D01*
X66921901Y-125011621D01*
X66922130Y-125012047D01*
X66919410Y-125046460D01*
X66916952Y-125080832D01*
X66916650Y-125081379D01*
X66916625Y-125081699D01*
X66915619Y-125083251D01*
X66899479Y-125112549D01*
X66894390Y-125119241D01*
X66832288Y-125181344D01*
X66768314Y-125285062D01*
X66764650Y-125289882D01*
X66741195Y-125307167D01*
X66719531Y-125326654D01*
X66713401Y-125327651D01*
X66708405Y-125331334D01*
X66679328Y-125333195D01*
X66650569Y-125337875D01*
X66644875Y-125335401D01*
X66638678Y-125335798D01*
X66613205Y-125321640D01*
X66586487Y-125310032D01*
X66583034Y-125304872D01*
X66577607Y-125301856D01*
X66563832Y-125276175D01*
X66547631Y-125251963D01*
X66545630Y-125242240D01*
X66544581Y-125240284D01*
X66544760Y-125238013D01*
X66542583Y-125227431D01*
X66539506Y-125197303D01*
X66484358Y-125030880D01*
X66484356Y-125030875D01*
X66392315Y-124881654D01*
X66268345Y-124757684D01*
X66119124Y-124665643D01*
X66119119Y-124665641D01*
X65952697Y-124610494D01*
X65952690Y-124610493D01*
X65849986Y-124600000D01*
X65725000Y-124600000D01*
X65725000Y-127399999D01*
X65849972Y-127399999D01*
X65849986Y-127399998D01*
X65952697Y-127389505D01*
X66119119Y-127334358D01*
X66119124Y-127334356D01*
X66268345Y-127242315D01*
X66392315Y-127118345D01*
X66484356Y-126969124D01*
X66484359Y-126969117D01*
X66511784Y-126886353D01*
X66551556Y-126828908D01*
X66616071Y-126802084D01*
X66684847Y-126814399D01*
X66736048Y-126861941D01*
X66738591Y-126866748D01*
X66740185Y-126869333D01*
X66740186Y-126869334D01*
X66832288Y-127018656D01*
X66956344Y-127142712D01*
X67105666Y-127234814D01*
X67272203Y-127289999D01*
X67374991Y-127300500D01*
X68000008Y-127300499D01*
X68000016Y-127300498D01*
X68000019Y-127300498D01*
X68056302Y-127294748D01*
X68102797Y-127289999D01*
X68269334Y-127234814D01*
X68418656Y-127142712D01*
X68512675Y-127048692D01*
X68573994Y-127015210D01*
X68643686Y-127020194D01*
X68688034Y-127048695D01*
X68781654Y-127142315D01*
X68930875Y-127234356D01*
X68930880Y-127234358D01*
X69097302Y-127289505D01*
X69097309Y-127289506D01*
X69200019Y-127299999D01*
X69762500Y-127299999D01*
X69824972Y-127299999D01*
X69824986Y-127299998D01*
X69927697Y-127289505D01*
X70094119Y-127234358D01*
X70094124Y-127234356D01*
X70243345Y-127142315D01*
X70367315Y-127018345D01*
X70459356Y-126869124D01*
X70459358Y-126869119D01*
X70514505Y-126702697D01*
X70514506Y-126702690D01*
X70524999Y-126599986D01*
X70525000Y-126599973D01*
X70525000Y-126350000D01*
X69762500Y-126350000D01*
X69762500Y-127299999D01*
X69200019Y-127299999D01*
X69262499Y-127299998D01*
X69262500Y-127299998D01*
X69262500Y-125850000D01*
X69762500Y-125850000D01*
X70524999Y-125850000D01*
X70524999Y-125600028D01*
X70524998Y-125600013D01*
X70514505Y-125497302D01*
X70459358Y-125330880D01*
X70459356Y-125330875D01*
X70367315Y-125181654D01*
X70243345Y-125057684D01*
X70094124Y-124965643D01*
X70094119Y-124965641D01*
X69927697Y-124910494D01*
X69927690Y-124910493D01*
X69824986Y-124900000D01*
X69762500Y-124900000D01*
X69762500Y-125850000D01*
X69262500Y-125850000D01*
X69262500Y-124900000D01*
X69262499Y-124899999D01*
X69200028Y-124900000D01*
X69200011Y-124900001D01*
X69097302Y-124910494D01*
X68930880Y-124965641D01*
X68930875Y-124965643D01*
X68781657Y-125057682D01*
X68688034Y-125151305D01*
X68680087Y-125155643D01*
X68674663Y-125162890D01*
X68649903Y-125172124D01*
X68626710Y-125184789D01*
X68617681Y-125184143D01*
X68609199Y-125187307D01*
X68583378Y-125181690D01*
X68557019Y-125179805D01*
X68547965Y-125173986D01*
X68540926Y-125172455D01*
X68512672Y-125151304D01*
X68486819Y-125125451D01*
X68453334Y-125064128D01*
X68450500Y-125037770D01*
X68450500Y-124626079D01*
X68421659Y-124481092D01*
X68421658Y-124481091D01*
X68421658Y-124481087D01*
X68416253Y-124468039D01*
X68365087Y-124344511D01*
X68365080Y-124344498D01*
X68282952Y-124221585D01*
X68282951Y-124221584D01*
X68178416Y-124117049D01*
X67973867Y-123912500D01*
X66978421Y-122917052D01*
X66978414Y-122917046D01*
X66904729Y-122867812D01*
X66904729Y-122867813D01*
X66855491Y-122834913D01*
X66718917Y-122778343D01*
X66718907Y-122778340D01*
X66573920Y-122749500D01*
X66573918Y-122749500D01*
X65524809Y-122749500D01*
X65457770Y-122729815D01*
X65412015Y-122677011D01*
X65402071Y-122607853D01*
X65431096Y-122544297D01*
X65437128Y-122537819D01*
X65518076Y-122456870D01*
X65518081Y-122456865D01*
X65601744Y-122315398D01*
X65647598Y-122157569D01*
X65649366Y-122151485D01*
X65652136Y-122152289D01*
X65677839Y-122101043D01*
X65737956Y-122065439D01*
X65805693Y-122067911D01*
X65805822Y-122067489D01*
X65807424Y-122067975D01*
X65807779Y-122067988D01*
X65809125Y-122068491D01*
X65811656Y-122069258D01*
X65966202Y-122099999D01*
X65966206Y-122100000D01*
X66123794Y-122100000D01*
X66123797Y-122099999D01*
X66278343Y-122069258D01*
X66278347Y-122069257D01*
X66407293Y-122015845D01*
X65868223Y-121476777D01*
X65661609Y-121270163D01*
X65895000Y-121270163D01*
X65895000Y-121329837D01*
X65917836Y-121384968D01*
X65960032Y-121427164D01*
X66015163Y-121450000D01*
X66074837Y-121450000D01*
X66129968Y-121427164D01*
X66172164Y-121384968D01*
X66195000Y-121329837D01*
X66195000Y-121299999D01*
X66398553Y-121299999D01*
X66398553Y-121300001D01*
X66760845Y-121662293D01*
X66814257Y-121533347D01*
X66814258Y-121533343D01*
X66844999Y-121378797D01*
X66845000Y-121378794D01*
X66845000Y-121221206D01*
X66844999Y-121221202D01*
X67155000Y-121221202D01*
X67155000Y-121378797D01*
X67185741Y-121533343D01*
X67185743Y-121533351D01*
X67239153Y-121662293D01*
X67601446Y-121300001D01*
X67601446Y-121299999D01*
X67571610Y-121270163D01*
X67805000Y-121270163D01*
X67805000Y-121329837D01*
X67827836Y-121384968D01*
X67870032Y-121427164D01*
X67925163Y-121450000D01*
X67984837Y-121450000D01*
X68039968Y-121427164D01*
X68082164Y-121384968D01*
X68105000Y-121329837D01*
X68105000Y-121270163D01*
X68082164Y-121215032D01*
X68039968Y-121172836D01*
X67984837Y-121150000D01*
X67925163Y-121150000D01*
X67870032Y-121172836D01*
X67827836Y-121215032D01*
X67805000Y-121270163D01*
X67571610Y-121270163D01*
X67239153Y-120937705D01*
X67185743Y-121066648D01*
X67185741Y-121066656D01*
X67155000Y-121221202D01*
X66844999Y-121221202D01*
X66814258Y-121066656D01*
X66814257Y-121066652D01*
X66760845Y-120937706D01*
X66398553Y-121299999D01*
X66195000Y-121299999D01*
X66195000Y-121270163D01*
X66172164Y-121215032D01*
X66129968Y-121172836D01*
X66074837Y-121150000D01*
X66015163Y-121150000D01*
X65960032Y-121172836D01*
X65917836Y-121215032D01*
X65895000Y-121270163D01*
X65661609Y-121270163D01*
X65608476Y-121217030D01*
X65574991Y-121155707D01*
X65579975Y-121086015D01*
X65589426Y-121066226D01*
X65601744Y-121045398D01*
X65647598Y-120887569D01*
X65650500Y-120850694D01*
X65650500Y-120850675D01*
X65650595Y-120848266D01*
X65650690Y-120848269D01*
X65650691Y-120848267D01*
X65650761Y-120848272D01*
X65651384Y-120848296D01*
X65670185Y-120784270D01*
X65722989Y-120738515D01*
X65792147Y-120728571D01*
X65855703Y-120757596D01*
X65862181Y-120763628D01*
X66045000Y-120946446D01*
X66045001Y-120946446D01*
X66341446Y-120650001D01*
X66341446Y-120649999D01*
X66045001Y-120353553D01*
X66045000Y-120353553D01*
X65862181Y-120536372D01*
X65800858Y-120569857D01*
X65731166Y-120564873D01*
X65675233Y-120523001D01*
X65650816Y-120457537D01*
X65650500Y-120448691D01*
X65650500Y-120419313D01*
X65650499Y-120419298D01*
X65649977Y-120412667D01*
X65647598Y-120382431D01*
X65647588Y-120382395D01*
X65601746Y-120224607D01*
X65601744Y-120224605D01*
X65601744Y-120224602D01*
X65600574Y-120222624D01*
X65600129Y-120220871D01*
X65598647Y-120217446D01*
X65599199Y-120217206D01*
X65583390Y-120154903D01*
X65596969Y-120102916D01*
X65663884Y-119972438D01*
X65661609Y-119970163D01*
X65895000Y-119970163D01*
X65895000Y-120029837D01*
X65917836Y-120084968D01*
X65960032Y-120127164D01*
X66015163Y-120150000D01*
X66074837Y-120150000D01*
X66129968Y-120127164D01*
X66172164Y-120084968D01*
X66195000Y-120029837D01*
X66195000Y-119999999D01*
X66398553Y-119999999D01*
X66398553Y-120000001D01*
X66760845Y-120362293D01*
X66814257Y-120233347D01*
X66814258Y-120233343D01*
X66844999Y-120078797D01*
X66845000Y-120078794D01*
X66845000Y-119921206D01*
X66844999Y-119921202D01*
X67155000Y-119921202D01*
X67155000Y-120078797D01*
X67185741Y-120233343D01*
X67185743Y-120233351D01*
X67239153Y-120362293D01*
X67601446Y-120000001D01*
X67601446Y-119999999D01*
X67571610Y-119970163D01*
X67805000Y-119970163D01*
X67805000Y-120029837D01*
X67827836Y-120084968D01*
X67870032Y-120127164D01*
X67925163Y-120150000D01*
X67984837Y-120150000D01*
X68039968Y-120127164D01*
X68082164Y-120084968D01*
X68105000Y-120029837D01*
X68105000Y-119970163D01*
X68082164Y-119915032D01*
X68039968Y-119872836D01*
X67984837Y-119850000D01*
X67925163Y-119850000D01*
X67870032Y-119872836D01*
X67827836Y-119915032D01*
X67805000Y-119970163D01*
X67571610Y-119970163D01*
X67239153Y-119637705D01*
X67185743Y-119766648D01*
X67185741Y-119766656D01*
X67155000Y-119921202D01*
X66844999Y-119921202D01*
X66814258Y-119766656D01*
X66814257Y-119766652D01*
X66760845Y-119637706D01*
X66398553Y-119999999D01*
X66195000Y-119999999D01*
X66195000Y-119970163D01*
X66172164Y-119915032D01*
X66129968Y-119872836D01*
X66074837Y-119850000D01*
X66015163Y-119850000D01*
X65960032Y-119872836D01*
X65917836Y-119915032D01*
X65895000Y-119970163D01*
X65661609Y-119970163D01*
X65619624Y-119928178D01*
X65586139Y-119866855D01*
X65591123Y-119797163D01*
X65600571Y-119777380D01*
X65601744Y-119775398D01*
X65634623Y-119662230D01*
X65647597Y-119617573D01*
X65647598Y-119617567D01*
X65648125Y-119610868D01*
X65650500Y-119580694D01*
X65650500Y-119551309D01*
X65670185Y-119484270D01*
X65722989Y-119438515D01*
X65792147Y-119428571D01*
X65855703Y-119457596D01*
X65862181Y-119463628D01*
X66045000Y-119646446D01*
X66045001Y-119646446D01*
X66341446Y-119350001D01*
X66341446Y-119349999D01*
X66045001Y-119053553D01*
X66045000Y-119053553D01*
X65862181Y-119236372D01*
X65800858Y-119269857D01*
X65731166Y-119264873D01*
X65675233Y-119223001D01*
X65650816Y-119157537D01*
X65650608Y-119151733D01*
X65650595Y-119151734D01*
X65650500Y-119149323D01*
X65650500Y-119149306D01*
X65647598Y-119112431D01*
X65643409Y-119098013D01*
X65604087Y-118962666D01*
X65601744Y-118954602D01*
X65589424Y-118933771D01*
X65572242Y-118866048D01*
X65594402Y-118799785D01*
X65608476Y-118782969D01*
X65691446Y-118699999D01*
X65661610Y-118670163D01*
X65895000Y-118670163D01*
X65895000Y-118729837D01*
X65917836Y-118784968D01*
X65960032Y-118827164D01*
X66015163Y-118850000D01*
X66074837Y-118850000D01*
X66129968Y-118827164D01*
X66172164Y-118784968D01*
X66195000Y-118729837D01*
X66195000Y-118699999D01*
X66398553Y-118699999D01*
X66398553Y-118700001D01*
X66760845Y-119062293D01*
X66814257Y-118933347D01*
X66814258Y-118933343D01*
X66844999Y-118778797D01*
X66845000Y-118778794D01*
X66845000Y-118621206D01*
X66844999Y-118621202D01*
X67155000Y-118621202D01*
X67155000Y-118778797D01*
X67185741Y-118933343D01*
X67185743Y-118933351D01*
X67239153Y-119062293D01*
X67601446Y-118700001D01*
X67601446Y-118699999D01*
X67571610Y-118670163D01*
X67805000Y-118670163D01*
X67805000Y-118729837D01*
X67827836Y-118784968D01*
X67870032Y-118827164D01*
X67925163Y-118850000D01*
X67984837Y-118850000D01*
X68039968Y-118827164D01*
X68082164Y-118784968D01*
X68105000Y-118729837D01*
X68105000Y-118670163D01*
X68082164Y-118615032D01*
X68039968Y-118572836D01*
X67984837Y-118550000D01*
X67925163Y-118550000D01*
X67870032Y-118572836D01*
X67827836Y-118615032D01*
X67805000Y-118670163D01*
X67571610Y-118670163D01*
X67239153Y-118337705D01*
X67185743Y-118466648D01*
X67185741Y-118466656D01*
X67155000Y-118621202D01*
X66844999Y-118621202D01*
X66814258Y-118466656D01*
X66814257Y-118466652D01*
X66760845Y-118337706D01*
X66398553Y-118699999D01*
X66195000Y-118699999D01*
X66195000Y-118670163D01*
X66172164Y-118615032D01*
X66129968Y-118572836D01*
X66074837Y-118550000D01*
X66015163Y-118550000D01*
X65960032Y-118572836D01*
X65917836Y-118615032D01*
X65895000Y-118670163D01*
X65661610Y-118670163D01*
X65336447Y-118345000D01*
X63052705Y-118345000D01*
X63052704Y-118345001D01*
X63052899Y-118347486D01*
X63098718Y-118505198D01*
X63182314Y-118646552D01*
X63187100Y-118652722D01*
X63184640Y-118654629D01*
X63211210Y-118703288D01*
X63206226Y-118772980D01*
X63185162Y-118805781D01*
X63186699Y-118806974D01*
X63181915Y-118813140D01*
X63098255Y-118954603D01*
X63098254Y-118954606D01*
X63052402Y-119112426D01*
X63052401Y-119112432D01*
X63049500Y-119149298D01*
X63049500Y-119580701D01*
X63052401Y-119617567D01*
X63052402Y-119617573D01*
X63098254Y-119775393D01*
X63098255Y-119775396D01*
X63098256Y-119775398D01*
X63139484Y-119845111D01*
X63148229Y-119859898D01*
X63165412Y-119927622D01*
X63143252Y-119993885D01*
X63110388Y-120026121D01*
X63071585Y-120052048D01*
X63071581Y-120052051D01*
X61942050Y-121181581D01*
X61942044Y-121181589D01*
X61892812Y-121255269D01*
X61892813Y-121255270D01*
X61859921Y-121304497D01*
X61859914Y-121304509D01*
X61803342Y-121441087D01*
X61803340Y-121441093D01*
X61774500Y-121586080D01*
X61774500Y-124663132D01*
X61754815Y-124730171D01*
X61735616Y-124751346D01*
X61736451Y-124752181D01*
X61607289Y-124881342D01*
X61515187Y-125030663D01*
X61515185Y-125030668D01*
X61498381Y-125081379D01*
X61460001Y-125197203D01*
X61460001Y-125197204D01*
X61460000Y-125197204D01*
X61449500Y-125299983D01*
X60500500Y-125299983D01*
X60500500Y-118009249D01*
X65780000Y-118009249D01*
X65780000Y-118081446D01*
X66045000Y-118346446D01*
X66407293Y-117984153D01*
X66278351Y-117930743D01*
X66278343Y-117930741D01*
X66123797Y-117900000D01*
X65966202Y-117900000D01*
X65841238Y-117924856D01*
X65780000Y-118009249D01*
X60500500Y-118009249D01*
X60500500Y-117844998D01*
X63052704Y-117844998D01*
X63052705Y-117845000D01*
X64100000Y-117845000D01*
X64600000Y-117845000D01*
X65592773Y-117845000D01*
X65632084Y-117790826D01*
X65601281Y-117684801D01*
X65517685Y-117543447D01*
X65517678Y-117543438D01*
X65401561Y-117427321D01*
X65401552Y-117427314D01*
X65260196Y-117343717D01*
X65260193Y-117343716D01*
X65102495Y-117297900D01*
X65102489Y-117297899D01*
X65065649Y-117295000D01*
X64600000Y-117295000D01*
X64600000Y-117845000D01*
X64100000Y-117845000D01*
X64100000Y-117295000D01*
X63634350Y-117295000D01*
X63597510Y-117297899D01*
X63597504Y-117297900D01*
X63439806Y-117343716D01*
X63439803Y-117343717D01*
X63298447Y-117427314D01*
X63298438Y-117427321D01*
X63182321Y-117543438D01*
X63182314Y-117543447D01*
X63098718Y-117684801D01*
X63052899Y-117842513D01*
X63052704Y-117844998D01*
X60500500Y-117844998D01*
X60500500Y-105839324D01*
X63200001Y-105839324D01*
X63215442Y-105956628D01*
X63215444Y-105956633D01*
X63275899Y-106102585D01*
X63372075Y-106227924D01*
X63497413Y-106324100D01*
X63643365Y-106384554D01*
X63643369Y-106384555D01*
X63760676Y-106399999D01*
X63949999Y-106399999D01*
X64450000Y-106399999D01*
X64639324Y-106399999D01*
X64756628Y-106384557D01*
X64756633Y-106384555D01*
X64902585Y-106324100D01*
X65027924Y-106227924D01*
X65124100Y-106102586D01*
X65184554Y-105956634D01*
X65184555Y-105956630D01*
X65199999Y-105839330D01*
X65199999Y-105839324D01*
X69200001Y-105839324D01*
X69215442Y-105956628D01*
X69215444Y-105956633D01*
X69275899Y-106102585D01*
X69372075Y-106227924D01*
X69497413Y-106324100D01*
X69643365Y-106384554D01*
X69643369Y-106384555D01*
X69760676Y-106399999D01*
X69949999Y-106399999D01*
X70450000Y-106399999D01*
X70639324Y-106399999D01*
X70756628Y-106384557D01*
X70756633Y-106384555D01*
X70902585Y-106324100D01*
X71027924Y-106227924D01*
X71124100Y-106102586D01*
X71184554Y-105956634D01*
X71184555Y-105956630D01*
X71199999Y-105839330D01*
X71200000Y-105839316D01*
X71200000Y-105650000D01*
X70450000Y-105650000D01*
X70450000Y-106399999D01*
X69949999Y-106399999D01*
X69950000Y-106399998D01*
X69950000Y-105650000D01*
X69200001Y-105650000D01*
X69200001Y-105839324D01*
X65199999Y-105839324D01*
X65200000Y-105839316D01*
X65200000Y-105650000D01*
X64450000Y-105650000D01*
X64450000Y-106399999D01*
X63949999Y-106399999D01*
X63950000Y-106399998D01*
X63950000Y-105650000D01*
X63200001Y-105650000D01*
X63200001Y-105839324D01*
X60500500Y-105839324D01*
X60500500Y-104960669D01*
X63200000Y-104960669D01*
X63200000Y-105150000D01*
X63950000Y-105150000D01*
X64450000Y-105150000D01*
X65199999Y-105150000D01*
X65199999Y-104960675D01*
X65199998Y-104960669D01*
X69200000Y-104960669D01*
X69200000Y-105150000D01*
X69950000Y-105150000D01*
X70450000Y-105150000D01*
X71199999Y-105150000D01*
X71199999Y-104960675D01*
X71184557Y-104843371D01*
X71184555Y-104843366D01*
X71124100Y-104697414D01*
X71027924Y-104572075D01*
X70902586Y-104475899D01*
X70756634Y-104415445D01*
X70756630Y-104415444D01*
X70639330Y-104400000D01*
X70450000Y-104400000D01*
X70450000Y-105150000D01*
X69950000Y-105150000D01*
X69950000Y-104400000D01*
X69760675Y-104400000D01*
X69643371Y-104415442D01*
X69643366Y-104415444D01*
X69497414Y-104475899D01*
X69372075Y-104572075D01*
X69275899Y-104697413D01*
X69215445Y-104843365D01*
X69215444Y-104843369D01*
X69200000Y-104960669D01*
X65199998Y-104960669D01*
X65184557Y-104843371D01*
X65184555Y-104843366D01*
X65124100Y-104697414D01*
X65027924Y-104572075D01*
X64902586Y-104475899D01*
X64756634Y-104415445D01*
X64756630Y-104415444D01*
X64639330Y-104400000D01*
X64450000Y-104400000D01*
X64450000Y-105150000D01*
X63950000Y-105150000D01*
X63950000Y-104400000D01*
X63760675Y-104400000D01*
X63643371Y-104415442D01*
X63643366Y-104415444D01*
X63497414Y-104475899D01*
X63372075Y-104572075D01*
X63275899Y-104697413D01*
X63215445Y-104843365D01*
X63215444Y-104843369D01*
X63200000Y-104960669D01*
X60500500Y-104960669D01*
X60500500Y-93878711D01*
X62149500Y-93878711D01*
X62149500Y-94121288D01*
X62181161Y-94361785D01*
X62243947Y-94596104D01*
X62333251Y-94811703D01*
X62336776Y-94820212D01*
X62458064Y-95030289D01*
X62458066Y-95030292D01*
X62458067Y-95030293D01*
X62605733Y-95222736D01*
X62605739Y-95222743D01*
X62777256Y-95394260D01*
X62777263Y-95394266D01*
X62784037Y-95399464D01*
X62969711Y-95541936D01*
X63179788Y-95663224D01*
X63403900Y-95756054D01*
X63638211Y-95818838D01*
X63818586Y-95842584D01*
X63878711Y-95850500D01*
X63878712Y-95850500D01*
X64121289Y-95850500D01*
X64169388Y-95844167D01*
X64361789Y-95818838D01*
X64596100Y-95756054D01*
X64820212Y-95663224D01*
X65030289Y-95541936D01*
X65222738Y-95394265D01*
X65394265Y-95222738D01*
X65541936Y-95030289D01*
X65663224Y-94820212D01*
X65756054Y-94596100D01*
X65818838Y-94361789D01*
X65850500Y-94121288D01*
X65850500Y-93878712D01*
X65818838Y-93638211D01*
X65756054Y-93403900D01*
X65754231Y-93399500D01*
X65743887Y-93374526D01*
X65663224Y-93179788D01*
X65541936Y-92969711D01*
X65439857Y-92836679D01*
X65394266Y-92777263D01*
X65394260Y-92777256D01*
X65222743Y-92605739D01*
X65222736Y-92605733D01*
X65030293Y-92458067D01*
X65030292Y-92458066D01*
X65030289Y-92458064D01*
X64839651Y-92347999D01*
X64820214Y-92336777D01*
X64820205Y-92336773D01*
X64596104Y-92243947D01*
X64377348Y-92185331D01*
X64361789Y-92181162D01*
X64361788Y-92181161D01*
X64361785Y-92181161D01*
X64121289Y-92149500D01*
X64121288Y-92149500D01*
X63878712Y-92149500D01*
X63878711Y-92149500D01*
X63638214Y-92181161D01*
X63403895Y-92243947D01*
X63179794Y-92336773D01*
X63179785Y-92336777D01*
X63017361Y-92430553D01*
X62972133Y-92456666D01*
X62969706Y-92458067D01*
X62777263Y-92605733D01*
X62777256Y-92605739D01*
X62605739Y-92777256D01*
X62605733Y-92777263D01*
X62458067Y-92969706D01*
X62336777Y-93179785D01*
X62336773Y-93179794D01*
X62243947Y-93403895D01*
X62181161Y-93638214D01*
X62149500Y-93878711D01*
X60500500Y-93878711D01*
X60500500Y-90624500D01*
X60520185Y-90557461D01*
X60572989Y-90511706D01*
X60624500Y-90500500D01*
X74138770Y-90500500D01*
X74205809Y-90520185D01*
G37*
G04 #@! TD.AperFunction*
G04 #@! TA.AperFunction,Conductor*
G36*
X85973834Y-119048626D02*
G01*
X86029767Y-119090498D01*
X86054184Y-119155962D01*
X86054500Y-119164808D01*
X86054500Y-123005103D01*
X86034815Y-123072142D01*
X85982011Y-123117897D01*
X85912853Y-123127841D01*
X85867382Y-123111837D01*
X85845196Y-123098717D01*
X85845193Y-123098716D01*
X85687494Y-123052900D01*
X85687497Y-123052900D01*
X85685000Y-123052703D01*
X85685000Y-124401000D01*
X85665315Y-124468039D01*
X85612511Y-124513794D01*
X85561000Y-124525000D01*
X85309000Y-124525000D01*
X85241961Y-124505315D01*
X85196206Y-124452511D01*
X85185000Y-124401000D01*
X85185000Y-123052703D01*
X85182503Y-123052900D01*
X85024806Y-123098716D01*
X85024803Y-123098717D01*
X84883449Y-123182313D01*
X84877283Y-123187097D01*
X84875389Y-123184655D01*
X84826580Y-123211239D01*
X84756894Y-123206179D01*
X84724227Y-123185159D01*
X84723031Y-123186702D01*
X84716862Y-123181917D01*
X84598362Y-123111837D01*
X84575398Y-123098256D01*
X84575397Y-123098255D01*
X84575396Y-123098255D01*
X84575393Y-123098254D01*
X84417573Y-123052402D01*
X84417567Y-123052401D01*
X84380701Y-123049500D01*
X84380694Y-123049500D01*
X83949306Y-123049500D01*
X83949298Y-123049500D01*
X83912432Y-123052401D01*
X83912426Y-123052402D01*
X83754606Y-123098253D01*
X83750809Y-123100499D01*
X83737618Y-123108300D01*
X83669894Y-123125480D01*
X83603632Y-123103319D01*
X83559870Y-123048852D01*
X83550500Y-123001566D01*
X83550500Y-121420808D01*
X83570185Y-121353769D01*
X83586819Y-121333127D01*
X85842819Y-119077127D01*
X85904142Y-119043642D01*
X85973834Y-119048626D01*
G37*
G04 #@! TD.AperFunction*
G04 #@! TA.AperFunction,Conductor*
G36*
X91347231Y-90520185D02*
G01*
X91392986Y-90572989D01*
X91402930Y-90642147D01*
X91373905Y-90705703D01*
X91367873Y-90712181D01*
X89894727Y-92185325D01*
X89894724Y-92185328D01*
X89843049Y-92262667D01*
X89823535Y-92291871D01*
X89774499Y-92410255D01*
X89774497Y-92410261D01*
X89749500Y-92535928D01*
X89749500Y-98779191D01*
X89729815Y-98846230D01*
X89713181Y-98866872D01*
X85394727Y-103185325D01*
X85394724Y-103185328D01*
X85362904Y-103232950D01*
X85362905Y-103232951D01*
X85323534Y-103291874D01*
X85274499Y-103410255D01*
X85274497Y-103410261D01*
X85249500Y-103535928D01*
X85249500Y-110397609D01*
X85229815Y-110464648D01*
X85177011Y-110510403D01*
X85107853Y-110520347D01*
X85044297Y-110491322D01*
X85037819Y-110485290D01*
X84921003Y-110368474D01*
X84920999Y-110368471D01*
X84809403Y-110299637D01*
X84762678Y-110247689D01*
X84750500Y-110194099D01*
X84750500Y-109935269D01*
X84770185Y-109868230D01*
X84771398Y-109866378D01*
X84798013Y-109826547D01*
X84865894Y-109662666D01*
X84900500Y-109488691D01*
X84900500Y-109311309D01*
X84900500Y-109311306D01*
X84900499Y-109311304D01*
X84865896Y-109137341D01*
X84865893Y-109137332D01*
X84798016Y-108973459D01*
X84798009Y-108973446D01*
X84699464Y-108825965D01*
X84699461Y-108825961D01*
X84574038Y-108700538D01*
X84574034Y-108700535D01*
X84426553Y-108601990D01*
X84426540Y-108601983D01*
X84262667Y-108534106D01*
X84262658Y-108534103D01*
X84088694Y-108499500D01*
X84088691Y-108499500D01*
X83911309Y-108499500D01*
X83911306Y-108499500D01*
X83737341Y-108534103D01*
X83737332Y-108534106D01*
X83573459Y-108601983D01*
X83573446Y-108601990D01*
X83425965Y-108700535D01*
X83425961Y-108700538D01*
X83300538Y-108825961D01*
X83300535Y-108825965D01*
X83201990Y-108973446D01*
X83201983Y-108973459D01*
X83134106Y-109137332D01*
X83134103Y-109137341D01*
X83099500Y-109311304D01*
X83099500Y-109488695D01*
X83134103Y-109662658D01*
X83134106Y-109662667D01*
X83201984Y-109826542D01*
X83201985Y-109826543D01*
X83201987Y-109826547D01*
X83228602Y-109866378D01*
X83249480Y-109933055D01*
X83249500Y-109935269D01*
X83249500Y-110194099D01*
X83229815Y-110261138D01*
X83190597Y-110299637D01*
X83079000Y-110368471D01*
X83078996Y-110368474D01*
X82955974Y-110491496D01*
X82955971Y-110491500D01*
X82864642Y-110639566D01*
X82864637Y-110639577D01*
X82809913Y-110804723D01*
X82799500Y-110906644D01*
X82799500Y-111493355D01*
X82809913Y-111595276D01*
X82864637Y-111760422D01*
X82864642Y-111760433D01*
X82955971Y-111908499D01*
X82955974Y-111908503D01*
X83078999Y-112031528D01*
X83080183Y-112032258D01*
X83080823Y-112032970D01*
X83084664Y-112036007D01*
X83084145Y-112036663D01*
X83126906Y-112084208D01*
X83138125Y-112153171D01*
X83110279Y-112217252D01*
X83084877Y-112239262D01*
X83084977Y-112239388D01*
X83082177Y-112241601D01*
X83080184Y-112243329D01*
X83079315Y-112243864D01*
X83079309Y-112243869D01*
X82956370Y-112366808D01*
X82865096Y-112514785D01*
X82865094Y-112514790D01*
X82810407Y-112679826D01*
X82800000Y-112781684D01*
X82800000Y-112825000D01*
X83876000Y-112825000D01*
X83943039Y-112844685D01*
X83988794Y-112897489D01*
X84000000Y-112949000D01*
X84000000Y-113075000D01*
X84126000Y-113075000D01*
X84193039Y-113094685D01*
X84238794Y-113147489D01*
X84250000Y-113199000D01*
X84250000Y-114062500D01*
X84505803Y-114062500D01*
X84505815Y-114062499D01*
X84607673Y-114052092D01*
X84772709Y-113997405D01*
X84772714Y-113997403D01*
X84920691Y-113906129D01*
X85037819Y-113789002D01*
X85099142Y-113755517D01*
X85168834Y-113760501D01*
X85224767Y-113802373D01*
X85249184Y-113867837D01*
X85249500Y-113876683D01*
X85249500Y-117779191D01*
X85229815Y-117846230D01*
X85213181Y-117866872D01*
X82562181Y-120517872D01*
X82500858Y-120551357D01*
X82431166Y-120546373D01*
X82375233Y-120504501D01*
X82350816Y-120439037D01*
X82350500Y-120430191D01*
X82350500Y-119226079D01*
X82321659Y-119081092D01*
X82321658Y-119081091D01*
X82321658Y-119081087D01*
X82265084Y-118944505D01*
X82217998Y-118874035D01*
X82217998Y-118874034D01*
X82182950Y-118821581D01*
X80865920Y-117504551D01*
X80862087Y-117501990D01*
X80783529Y-117449500D01*
X80783528Y-117449499D01*
X80743000Y-117422419D01*
X80742988Y-117422412D01*
X80606417Y-117365843D01*
X80606407Y-117365840D01*
X80461420Y-117337000D01*
X80461418Y-117337000D01*
X79174730Y-117337000D01*
X79107691Y-117317315D01*
X79087049Y-117300681D01*
X79018657Y-117232289D01*
X79018656Y-117232288D01*
X78925888Y-117175069D01*
X78869336Y-117140187D01*
X78869331Y-117140185D01*
X78837318Y-117129577D01*
X78702797Y-117085001D01*
X78702795Y-117085000D01*
X78600010Y-117074500D01*
X77599998Y-117074500D01*
X77599980Y-117074501D01*
X77497203Y-117085000D01*
X77497200Y-117085001D01*
X77330668Y-117140185D01*
X77330663Y-117140187D01*
X77181342Y-117232289D01*
X77162681Y-117250951D01*
X77101358Y-117284436D01*
X77031666Y-117279452D01*
X77002557Y-117263908D01*
X76994415Y-117258047D01*
X76943656Y-117207288D01*
X76805643Y-117122161D01*
X76802057Y-117119580D01*
X76783207Y-117095356D01*
X76762679Y-117072533D01*
X76761537Y-117067508D01*
X76759148Y-117064438D01*
X76758032Y-117052086D01*
X76750500Y-117018942D01*
X76750500Y-116412229D01*
X76770185Y-116345190D01*
X76786819Y-116324548D01*
X76849549Y-116261818D01*
X76910872Y-116228333D01*
X76937230Y-116225499D01*
X77350002Y-116225499D01*
X77350008Y-116225499D01*
X77452797Y-116214999D01*
X77619334Y-116159814D01*
X77768656Y-116067712D01*
X77892712Y-115943656D01*
X77894752Y-115940347D01*
X77896745Y-115938555D01*
X77897193Y-115937989D01*
X77897289Y-115938065D01*
X77946694Y-115893623D01*
X78015656Y-115882395D01*
X78079740Y-115910234D01*
X78105829Y-115940339D01*
X78107681Y-115943341D01*
X78107683Y-115943344D01*
X78231654Y-116067315D01*
X78380875Y-116159356D01*
X78380880Y-116159358D01*
X78547302Y-116214505D01*
X78547309Y-116214506D01*
X78650019Y-116224999D01*
X79200000Y-116224999D01*
X79249972Y-116224999D01*
X79249986Y-116224998D01*
X79352697Y-116214505D01*
X79519119Y-116159358D01*
X79519124Y-116159356D01*
X79668345Y-116067315D01*
X79792315Y-115943345D01*
X79884356Y-115794124D01*
X79884358Y-115794119D01*
X79939505Y-115627697D01*
X79939506Y-115627690D01*
X79949999Y-115524986D01*
X79950000Y-115524973D01*
X79950000Y-115250000D01*
X79200000Y-115250000D01*
X79200000Y-116224999D01*
X78650019Y-116224999D01*
X78699999Y-116224998D01*
X78700000Y-116224998D01*
X78700000Y-114750000D01*
X79200000Y-114750000D01*
X79949999Y-114750000D01*
X79949999Y-114475028D01*
X79949998Y-114475013D01*
X79939505Y-114372302D01*
X79884358Y-114205880D01*
X79884356Y-114205875D01*
X79792315Y-114056654D01*
X79668345Y-113932684D01*
X79519124Y-113840643D01*
X79519119Y-113840641D01*
X79352697Y-113785494D01*
X79352690Y-113785493D01*
X79249986Y-113775000D01*
X79200000Y-113775000D01*
X79200000Y-114750000D01*
X78700000Y-114750000D01*
X78700000Y-113775000D01*
X78699999Y-113774999D01*
X78650029Y-113775000D01*
X78650011Y-113775001D01*
X78547302Y-113785494D01*
X78380880Y-113840641D01*
X78380875Y-113840643D01*
X78231654Y-113932684D01*
X78107683Y-114056655D01*
X78107679Y-114056660D01*
X78105826Y-114059665D01*
X78104018Y-114061290D01*
X78103202Y-114062323D01*
X78103025Y-114062183D01*
X78083924Y-114079360D01*
X78063923Y-114100989D01*
X78058238Y-114102460D01*
X78053874Y-114106385D01*
X78024802Y-114111113D01*
X77996282Y-114118494D01*
X77990705Y-114116658D01*
X77984911Y-114117601D01*
X77957896Y-114105860D01*
X77929914Y-114096651D01*
X77925135Y-114091622D01*
X77920831Y-114089752D01*
X77904002Y-114072688D01*
X77898960Y-114066474D01*
X77892712Y-114056344D01*
X77882261Y-114045893D01*
X77878209Y-114040899D01*
X77867112Y-114014362D01*
X77853334Y-113989128D01*
X77852216Y-113978737D01*
X77851255Y-113976437D01*
X77851699Y-113973925D01*
X77850500Y-113962770D01*
X77850500Y-113368315D01*
X82800000Y-113368315D01*
X82810407Y-113470173D01*
X82865094Y-113635209D01*
X82865096Y-113635214D01*
X82956370Y-113783191D01*
X83079308Y-113906129D01*
X83227285Y-113997403D01*
X83227290Y-113997405D01*
X83392326Y-114052092D01*
X83494184Y-114062499D01*
X83494197Y-114062500D01*
X83750000Y-114062500D01*
X83750000Y-113325000D01*
X82800000Y-113325000D01*
X82800000Y-113368315D01*
X77850500Y-113368315D01*
X77850500Y-113087230D01*
X77870185Y-113020191D01*
X77886819Y-112999549D01*
X77895410Y-112990958D01*
X77942712Y-112943656D01*
X77944752Y-112940347D01*
X77946745Y-112938555D01*
X77947193Y-112937989D01*
X77947289Y-112938065D01*
X77996694Y-112893623D01*
X78065656Y-112882395D01*
X78129740Y-112910234D01*
X78155829Y-112940339D01*
X78157681Y-112943341D01*
X78157683Y-112943344D01*
X78281654Y-113067315D01*
X78430875Y-113159356D01*
X78430880Y-113159358D01*
X78597302Y-113214505D01*
X78597309Y-113214506D01*
X78700019Y-113224999D01*
X79250000Y-113224999D01*
X79299972Y-113224999D01*
X79299986Y-113224998D01*
X79402697Y-113214505D01*
X79569121Y-113159357D01*
X79718345Y-113067315D01*
X79842315Y-112943345D01*
X79934356Y-112794124D01*
X79934358Y-112794119D01*
X79989505Y-112627697D01*
X79989506Y-112627690D01*
X79999999Y-112524986D01*
X80000000Y-112524973D01*
X80000000Y-112250000D01*
X79250000Y-112250000D01*
X79250000Y-113224999D01*
X78700019Y-113224999D01*
X78749999Y-113224998D01*
X78750000Y-113224998D01*
X78750000Y-111750000D01*
X79250000Y-111750000D01*
X79999999Y-111750000D01*
X79999999Y-111475028D01*
X79999998Y-111475013D01*
X79989505Y-111372302D01*
X79934358Y-111205880D01*
X79934356Y-111205875D01*
X79842315Y-111056654D01*
X79718345Y-110932684D01*
X79569124Y-110840643D01*
X79569119Y-110840641D01*
X79402697Y-110785494D01*
X79402690Y-110785493D01*
X79299986Y-110775000D01*
X79250000Y-110775000D01*
X79250000Y-111750000D01*
X78750000Y-111750000D01*
X78750000Y-110775000D01*
X78749999Y-110774999D01*
X78700029Y-110775000D01*
X78700011Y-110775001D01*
X78597302Y-110785494D01*
X78430880Y-110840641D01*
X78430875Y-110840643D01*
X78281654Y-110932684D01*
X78157683Y-111056655D01*
X78157679Y-111056660D01*
X78155826Y-111059665D01*
X78154018Y-111061290D01*
X78153202Y-111062323D01*
X78153025Y-111062183D01*
X78103874Y-111106385D01*
X78034911Y-111117601D01*
X77970831Y-111089752D01*
X77963185Y-111082810D01*
X77952579Y-111072341D01*
X77942712Y-111056344D01*
X77818656Y-110932288D01*
X77797415Y-110919186D01*
X77787392Y-110909293D01*
X77777003Y-110890559D01*
X77762678Y-110874632D01*
X77758863Y-110857847D01*
X77753508Y-110848189D01*
X77754210Y-110837371D01*
X77750500Y-110821042D01*
X77750500Y-110474500D01*
X77770185Y-110407461D01*
X77822989Y-110361706D01*
X77874500Y-110350500D01*
X78573920Y-110350500D01*
X78671462Y-110331096D01*
X78718913Y-110321658D01*
X78844334Y-110269707D01*
X78855488Y-110265087D01*
X78855488Y-110265086D01*
X78855495Y-110265084D01*
X78978416Y-110182951D01*
X79082951Y-110078416D01*
X79165084Y-109955495D01*
X79190440Y-109894278D01*
X79234280Y-109839875D01*
X79300574Y-109817810D01*
X79368274Y-109835089D01*
X79392682Y-109854050D01*
X79721584Y-110182952D01*
X79738267Y-110194099D01*
X79778101Y-110220715D01*
X79778112Y-110220722D01*
X79779513Y-110221658D01*
X79844505Y-110265084D01*
X79846461Y-110265894D01*
X79981088Y-110321659D01*
X80097241Y-110344763D01*
X80116468Y-110348587D01*
X80126081Y-110350500D01*
X80126082Y-110350500D01*
X81473920Y-110350500D01*
X81571462Y-110331096D01*
X81618913Y-110321658D01*
X81744334Y-110269707D01*
X81755493Y-110265085D01*
X81755493Y-110265084D01*
X81755495Y-110265084D01*
X81820487Y-110221658D01*
X81820487Y-110221657D01*
X81820489Y-110221657D01*
X81834969Y-110211981D01*
X81878416Y-110182952D01*
X82332952Y-109728416D01*
X82376883Y-109662666D01*
X82378746Y-109659878D01*
X82378747Y-109659875D01*
X82382186Y-109654729D01*
X82415084Y-109605495D01*
X82438518Y-109548920D01*
X82471659Y-109468912D01*
X82498600Y-109333469D01*
X82500500Y-109323918D01*
X82500500Y-108932328D01*
X82505424Y-108897733D01*
X82547597Y-108752573D01*
X82547598Y-108752567D01*
X82550499Y-108715701D01*
X82550500Y-108715694D01*
X82550500Y-107559306D01*
X82547598Y-107522431D01*
X82501744Y-107364602D01*
X82418081Y-107223135D01*
X82418079Y-107223133D01*
X82418076Y-107223129D01*
X82301870Y-107106923D01*
X82301867Y-107106921D01*
X82301865Y-107106919D01*
X82301549Y-107106732D01*
X82301353Y-107106522D01*
X82295702Y-107102139D01*
X82296409Y-107101227D01*
X82253866Y-107055664D01*
X82241362Y-106986923D01*
X82268006Y-106922333D01*
X82295921Y-106898144D01*
X82295702Y-106897861D01*
X82300911Y-106893820D01*
X82301550Y-106893267D01*
X82301865Y-106893081D01*
X82418081Y-106776865D01*
X82501744Y-106635398D01*
X82547598Y-106477569D01*
X82550500Y-106440694D01*
X82550500Y-105284306D01*
X82547598Y-105247431D01*
X82541361Y-105225965D01*
X82501745Y-105089606D01*
X82501744Y-105089603D01*
X82501744Y-105089602D01*
X82418081Y-104948135D01*
X82418079Y-104948133D01*
X82418076Y-104948129D01*
X82301870Y-104831923D01*
X82301862Y-104831917D01*
X82160396Y-104748255D01*
X82160393Y-104748254D01*
X82002573Y-104702402D01*
X82002567Y-104702401D01*
X81965701Y-104699500D01*
X81965694Y-104699500D01*
X81534306Y-104699500D01*
X81534298Y-104699500D01*
X81497432Y-104702401D01*
X81497426Y-104702402D01*
X81339606Y-104748254D01*
X81339603Y-104748255D01*
X81198137Y-104831917D01*
X81198129Y-104831923D01*
X81081923Y-104948129D01*
X81081917Y-104948137D01*
X80998255Y-105089603D01*
X80998254Y-105089606D01*
X80952402Y-105247426D01*
X80952401Y-105247432D01*
X80949500Y-105284298D01*
X80949500Y-106440701D01*
X80952401Y-106477567D01*
X80952402Y-106477573D01*
X80998254Y-106635393D01*
X80998255Y-106635396D01*
X81081917Y-106776862D01*
X81086702Y-106783031D01*
X81085018Y-106784336D01*
X81113246Y-106836031D01*
X81108262Y-106905723D01*
X81076234Y-106953461D01*
X81050000Y-106977702D01*
X81050000Y-107243184D01*
X81032733Y-107306304D01*
X80998254Y-107364605D01*
X80998254Y-107364606D01*
X80952402Y-107522426D01*
X80952401Y-107522432D01*
X80949500Y-107559298D01*
X80949500Y-108013500D01*
X80946949Y-108022185D01*
X80948238Y-108031147D01*
X80937259Y-108055187D01*
X80929815Y-108080539D01*
X80922974Y-108086466D01*
X80919213Y-108094703D01*
X80896978Y-108108992D01*
X80877011Y-108126294D01*
X80866496Y-108128581D01*
X80860435Y-108132477D01*
X80825500Y-108137500D01*
X80774500Y-108137500D01*
X80707461Y-108117815D01*
X80661706Y-108065011D01*
X80650500Y-108013500D01*
X80650500Y-107559313D01*
X80650499Y-107559298D01*
X80647598Y-107522432D01*
X80647597Y-107522426D01*
X80601745Y-107364606D01*
X80601745Y-107364605D01*
X80601744Y-107364603D01*
X80601744Y-107364602D01*
X80567267Y-107306304D01*
X80550000Y-107243184D01*
X80550000Y-106977702D01*
X80523765Y-106953461D01*
X80487887Y-106893507D01*
X80490118Y-106823673D01*
X80514533Y-106783988D01*
X80513298Y-106783031D01*
X80518075Y-106776870D01*
X80518081Y-106776865D01*
X80601744Y-106635398D01*
X80647598Y-106477569D01*
X80650500Y-106440694D01*
X80650500Y-105284306D01*
X80647598Y-105247431D01*
X80647597Y-105247426D01*
X80605424Y-105102265D01*
X80600500Y-105067670D01*
X80600500Y-105045207D01*
X80609939Y-104997755D01*
X80644573Y-104914140D01*
X80665894Y-104862666D01*
X80700500Y-104688691D01*
X80700500Y-104511309D01*
X80700500Y-104511306D01*
X80700499Y-104511304D01*
X80665896Y-104337341D01*
X80665893Y-104337332D01*
X80598016Y-104173459D01*
X80598009Y-104173446D01*
X80499464Y-104025965D01*
X80499461Y-104025961D01*
X80374038Y-103900538D01*
X80374034Y-103900535D01*
X80226553Y-103801990D01*
X80226540Y-103801983D01*
X80062667Y-103734106D01*
X80062658Y-103734103D01*
X79888694Y-103699500D01*
X79888691Y-103699500D01*
X79711309Y-103699500D01*
X79711306Y-103699500D01*
X79537341Y-103734103D01*
X79537332Y-103734106D01*
X79373459Y-103801983D01*
X79373446Y-103801990D01*
X79225965Y-103900535D01*
X79225961Y-103900538D01*
X79100538Y-104025961D01*
X79100535Y-104025965D01*
X79001990Y-104173446D01*
X79001983Y-104173459D01*
X78934106Y-104337332D01*
X78934103Y-104337341D01*
X78899500Y-104511304D01*
X78899500Y-104688695D01*
X78934103Y-104862658D01*
X78934106Y-104862667D01*
X79001986Y-105026546D01*
X79009199Y-105037341D01*
X79049762Y-105098048D01*
X79070640Y-105164724D01*
X79065737Y-105201532D01*
X79052402Y-105247431D01*
X79052401Y-105247436D01*
X79049500Y-105284298D01*
X79049500Y-106440701D01*
X79052401Y-106477567D01*
X79052402Y-106477573D01*
X79098254Y-106635393D01*
X79098255Y-106635396D01*
X79181917Y-106776862D01*
X79181923Y-106776870D01*
X79298129Y-106893076D01*
X79298140Y-106893085D01*
X79298455Y-106893271D01*
X79298650Y-106893480D01*
X79304298Y-106897861D01*
X79303591Y-106898772D01*
X79346136Y-106944343D01*
X79358637Y-107013085D01*
X79331988Y-107077673D01*
X79304078Y-107101856D01*
X79304298Y-107102139D01*
X79299092Y-107106176D01*
X79298455Y-107106729D01*
X79298140Y-107106914D01*
X79298129Y-107106923D01*
X79181923Y-107223129D01*
X79181917Y-107223137D01*
X79098255Y-107364603D01*
X79098254Y-107364606D01*
X79052402Y-107522426D01*
X79052401Y-107522432D01*
X79049500Y-107559298D01*
X79049500Y-107825270D01*
X79029815Y-107892309D01*
X79013181Y-107912951D01*
X78112951Y-108813181D01*
X78086023Y-108827884D01*
X78060205Y-108844477D01*
X78054004Y-108845368D01*
X78051628Y-108846666D01*
X78025270Y-108849500D01*
X77874500Y-108849500D01*
X77807461Y-108829815D01*
X77761706Y-108777011D01*
X77750500Y-108725500D01*
X77750500Y-106926079D01*
X77721659Y-106781092D01*
X77721658Y-106781091D01*
X77721658Y-106781087D01*
X77714028Y-106762666D01*
X77665085Y-106644507D01*
X77658998Y-106635396D01*
X77605609Y-106555494D01*
X77582952Y-106521584D01*
X77409175Y-106347807D01*
X77375690Y-106286484D01*
X77375262Y-106284432D01*
X77365894Y-106237334D01*
X77336303Y-106165894D01*
X77298016Y-106073459D01*
X77298009Y-106073446D01*
X77199464Y-105925965D01*
X77199461Y-105925961D01*
X77074038Y-105800538D01*
X77074034Y-105800535D01*
X76926553Y-105701990D01*
X76926540Y-105701983D01*
X76762667Y-105634106D01*
X76762658Y-105634103D01*
X76588694Y-105599500D01*
X76588691Y-105599500D01*
X76411309Y-105599500D01*
X76411306Y-105599500D01*
X76237341Y-105634103D01*
X76237332Y-105634106D01*
X76073459Y-105701983D01*
X76073446Y-105701990D01*
X75925965Y-105800535D01*
X75925961Y-105800538D01*
X75800538Y-105925961D01*
X75709101Y-106062805D01*
X75655488Y-106107609D01*
X75586163Y-106116316D01*
X75523136Y-106086161D01*
X75486417Y-106026718D01*
X75484382Y-105969721D01*
X75500500Y-105888693D01*
X75500500Y-105711306D01*
X75500499Y-105711304D01*
X75465896Y-105537341D01*
X75465893Y-105537332D01*
X75457490Y-105517046D01*
X75407628Y-105396666D01*
X75398016Y-105373459D01*
X75398009Y-105373446D01*
X75299464Y-105225965D01*
X75299461Y-105225961D01*
X75174038Y-105100538D01*
X75174034Y-105100535D01*
X75026553Y-105001990D01*
X75026540Y-105001983D01*
X74862670Y-104934107D01*
X74862660Y-104934104D01*
X74815679Y-104924759D01*
X74753768Y-104892374D01*
X74752190Y-104890823D01*
X73359212Y-103497844D01*
X74940000Y-103497844D01*
X74946401Y-103557372D01*
X74946403Y-103557379D01*
X74996645Y-103692086D01*
X74996649Y-103692093D01*
X75082809Y-103807187D01*
X75082812Y-103807190D01*
X75197906Y-103893350D01*
X75197913Y-103893354D01*
X75332620Y-103943596D01*
X75332627Y-103943598D01*
X75392155Y-103949999D01*
X75392172Y-103950000D01*
X75940000Y-103950000D01*
X76440000Y-103950000D01*
X76987828Y-103950000D01*
X76987844Y-103949999D01*
X77047372Y-103943598D01*
X77047379Y-103943596D01*
X77182086Y-103893354D01*
X77182093Y-103893350D01*
X77297187Y-103807190D01*
X77297190Y-103807187D01*
X77383350Y-103692093D01*
X77383354Y-103692086D01*
X77433596Y-103557379D01*
X77433598Y-103557372D01*
X77439999Y-103497844D01*
X77440000Y-103497827D01*
X77440000Y-103250000D01*
X76440000Y-103250000D01*
X76440000Y-103950000D01*
X75940000Y-103950000D01*
X75940000Y-103250000D01*
X74940000Y-103250000D01*
X74940000Y-103497844D01*
X73359212Y-103497844D01*
X73147687Y-103286319D01*
X72478421Y-102617052D01*
X72478420Y-102617051D01*
X72453649Y-102600500D01*
X72378758Y-102550460D01*
X72378758Y-102550459D01*
X72355495Y-102534916D01*
X72355490Y-102534913D01*
X72218917Y-102478343D01*
X72218908Y-102478340D01*
X72131906Y-102461034D01*
X72087209Y-102442520D01*
X72050933Y-102418281D01*
X72026547Y-102401987D01*
X72026545Y-102401986D01*
X72026542Y-102401984D01*
X71862667Y-102334106D01*
X71862658Y-102334103D01*
X71688694Y-102299500D01*
X71688691Y-102299500D01*
X71511309Y-102299500D01*
X71511306Y-102299500D01*
X71337341Y-102334103D01*
X71337337Y-102334105D01*
X71337335Y-102334105D01*
X71337334Y-102334106D01*
X71313170Y-102344115D01*
X71192797Y-102393974D01*
X71123328Y-102401442D01*
X71060849Y-102370166D01*
X71025197Y-102310077D01*
X71027692Y-102240252D01*
X71046969Y-102203928D01*
X71099108Y-102135980D01*
X71127474Y-102099013D01*
X71183902Y-102057811D01*
X71225849Y-102050500D01*
X74857209Y-102050500D01*
X74924248Y-102070185D01*
X74970003Y-102122989D01*
X74973391Y-102131167D01*
X74999303Y-102200641D01*
X74997733Y-102201226D01*
X75010383Y-102259367D01*
X74998687Y-102299206D01*
X74999746Y-102299601D01*
X74946403Y-102442620D01*
X74946401Y-102442627D01*
X74940000Y-102502155D01*
X74940000Y-102750000D01*
X77440000Y-102750000D01*
X77440000Y-102502172D01*
X77439999Y-102502155D01*
X77433598Y-102442627D01*
X77433597Y-102442623D01*
X77380253Y-102299602D01*
X77382067Y-102298925D01*
X77369616Y-102241674D01*
X77381570Y-102200966D01*
X77380696Y-102200640D01*
X77383794Y-102192333D01*
X77383796Y-102192331D01*
X77434091Y-102057483D01*
X77440500Y-101997873D01*
X77440499Y-101002128D01*
X77434091Y-100942517D01*
X77387585Y-100817829D01*
X77385396Y-100787223D01*
X77381030Y-100756853D01*
X77382927Y-100752697D01*
X77382602Y-100748142D01*
X77397307Y-100721210D01*
X77410055Y-100693297D01*
X77413897Y-100690827D01*
X77416086Y-100686819D01*
X77443017Y-100672113D01*
X77468833Y-100655523D01*
X77475033Y-100654631D01*
X77477410Y-100653334D01*
X77503768Y-100650500D01*
X77664730Y-100650500D01*
X77731769Y-100670185D01*
X77733622Y-100671399D01*
X77773447Y-100698010D01*
X77773450Y-100698011D01*
X77773453Y-100698013D01*
X77937334Y-100765894D01*
X77937336Y-100765894D01*
X77937341Y-100765896D01*
X78111304Y-100800499D01*
X78111307Y-100800500D01*
X78111309Y-100800500D01*
X78288693Y-100800500D01*
X78288694Y-100800499D01*
X78355439Y-100787223D01*
X78462658Y-100765896D01*
X78462661Y-100765894D01*
X78462666Y-100765894D01*
X78602535Y-100707958D01*
X78626540Y-100698016D01*
X78626540Y-100698015D01*
X78626547Y-100698013D01*
X78774035Y-100599464D01*
X78899464Y-100474035D01*
X78998013Y-100326547D01*
X79001403Y-100318364D01*
X79029941Y-100249464D01*
X79065894Y-100162666D01*
X79066930Y-100157461D01*
X79096001Y-100011309D01*
X79100500Y-99988691D01*
X79100500Y-99811309D01*
X79100500Y-99811306D01*
X79100499Y-99811304D01*
X79065896Y-99637341D01*
X79065893Y-99637332D01*
X78998016Y-99473459D01*
X78998009Y-99473446D01*
X78899464Y-99325965D01*
X78899461Y-99325961D01*
X78774038Y-99200538D01*
X78774034Y-99200535D01*
X78626553Y-99101990D01*
X78626540Y-99101983D01*
X78462667Y-99034106D01*
X78462658Y-99034103D01*
X78288694Y-98999500D01*
X78288691Y-98999500D01*
X78111309Y-98999500D01*
X78111306Y-98999500D01*
X77937341Y-99034103D01*
X77937332Y-99034106D01*
X77773452Y-99101987D01*
X77773447Y-99101989D01*
X77733622Y-99128601D01*
X77715575Y-99134252D01*
X77699665Y-99144477D01*
X77668707Y-99148928D01*
X77666945Y-99149480D01*
X77664730Y-99149500D01*
X77562244Y-99149500D01*
X77495205Y-99129815D01*
X77449450Y-99077011D01*
X77438954Y-99012247D01*
X77440500Y-98997873D01*
X77440499Y-98002128D01*
X77434091Y-97942517D01*
X77383796Y-97807669D01*
X77383794Y-97807666D01*
X77380696Y-97799360D01*
X77382426Y-97798714D01*
X77369902Y-97741163D01*
X77381691Y-97701011D01*
X77380696Y-97700640D01*
X77383794Y-97692333D01*
X77383796Y-97692331D01*
X77434091Y-97557483D01*
X77440500Y-97497873D01*
X77440499Y-96502128D01*
X77434091Y-96442517D01*
X77383796Y-96307669D01*
X77383794Y-96307666D01*
X77380696Y-96299360D01*
X77382426Y-96298714D01*
X77369902Y-96241163D01*
X77381691Y-96201011D01*
X77380696Y-96200640D01*
X77383794Y-96192333D01*
X77383796Y-96192331D01*
X77434091Y-96057483D01*
X77440500Y-95997873D01*
X77440499Y-95002128D01*
X77434091Y-94942517D01*
X77383796Y-94807669D01*
X77383794Y-94807666D01*
X77380696Y-94799360D01*
X77382426Y-94798714D01*
X77369902Y-94741163D01*
X77381691Y-94701011D01*
X77380696Y-94700640D01*
X77383794Y-94692333D01*
X77383796Y-94692331D01*
X77434091Y-94557483D01*
X77440500Y-94497873D01*
X77440499Y-93502128D01*
X77434091Y-93442517D01*
X77433262Y-93434804D01*
X77435028Y-93434614D01*
X77438242Y-93374526D01*
X77479102Y-93317849D01*
X77544117Y-93292260D01*
X77579375Y-93294147D01*
X77598310Y-93297914D01*
X77611308Y-93300500D01*
X77611309Y-93300500D01*
X77788693Y-93300500D01*
X77788694Y-93300499D01*
X77862648Y-93285789D01*
X77962658Y-93265896D01*
X77962661Y-93265894D01*
X77962666Y-93265894D01*
X78126547Y-93198013D01*
X78274035Y-93099464D01*
X78399464Y-92974035D01*
X78498013Y-92826547D01*
X78565894Y-92662666D01*
X78571957Y-92632189D01*
X78600499Y-92488695D01*
X78600500Y-92488693D01*
X78600500Y-92311306D01*
X78600499Y-92311304D01*
X78565896Y-92137341D01*
X78565893Y-92137332D01*
X78498016Y-91973459D01*
X78498014Y-91973455D01*
X78498013Y-91973453D01*
X78458778Y-91914734D01*
X78411108Y-91843391D01*
X78390230Y-91776714D01*
X78408714Y-91709334D01*
X78460693Y-91662643D01*
X78514210Y-91650500D01*
X82437769Y-91650500D01*
X82467205Y-91659143D01*
X82497195Y-91665667D01*
X82502212Y-91669422D01*
X82504808Y-91670185D01*
X82525450Y-91686818D01*
X82613181Y-91774548D01*
X82646666Y-91835871D01*
X82649500Y-91862230D01*
X82649500Y-91864729D01*
X82643025Y-91886779D01*
X82641682Y-91905563D01*
X82634816Y-91914734D01*
X82629815Y-91931768D01*
X82628602Y-91933620D01*
X82601988Y-91973449D01*
X82601987Y-91973452D01*
X82534106Y-92137332D01*
X82534103Y-92137341D01*
X82499500Y-92311304D01*
X82499500Y-92488695D01*
X82534103Y-92662658D01*
X82534106Y-92662667D01*
X82601984Y-92826542D01*
X82601985Y-92826543D01*
X82601987Y-92826547D01*
X82628280Y-92865896D01*
X82628602Y-92866378D01*
X82649480Y-92933055D01*
X82649500Y-92935269D01*
X82649500Y-98925638D01*
X82629815Y-98992677D01*
X82613181Y-99013319D01*
X82600538Y-99025961D01*
X82600535Y-99025965D01*
X82501990Y-99173446D01*
X82501983Y-99173459D01*
X82434106Y-99337332D01*
X82434103Y-99337341D01*
X82399500Y-99511304D01*
X82399500Y-99688695D01*
X82434103Y-99862658D01*
X82434106Y-99862667D01*
X82501983Y-100026540D01*
X82501990Y-100026553D01*
X82600535Y-100174034D01*
X82600538Y-100174038D01*
X82725961Y-100299461D01*
X82725965Y-100299464D01*
X82873446Y-100398009D01*
X82873459Y-100398016D01*
X82982089Y-100443011D01*
X83037334Y-100465894D01*
X83037336Y-100465894D01*
X83037341Y-100465896D01*
X83211304Y-100500499D01*
X83211307Y-100500500D01*
X83211309Y-100500500D01*
X83388693Y-100500500D01*
X83388694Y-100500499D01*
X83446682Y-100488964D01*
X83562658Y-100465896D01*
X83562661Y-100465894D01*
X83562666Y-100465894D01*
X83702535Y-100407958D01*
X83726540Y-100398016D01*
X83726540Y-100398015D01*
X83726547Y-100398013D01*
X83874035Y-100299464D01*
X83999464Y-100174035D01*
X84098013Y-100026547D01*
X84165894Y-99862666D01*
X84170932Y-99837341D01*
X84196001Y-99711309D01*
X84200500Y-99688691D01*
X84200500Y-99511309D01*
X84200500Y-99511306D01*
X84200499Y-99511304D01*
X84165896Y-99337341D01*
X84165894Y-99337338D01*
X84165894Y-99337334D01*
X84159937Y-99322953D01*
X84150500Y-99275505D01*
X84150500Y-92935269D01*
X84170185Y-92868230D01*
X84171398Y-92866378D01*
X84171720Y-92865896D01*
X84198013Y-92826547D01*
X84265894Y-92662666D01*
X84271957Y-92632189D01*
X84300499Y-92488695D01*
X84300500Y-92488693D01*
X84300500Y-92311306D01*
X84300499Y-92311304D01*
X84265896Y-92137341D01*
X84265893Y-92137332D01*
X84245747Y-92088695D01*
X84198013Y-91973453D01*
X84198011Y-91973451D01*
X84198011Y-91973449D01*
X84171398Y-91933620D01*
X84150520Y-91866942D01*
X84150500Y-91864729D01*
X84150500Y-91426079D01*
X84121659Y-91281092D01*
X84121658Y-91281091D01*
X84121658Y-91281087D01*
X84108574Y-91249500D01*
X84065087Y-91144511D01*
X84065080Y-91144498D01*
X83982952Y-91021585D01*
X83960867Y-90999500D01*
X83878416Y-90917049D01*
X83673547Y-90712179D01*
X83640063Y-90650858D01*
X83645047Y-90581166D01*
X83686919Y-90525233D01*
X83752383Y-90500816D01*
X83761229Y-90500500D01*
X91280192Y-90500500D01*
X91347231Y-90520185D01*
G37*
G04 #@! TD.AperFunction*
G04 #@! TA.AperFunction,Conductor*
G36*
X100016941Y-115970185D02*
G01*
X100037583Y-115986819D01*
X100101284Y-116050520D01*
X100139236Y-116072431D01*
X100140914Y-116073473D01*
X100162935Y-116098104D01*
X100185713Y-116121993D01*
X100186242Y-116124175D01*
X100187481Y-116125561D01*
X100189217Y-116136436D01*
X100199499Y-116178815D01*
X100199499Y-116289046D01*
X100199500Y-116289059D01*
X100199500Y-116361340D01*
X100179815Y-116428379D01*
X100127011Y-116474134D01*
X100107594Y-116481115D01*
X99998214Y-116510423D01*
X99998211Y-116510425D01*
X99929158Y-116550292D01*
X99861258Y-116566763D01*
X99812826Y-116550000D01*
X99531815Y-116550000D01*
X99468694Y-116532732D01*
X99430971Y-116510423D01*
X99410398Y-116498256D01*
X99410397Y-116498255D01*
X99410396Y-116498255D01*
X99410393Y-116498254D01*
X99252573Y-116452402D01*
X99252567Y-116452401D01*
X99215701Y-116449500D01*
X99215694Y-116449500D01*
X98761500Y-116449500D01*
X98752814Y-116446949D01*
X98743853Y-116448238D01*
X98719812Y-116437259D01*
X98694461Y-116429815D01*
X98688533Y-116422974D01*
X98680297Y-116419213D01*
X98666007Y-116396978D01*
X98648706Y-116377011D01*
X98646418Y-116366496D01*
X98642523Y-116360435D01*
X98637500Y-116325500D01*
X98637500Y-116274500D01*
X98657185Y-116207461D01*
X98709989Y-116161706D01*
X98761500Y-116150500D01*
X99215686Y-116150500D01*
X99215694Y-116150500D01*
X99252569Y-116147598D01*
X99252571Y-116147597D01*
X99252573Y-116147597D01*
X99328420Y-116125561D01*
X99410398Y-116101744D01*
X99468694Y-116067268D01*
X99531815Y-116050000D01*
X99797295Y-116050000D01*
X99810087Y-116036161D01*
X99814355Y-116015848D01*
X99824117Y-116005946D01*
X99829894Y-115993297D01*
X99848164Y-115981555D01*
X99863409Y-115966093D01*
X99878177Y-115962267D01*
X99888672Y-115955523D01*
X99923607Y-115950500D01*
X99949902Y-115950500D01*
X100016941Y-115970185D01*
G37*
G04 #@! TD.AperFunction*
G04 #@! TA.AperFunction,Conductor*
G36*
X101789685Y-112822550D02*
G01*
X101798647Y-112821262D01*
X101822687Y-112832240D01*
X101848039Y-112839685D01*
X101853966Y-112846525D01*
X101862203Y-112850287D01*
X101876492Y-112872521D01*
X101893794Y-112892489D01*
X101896081Y-112903003D01*
X101899977Y-112909065D01*
X101905000Y-112944000D01*
X101905000Y-112945500D01*
X101885315Y-113012539D01*
X101832511Y-113058294D01*
X101781000Y-113069500D01*
X101132129Y-113069500D01*
X101132123Y-113069501D01*
X101072517Y-113075908D01*
X101042058Y-113087268D01*
X100972366Y-113092249D01*
X100929845Y-113074190D01*
X100926555Y-113071992D01*
X100926551Y-113071990D01*
X100926547Y-113071987D01*
X100926543Y-113071985D01*
X100926539Y-113071983D01*
X100894134Y-113058561D01*
X100839730Y-113014720D01*
X100817665Y-112948426D01*
X100834944Y-112880727D01*
X100886081Y-112833116D01*
X100941586Y-112820000D01*
X101781000Y-112820000D01*
X101789685Y-112822550D01*
G37*
G04 #@! TD.AperFunction*
G04 #@! TD*
M02*
