M48
; DRILL file {KiCad 9.0.5} date 2025-10-15T09:52:21+0200
; FORMAT={-:-/ absolute / metric / decimal}
; #@! TF.CreationDate,2025-10-15T09:52:21+02:00
; #@! TF.GenerationSoftware,Kicad,Pcbnew,9.0.5
; #@! TF.FileFunction,Plated,1,4,PTH
FMAT,2
METRIC
; #@! TA.AperFunction,Plated,PTH,ComponentDrill
T1C0.300
; #@! TA.AperFunction,Plated,PTH,ViaDrill
T2C0.350
; #@! TA.AperFunction,Plated,PTH,ComponentDrill
T3C0.600
; #@! TA.AperFunction,Plated,PTH,ComponentDrill
T4C0.750
%
G90
G05
T1
X66.045Y-118.7
X66.045Y-120.0
X66.045Y-121.3
X67.955Y-118.7
X67.955Y-120.0
X67.955Y-121.3
X84.8Y-96.65
X84.8Y-97.75
X85.35Y-96.1
X85.35Y-97.2
X85.35Y-98.3
X85.9Y-96.65
X85.9Y-97.75
X86.45Y-96.1
X86.45Y-97.2
X86.45Y-98.3
X87.0Y-96.65
X87.0Y-97.75
T2
X64.2Y-99.7
X64.7Y-110.3
X68.8Y-95.1
X69.6Y-98.8
X69.7Y-95.9
X69.85Y-97.15
X70.5Y-99.8
X71.6Y-103.2
X73.0Y-92.0
X73.5Y-95.7
X73.55Y-99.55
X74.6Y-105.8
X77.0Y-109.5
X77.7Y-92.4
X78.2Y-99.9
X79.8Y-104.6
X81.6Y-126.6
X82.9Y-104.4
X83.3Y-99.6
X83.4Y-92.4
X83.6Y-115.7
X84.0Y-109.4
X84.4Y-122.6
X85.7Y-126.2
X89.45Y-120.15
X91.85Y-101.85
X93.6Y-104.9
X95.0Y-125.6
X95.2Y-100.1
X95.4Y-94.3
X96.9Y-91.7
X99.904Y-116.337
X100.5Y-113.87
X100.5Y-118.7
X102.6Y-94.7
X102.6Y-100.6
X104.2Y-106.7
X105.0Y-113.8
X105.1Y-118.3
X107.3Y-91.9
X107.5Y-101.6
T4
X65.0Y-134.55
X67.0Y-134.55
X82.0Y-134.55
X84.0Y-134.55
X86.0Y-134.55
X88.0Y-134.55
X95.0Y-134.55
X97.0Y-134.55
X99.0Y-134.55
T3
G00X102.27Y-112.0
M15
G01X103.37Y-112.0
M16
G05
G00X102.27Y-120.64
M15
G01X103.37Y-120.64
M16
G05
G00X106.7Y-112.0
M15
G01X107.3Y-112.0
M16
G05
G00X106.7Y-120.64
M15
G01X107.3Y-120.64
M16
G05
M30
