G04 #@! TF.GenerationSoftware,KiCad,Pcbnew,9.0.5*
G04 #@! TF.CreationDate,2025-10-15T09:52:21+02:00*
G04 #@! TF.ProjectId,KleverLogger,4b6c6576-6572-44c6-9f67-6765722e6b69,rev?*
G04 #@! TF.SameCoordinates,Original*
G04 #@! TF.FileFunction,Soldermask,Top*
G04 #@! TF.FilePolarity,Negative*
%FSLAX46Y46*%
G04 Gerber Fmt 4.6, Leading zero omitted, Abs format (unit mm)*
G04 Created by KiCad (PCBNEW 9.0.5) date 2025-10-15 09:52:21*
%MOMM*%
%LPD*%
G01*
G04 APERTURE LIST*
G04 Aperture macros list*
%AMRoundRect*
0 Rectangle with rounded corners*
0 $1 Rounding radius*
0 $2 $3 $4 $5 $6 $7 $8 $9 X,Y pos of 4 corners*
0 Add a 4 corners polygon primitive as box body*
4,1,4,$2,$3,$4,$5,$6,$7,$8,$9,$2,$3,0*
0 Add four circle primitives for the rounded corners*
1,1,$1+$1,$2,$3*
1,1,$1+$1,$4,$5*
1,1,$1+$1,$6,$7*
1,1,$1+$1,$8,$9*
0 Add four rect primitives between the rounded corners*
20,1,$1+$1,$2,$3,$4,$5,0*
20,1,$1+$1,$4,$5,$6,$7,0*
20,1,$1+$1,$6,$7,$8,$9,0*
20,1,$1+$1,$8,$9,$2,$3,0*%
G04 Aperture macros list end*
%ADD10C,0.800000*%
%ADD11RoundRect,0.150000X0.512500X0.150000X-0.512500X0.150000X-0.512500X-0.150000X0.512500X-0.150000X0*%
%ADD12C,3.200000*%
%ADD13RoundRect,0.250000X-0.350000X-0.625000X0.350000X-0.625000X0.350000X0.625000X-0.350000X0.625000X0*%
%ADD14O,1.200000X1.750000*%
%ADD15RoundRect,0.250000X-0.450000X0.262500X-0.450000X-0.262500X0.450000X-0.262500X0.450000X0.262500X0*%
%ADD16RoundRect,0.250000X-0.250000X-0.475000X0.250000X-0.475000X0.250000X0.475000X-0.250000X0.475000X0*%
%ADD17R,1.800000X7.500000*%
%ADD18RoundRect,0.250000X-0.300000X-0.300000X0.300000X-0.300000X0.300000X0.300000X-0.300000X0.300000X0*%
%ADD19RoundRect,0.090000X-0.660000X-0.360000X0.660000X-0.360000X0.660000X0.360000X-0.660000X0.360000X0*%
%ADD20R,1.500000X0.900000*%
%ADD21C,0.600000*%
%ADD22R,2.900000X2.900000*%
%ADD23RoundRect,0.250000X0.475000X-0.250000X0.475000X0.250000X-0.475000X0.250000X-0.475000X-0.250000X0*%
%ADD24RoundRect,0.100000X-0.400000X-0.400000X0.400000X-0.400000X0.400000X0.400000X-0.400000X0.400000X0*%
%ADD25RoundRect,0.150000X0.150000X-0.512500X0.150000X0.512500X-0.150000X0.512500X-0.150000X-0.512500X0*%
%ADD26RoundRect,0.243750X0.456250X-0.243750X0.456250X0.243750X-0.456250X0.243750X-0.456250X-0.243750X0*%
%ADD27RoundRect,0.250000X-0.475000X0.250000X-0.475000X-0.250000X0.475000X-0.250000X0.475000X0.250000X0*%
%ADD28RoundRect,0.250000X-0.262500X-0.450000X0.262500X-0.450000X0.262500X0.450000X-0.262500X0.450000X0*%
%ADD29RoundRect,0.150000X-0.650000X-0.150000X0.650000X-0.150000X0.650000X0.150000X-0.650000X0.150000X0*%
%ADD30R,2.410000X3.100000*%
%ADD31RoundRect,0.150000X-0.150000X0.825000X-0.150000X-0.825000X0.150000X-0.825000X0.150000X0.825000X0*%
%ADD32RoundRect,0.250000X-0.325000X-0.650000X0.325000X-0.650000X0.325000X0.650000X-0.325000X0.650000X0*%
%ADD33C,0.650000*%
%ADD34R,1.450000X0.600000*%
%ADD35R,1.450000X0.300000*%
%ADD36O,2.100000X1.000000*%
%ADD37O,1.600000X1.000000*%
G04 APERTURE END LIST*
D10*
G04 #@! TO.C,TP12*
X98300000Y-94100000D03*
G04 #@! TD*
G04 #@! TO.C,TP11*
X80100000Y-130400000D03*
G04 #@! TD*
G04 #@! TO.C,TP10*
X89100000Y-130200000D03*
G04 #@! TD*
G04 #@! TO.C,TP9*
X72600000Y-100200000D03*
G04 #@! TD*
G04 #@! TO.C,TP8*
X71800000Y-95800000D03*
G04 #@! TD*
G04 #@! TO.C,TP7*
X68100000Y-97400000D03*
G04 #@! TD*
G04 #@! TO.C,TP6*
X70200000Y-92200000D03*
G04 #@! TD*
G04 #@! TO.C,TP5*
X96200000Y-101700000D03*
G04 #@! TD*
G04 #@! TO.C,TP4*
X92400000Y-106300000D03*
G04 #@! TD*
G04 #@! TO.C,TP3*
X90000000Y-105300000D03*
G04 #@! TD*
G04 #@! TO.C,TP2*
X76500000Y-106500000D03*
G04 #@! TD*
G04 #@! TO.C,TP1*
X62000000Y-98100000D03*
G04 #@! TD*
D11*
G04 #@! TO.C,U6*
X98637500Y-117250000D03*
X98637500Y-116300000D03*
X98637500Y-115350000D03*
X96362500Y-115350000D03*
X96362500Y-116300000D03*
X96362500Y-117250000D03*
G04 #@! TD*
D12*
G04 #@! TO.C,H2*
X106000000Y-136000000D03*
G04 #@! TD*
D13*
G04 #@! TO.C,J7*
X95000000Y-134550000D03*
D14*
X97000000Y-134550000D03*
X99000000Y-134550000D03*
G04 #@! TD*
D13*
G04 #@! TO.C,J1*
X82000000Y-134550000D03*
D14*
X84000000Y-134550000D03*
X86000000Y-134550000D03*
X88000000Y-134550000D03*
G04 #@! TD*
D15*
G04 #@! TO.C,R83*
X78100000Y-118087500D03*
X78100000Y-119912500D03*
G04 #@! TD*
D16*
G04 #@! TO.C,C8*
X97050000Y-119500000D03*
X98950000Y-119500000D03*
G04 #@! TD*
D17*
G04 #@! TO.C,L2*
X68200000Y-112000000D03*
X73800000Y-112000000D03*
G04 #@! TD*
D18*
G04 #@! TO.C,D5*
X96500000Y-112200000D03*
X99300000Y-112200000D03*
G04 #@! TD*
D12*
G04 #@! TO.C,H1*
X64000000Y-94000000D03*
G04 #@! TD*
D19*
G04 #@! TO.C,D8*
X102550000Y-105350000D03*
X102550000Y-108650000D03*
X107450000Y-108650000D03*
X107450000Y-105350000D03*
G04 #@! TD*
D20*
G04 #@! TO.C,U1*
X76190000Y-91000000D03*
X76190000Y-92500000D03*
X76190000Y-94000000D03*
X76190000Y-95500000D03*
X76190000Y-97000000D03*
X76190000Y-98500000D03*
X76190000Y-100000000D03*
X76190000Y-101500000D03*
X76190000Y-103000000D03*
X93690000Y-103000000D03*
X93690000Y-101500000D03*
X93690000Y-100000000D03*
X93690000Y-98500000D03*
X93690000Y-97000000D03*
X93690000Y-95500000D03*
X93690000Y-94000000D03*
X93690000Y-92500000D03*
X93690000Y-91000000D03*
D21*
X84800000Y-96650000D03*
X84800000Y-97750000D03*
X85350000Y-96100000D03*
X85350000Y-97200000D03*
X85350000Y-98300000D03*
X85900000Y-96650000D03*
D22*
X85900000Y-97200000D03*
D21*
X85900000Y-97750000D03*
X86450000Y-96100000D03*
X86450000Y-97200000D03*
X86450000Y-98300000D03*
X87000000Y-96650000D03*
X87000000Y-97750000D03*
G04 #@! TD*
D23*
G04 #@! TO.C,C35*
X76000000Y-119950000D03*
X76000000Y-118050000D03*
G04 #@! TD*
G04 #@! TO.C,C37*
X74000000Y-123950000D03*
X74000000Y-122050000D03*
G04 #@! TD*
D24*
G04 #@! TO.C,SW1*
X64200000Y-101400000D03*
X70200000Y-101400000D03*
X64200000Y-105400000D03*
X70200000Y-105400000D03*
G04 #@! TD*
D19*
G04 #@! TO.C,D7*
X102550000Y-99350000D03*
X102550000Y-102650000D03*
X107450000Y-102650000D03*
X107450000Y-99350000D03*
G04 #@! TD*
D25*
G04 #@! TO.C,U2*
X79850000Y-108137500D03*
X80800000Y-108137500D03*
X81750000Y-108137500D03*
X81750000Y-105862500D03*
X79850000Y-105862500D03*
G04 #@! TD*
D26*
G04 #@! TO.C,D1*
X84000000Y-113075000D03*
X84000000Y-111200000D03*
G04 #@! TD*
D27*
G04 #@! TO.C,C50*
X71900000Y-118050000D03*
X71900000Y-119950000D03*
G04 #@! TD*
D18*
G04 #@! TO.C,D3*
X62600000Y-129000000D03*
X65400000Y-129000000D03*
G04 #@! TD*
D13*
G04 #@! TO.C,J2*
X65000000Y-134550000D03*
D14*
X67000000Y-134550000D03*
G04 #@! TD*
D16*
G04 #@! TO.C,C53*
X77050000Y-115000000D03*
X78950000Y-115000000D03*
G04 #@! TD*
D28*
G04 #@! TO.C,R85*
X67687500Y-126100000D03*
X69512500Y-126100000D03*
G04 #@! TD*
D16*
G04 #@! TO.C,C36*
X77100000Y-112000000D03*
X79000000Y-112000000D03*
G04 #@! TD*
D29*
G04 #@! TO.C,U9*
X64350000Y-118095000D03*
X64350000Y-119365000D03*
X64350000Y-120635000D03*
X64350000Y-121905000D03*
X69650000Y-121905000D03*
X69650000Y-120635000D03*
X69650000Y-119365000D03*
X69650000Y-118095000D03*
D30*
X67000000Y-120000000D03*
G04 #@! TD*
D15*
G04 #@! TO.C,R84*
X76000000Y-122087500D03*
X76000000Y-123912500D03*
G04 #@! TD*
D31*
G04 #@! TO.C,U3*
X86705000Y-124525000D03*
X85435000Y-124525000D03*
X84165000Y-124525000D03*
X82895000Y-124525000D03*
X82895000Y-129475000D03*
X84165000Y-129475000D03*
X85435000Y-129475000D03*
X86705000Y-129475000D03*
G04 #@! TD*
D32*
G04 #@! TO.C,C52*
X62525000Y-126000000D03*
X65475000Y-126000000D03*
G04 #@! TD*
D33*
G04 #@! TO.C,J5*
X103350000Y-119210000D03*
X103350000Y-113430000D03*
D34*
X101905000Y-119570000D03*
X101905000Y-118770000D03*
D35*
X101905000Y-117570000D03*
X101905000Y-116570000D03*
X101905000Y-116070000D03*
X101905000Y-115070000D03*
D34*
X101905000Y-113870000D03*
X101905000Y-113070000D03*
X101905000Y-113070000D03*
X101905000Y-113870000D03*
D35*
X101905000Y-114570000D03*
X101905000Y-115570000D03*
X101905000Y-117070000D03*
X101905000Y-118070000D03*
D34*
X101905000Y-118770000D03*
X101905000Y-119570000D03*
D36*
X102820000Y-120640000D03*
D37*
X107000000Y-120640000D03*
D36*
X102820000Y-112000000D03*
D37*
X107000000Y-112000000D03*
G04 #@! TD*
D19*
G04 #@! TO.C,D6*
X102550000Y-93350000D03*
X102550000Y-96650000D03*
X107450000Y-96650000D03*
X107450000Y-93350000D03*
G04 #@! TD*
D15*
G04 #@! TO.C,R67*
X74000000Y-118087500D03*
X74000000Y-119912500D03*
G04 #@! TD*
M02*
